Ezerovo-Regular.ufo
<glyph name="uni0000" format="2">
  <advance width="802"/>
  <unicode hex="0000"/>
  <outline>
    <contour>
      <point x="0" y="-75" type="line"/>
      <point x="802" y="-75" type="line"/>
      <point x="802" y="725" type="line"/>
      <point x="0" y="725" type="line"/>
    </contour>
    <contour>
      <point x="425" y="662" type="line"/>
      <point x="704" y="662" type="line"/>
      <point x="704" y="252" type="line"/>
      <point x="425" y="252" type="line"/>
    </contour>
    <contour>
      <point x="369" y="662" type="line"/>
      <point x="369" y="252" type="line"/>
      <point x="287" y="252" type="line"/>
      <point x="287" y="331" type="line"/>
      <point x="171" y="504" type="line"/>
      <point x="171" y="252" type="line"/>
      <point x="90" y="252" type="line"/>
      <point x="90" y="662" type="line"/>
      <point x="171" y="662" type="line"/>
      <point x="287" y="489" type="line"/>
      <point x="287" y="662" type="line"/>
    </contour>
    <contour>
      <point x="90" y="183" type="line"/>
      <point x="215" y="183" type="line"/>
      <point x="215" y="147" type="line"/>
      <point x="126" y="147" type="line"/>
      <point x="126" y="36" type="line"/>
      <point x="178" y="36" type="line"/>
      <point x="178" y="73" type="line"/>
      <point x="153" y="73" type="line"/>
      <point x="153" y="110" type="line"/>
      <point x="215" y="110" type="line"/>
      <point x="215" y="0" type="line"/>
      <point x="90" y="0" type="line"/>
    </contour>
    <contour>
      <point x="239" y="183" type="line"/>
      <point x="277" y="183" type="line"/>
      <point x="277" y="36" type="line"/>
      <point x="349" y="36" type="line"/>
      <point x="349" y="0" type="line"/>
      <point x="239" y="0" type="line"/>
    </contour>
    <contour>
      <point x="302" y="183" type="line"/>
      <point x="338" y="183" type="line"/>
      <point x="338" y="110" type="line"/>
      <point x="379" y="110" type="line"/>
      <point x="379" y="183" type="line"/>
      <point x="416" y="183" type="line"/>
      <point x="416" y="0" type="line"/>
      <point x="379" y="0" type="line"/>
      <point x="379" y="73" type="line"/>
      <point x="302" y="73" type="line"/>
    </contour>
    <contour>
      <point x="446" y="183" type="line"/>
      <point x="560" y="183" type="line"/>
      <point x="560" y="73" type="line"/>
      <point x="483" y="73" type="line"/>
      <point x="483" y="0" type="line"/>
      <point x="446" y="0" type="line"/>
    </contour>
    <contour>
      <point x="589" y="183" type="line"/>
      <point x="626" y="183" type="line"/>
      <point x="626" y="110" type="line"/>
      <point x="667" y="110" type="line"/>
      <point x="667" y="182" type="line"/>
      <point x="703" y="182" type="line"/>
      <point x="703" y="0" type="line"/>
      <point x="667" y="0" type="line"/>
      <point x="667" y="73" type="line"/>
      <point x="626" y="73" type="line"/>
      <point x="626" y="0" type="line"/>
      <point x="589" y="0" type="line"/>
    </contour>
    <contour>
      <point x="507" y="580" type="line"/>
      <point x="507" y="334" type="line"/>
      <point x="623" y="334" type="line"/>
      <point x="623" y="580" type="line"/>
    </contour>
    <contour>
      <point x="483" y="147" type="line"/>
      <point x="483" y="110" type="line"/>
      <point x="523" y="110" type="line"/>
      <point x="523" y="147" type="line"/>
    </contour>
  </outline>
</glyph>
<glyph name="exclam" format="2">
  <advance width="227"/>
  <unicode hex="0021"/>
  <outline>
    <contour>
      <point x="62" y="602" type="line" smooth="yes"/>
      <point x="58" y="644"/>
      <point x="63" y="665"/>
      <point x="114" y="665" type="curve" smooth="yes"/>
      <point x="166" y="665"/>
      <point x="170" y="644"/>
      <point x="166" y="602" type="curve" smooth="yes"/>
      <point x="127" y="196" type="line"/>
      <point x="100" y="196" type="line"/>
    </contour>
    <contour>
      <point x="55" y="48" type="line"/>
      <point x="55" y="83"/>
      <point x="78" y="109"/>
      <point x="114" y="109" type="curve" smooth="yes"/>
      <point x="151" y="109"/>
      <point x="173" y="83"/>
      <point x="173" y="48" type="curve"/>
      <point x="172" y="14"/>
      <point x="151" y="-11"/>
      <point x="114" y="-11" type="curve" smooth="yes"/>
      <point x="78" y="-11"/>
      <point x="55" y="14"/>
      <point x="55" y="48" type="curve"/>
    </contour>
  </outline>
</glyph>
<glyph name="quotedbl" format="2">
  <advance width="430"/>
  <unicode hex="0022"/>
  <outline>
    <contour>
      <point x="251" y="648" type="line" smooth="yes"/>
      <point x="246" y="682"/>
      <point x="258" y="697"/>
      <point x="293" y="697" type="curve" smooth="yes"/>
      <point x="328" y="697"/>
      <point x="341" y="682"/>
      <point x="336" y="648" type="curve" smooth="yes"/>
      <point x="303" y="436" type="line"/>
      <point x="284" y="436" type="line"/>
    </contour>
    <contour>
      <point x="96" y="648" type="line" smooth="yes"/>
      <point x="91" y="682"/>
      <point x="103" y="697"/>
      <point x="138" y="697" type="curve" smooth="yes"/>
      <point x="173" y="697"/>
      <point x="185" y="682"/>
      <point x="180" y="648" type="curve" smooth="yes"/>
      <point x="148" y="436" type="line"/>
      <point x="129" y="436" type="line"/>
    </contour>
  </outline>
</glyph>
<glyph name="numbersign" format="2">
  <advance width="498"/>
  <unicode hex="0023"/>
  <outline>
    <contour>
      <point x="10" y="218" type="line"/>
      <point x="22" y="261" type="line"/>
      <point x="121" y="261" type="line"/>
      <point x="152" y="386" type="line"/>
      <point x="52" y="386" type="line"/>
      <point x="63" y="430" type="line"/>
      <point x="163" y="430" type="line"/>
      <point x="212" y="628" type="line"/>
      <point x="262" y="628" type="line"/>
      <point x="213" y="430" type="line"/>
      <point x="340" y="430" type="line"/>
      <point x="389" y="628" type="line"/>
      <point x="439" y="628" type="line"/>
      <point x="390" y="430" type="line"/>
      <point x="488" y="430" type="line"/>
      <point x="478" y="386" type="line"/>
      <point x="380" y="386" type="line"/>
      <point x="349" y="261" type="line"/>
      <point x="446" y="261" type="line"/>
      <point x="437" y="218" type="line"/>
      <point x="338" y="218" type="line"/>
      <point x="285" y="0" type="line"/>
      <point x="234" y="0" type="line"/>
      <point x="289" y="218" type="line"/>
      <point x="162" y="218" type="line"/>
      <point x="108" y="0" type="line"/>
      <point x="56" y="0" type="line"/>
      <point x="111" y="218" type="line"/>
    </contour>
    <contour>
      <point x="172" y="261" type="line"/>
      <point x="299" y="261" type="line"/>
      <point x="330" y="386" type="line"/>
      <point x="203" y="386" type="line"/>
    </contour>
  </outline>
</glyph>
<glyph name="dollar" format="2">
  <advance width="498"/>
  <unicode hex="0024"/>
  <outline>
    <contour>
      <point x="41" y="103" type="curve" smooth="yes"/>
      <point x="41" y="131"/>
      <point x="66" y="151"/>
      <point x="85" y="151" type="curve" smooth="yes"/>
      <point x="98" y="151"/>
      <point x="105" y="144"/>
      <point x="112" y="131" type="curve"/>
      <point x="151" y="51"/>
      <point x="198" y="34"/>
      <point x="228" y="33" type="curve"/>
      <point x="228" y="292" type="line"/>
      <point x="97" y="331"/>
      <point x="53" y="390"/>
      <point x="53" y="465" type="curve" smooth="yes"/>
      <point x="53" y="575"/>
      <point x="140" y="627"/>
      <point x="228" y="627" type="curve"/>
      <point x="228" y="698" type="line"/>
      <point x="266" y="698" type="line"/>
      <point x="266" y="628" type="line"/>
      <point x="378" y="628"/>
      <point x="431" y="570"/>
      <point x="431" y="531" type="curve" smooth="yes"/>
      <point x="431" y="504"/>
      <point x="402" y="493"/>
      <point x="387" y="493" type="curve" smooth="yes"/>
      <point x="374" y="493"/>
      <point x="368" y="497"/>
      <point x="362" y="511" type="curve" smooth="yes"/>
      <point x="339" y="566"/>
      <point x="304" y="592"/>
      <point x="266" y="595" type="curve"/>
      <point x="266" y="367" type="line"/>
      <point x="392" y="331"/>
      <point x="458" y="274"/>
      <point x="458" y="172" type="curve" smooth="yes"/>
      <point x="458" y="19"/>
      <point x="303" y="0"/>
      <point x="266" y="0" type="curve"/>
      <point x="266" y="-96" type="line"/>
      <point x="228" y="-96" type="line"/>
      <point x="228" y="0" type="line"/>
      <point x="84" y="0"/>
      <point x="41" y="72"/>
    </contour>
    <contour>
      <point x="127" y="491" type="curve" smooth="yes"/>
      <point x="127" y="421"/>
      <point x="180" y="397"/>
      <point x="228" y="381" type="curve"/>
      <point x="228" y="594" type="line"/>
      <point x="188" y="594"/>
      <point x="127" y="568"/>
    </contour>
    <contour>
      <point x="266" y="33" type="line"/>
      <point x="312" y="33"/>
      <point x="376" y="56"/>
      <point x="376" y="143" type="curve" smooth="yes"/>
      <point x="376" y="227"/>
      <point x="328" y="260"/>
      <point x="266" y="280" type="curve"/>
    </contour>
  </outline>
</glyph>
<glyph name="percent" format="2">
  <advance width="787"/>
  <unicode hex="0025"/>
  <outline>
    <contour>
      <point x="47" y="467" type="line"/>
      <point x="47" y="575"/>
      <point x="95" y="639"/>
      <point x="195" y="639" type="curve" smooth="yes"/>
      <point x="243" y="639"/>
      <point x="274" y="626"/>
      <point x="299" y="607" type="curve"/>
      <point x="313" y="598"/>
      <point x="317" y="595"/>
      <point x="339" y="595" type="curve" smooth="yes"/>
      <point x="498" y="595" type="line"/>
      <point x="530" y="597"/>
      <point x="548" y="602"/>
      <point x="565" y="626" type="curve" smooth="yes"/>
      <point x="588" y="658" type="line"/>
      <point x="619" y="638" type="line"/>
      <point x="206" y="-24" type="line"/>
      <point x="172" y="2" type="line"/>
      <point x="524" y="565" type="line"/>
      <point x="331" y="565" type="line"/>
      <point x="338" y="547"/>
      <point x="343" y="516"/>
      <point x="343" y="467" type="curve" smooth="yes"/>
      <point x="343" y="359"/>
      <point x="296" y="295"/>
      <point x="195" y="295" type="curve" smooth="yes"/>
      <point x="95" y="295"/>
      <point x="47" y="359"/>
      <point x="47" y="467" type="curve"/>
    </contour>
    <contour>
      <point x="117" y="467" type="line"/>
      <point x="117" y="377"/>
      <point x="146" y="325"/>
      <point x="195" y="325" type="curve" smooth="yes"/>
      <point x="245" y="325"/>
      <point x="274" y="377"/>
      <point x="274" y="467" type="curve" smooth="yes"/>
      <point x="274" y="565"/>
      <point x="243" y="609"/>
      <point x="195" y="609" type="curve" smooth="yes"/>
      <point x="148" y="609"/>
      <point x="117" y="565"/>
      <point x="117" y="467" type="curve"/>
    </contour>
    <contour>
      <point x="445" y="161" type="line"/>
      <point x="445" y="269"/>
      <point x="492" y="333"/>
      <point x="592" y="333" type="curve" smooth="yes"/>
      <point x="693" y="333"/>
      <point x="741" y="269"/>
      <point x="741" y="161" type="curve" smooth="yes"/>
      <point x="741" y="53"/>
      <point x="693" y="-11"/>
      <point x="592" y="-11" type="curve" smooth="yes"/>
      <point x="492" y="-11"/>
      <point x="445" y="53"/>
      <point x="445" y="161" type="curve"/>
    </contour>
    <contour>
      <point x="514" y="161" type="line"/>
      <point x="514" y="71"/>
      <point x="543" y="19"/>
      <point x="592" y="19" type="curve" smooth="yes"/>
      <point x="642" y="19"/>
      <point x="671" y="71"/>
      <point x="671" y="161" type="curve" smooth="yes"/>
      <point x="671" y="259"/>
      <point x="640" y="303"/>
      <point x="592" y="303" type="curve" smooth="yes"/>
      <point x="545" y="303"/>
      <point x="514" y="259"/>
      <point x="514" y="161" type="curve"/>
    </contour>
  </outline>
</glyph>
<glyph name="ampersand" format="2">
  <advance width="663"/>
  <unicode hex="0026"/>
  <outline>
    <contour>
      <point x="43" y="165" type="curve" smooth="yes"/>
      <point x="43" y="257"/>
      <point x="117" y="305"/>
      <point x="180" y="344" type="curve"/>
      <point x="150" y="382"/>
      <point x="118" y="426"/>
      <point x="118" y="490" type="curve" smooth="yes"/>
      <point x="118" y="572"/>
      <point x="184" y="639"/>
      <point x="272" y="639" type="curve" smooth="yes"/>
      <point x="348" y="639"/>
      <point x="411" y="592"/>
      <point x="411" y="509" type="curve" smooth="yes"/>
      <point x="411" y="434"/>
      <point x="347" y="398"/>
      <point x="274" y="359" type="curve"/>
      <point x="328" y="293"/>
      <point x="386" y="228"/>
      <point x="471" y="151" type="curve"/>
      <point x="518" y="205"/>
      <point x="531" y="276"/>
      <point x="531" y="339" type="curve" smooth="yes"/>
      <point x="531" y="357"/>
      <point x="530" y="375"/>
      <point x="528" y="391" type="curve"/>
      <point x="552" y="404"/>
      <point x="578" y="410"/>
      <point x="600" y="407" type="curve"/>
      <point x="612" y="383"/>
      <point x="617" y="364"/>
      <point x="617" y="347" type="curve" smooth="yes"/>
      <point x="617" y="278"/>
      <point x="537" y="177"/>
      <point x="495" y="128" type="curve"/>
      <point x="532" y="92"/>
      <point x="605" y="29"/>
      <point x="650" y="17" type="curve"/>
      <point x="646" y="-7" type="line"/>
      <point x="626" y="-5" type="line" smooth="yes"/>
      <point x="541" y="2"/>
      <point x="510" y="16"/>
      <point x="444" y="69" type="curve"/>
      <point x="382" y="14"/>
      <point x="318" y="-11"/>
      <point x="248" y="-11" type="curve" smooth="yes"/>
      <point x="131" y="-11"/>
      <point x="43" y="52"/>
    </contour>
    <contour>
      <point x="134" y="184" type="curve" smooth="yes"/>
      <point x="134" y="95"/>
      <point x="195" y="35"/>
      <point x="276" y="35" type="curve" smooth="yes"/>
      <point x="337" y="35"/>
      <point x="377" y="56"/>
      <point x="418" y="92" type="curve"/>
      <point x="333" y="168"/>
      <point x="261" y="244"/>
      <point x="199" y="318" type="curve"/>
      <point x="177" y="299"/>
      <point x="134" y="258"/>
    </contour>
    <contour>
      <point x="252" y="382" type="curve"/>
      <point x="304" y="418"/>
      <point x="338" y="461"/>
      <point x="338" y="515" type="curve" smooth="yes"/>
      <point x="338" y="566"/>
      <point x="315" y="606"/>
      <point x="268" y="606" type="curve" smooth="yes"/>
      <point x="228" y="606"/>
      <point x="191" y="569"/>
      <point x="191" y="513" type="curve" smooth="yes"/>
      <point x="191" y="466"/>
      <point x="213" y="425"/>
    </contour>
  </outline>
</glyph>
<glyph name="quotesingle" format="2">
  <advance width="261"/>
  <unicode hex="0027"/>
  <outline>
    <contour>
      <point x="88" y="648" type="line" smooth="yes"/>
      <point x="83" y="682"/>
      <point x="96" y="697"/>
      <point x="131" y="697" type="curve" smooth="yes"/>
      <point x="166" y="697"/>
      <point x="178" y="682"/>
      <point x="173" y="648" type="curve" smooth="yes"/>
      <point x="140" y="436" type="line"/>
      <point x="121" y="436" type="line"/>
    </contour>
  </outline>
</glyph>
<glyph name="parenleft" format="2">
  <advance width="346"/>
  <unicode hex="0028"/>
  <outline>
    <contour>
      <point x="57" y="279" type="curve" smooth="yes"/>
      <point x="57" y="491"/>
      <point x="109" y="738"/>
      <point x="308" y="746" type="curve"/>
      <point x="308" y="718" type="line"/>
      <point x="236" y="703"/>
      <point x="136" y="606"/>
      <point x="136" y="279" type="curve" smooth="yes"/>
      <point x="136" y="-50"/>
      <point x="241" y="-147"/>
      <point x="308" y="-160" type="curve"/>
      <point x="308" y="-188" type="line"/>
      <point x="109" y="-180"/>
      <point x="57" y="67"/>
    </contour>
  </outline>
</glyph>
<glyph name="parenright" format="2">
  <advance width="346"/>
  <unicode hex="0029"/>
  <outline>
    <contour>
      <point x="38" y="-188" type="curve"/>
      <point x="38" y="-160" type="line"/>
      <point x="105" y="-147"/>
      <point x="210" y="-50"/>
      <point x="210" y="279" type="curve" smooth="yes"/>
      <point x="210" y="606"/>
      <point x="110" y="703"/>
      <point x="38" y="718" type="curve"/>
      <point x="38" y="746" type="line"/>
      <point x="237" y="738"/>
      <point x="289" y="491"/>
      <point x="289" y="279" type="curve" smooth="yes"/>
      <point x="289" y="67"/>
      <point x="237" y="-180"/>
    </contour>
  </outline>
</glyph>
<glyph name="asterisk" format="2">
  <advance width="387"/>
  <unicode hex="002A"/>
  <outline>
    <contour>
      <point x="54" y="590" type="line"/>
      <point x="68" y="611"/>
      <point x="85" y="609"/>
      <point x="99" y="597" type="curve" smooth="yes"/>
      <point x="170" y="537" type="line" smooth="yes"/>
      <point x="179" y="529"/>
      <point x="186" y="531"/>
      <point x="182" y="547" type="curve"/>
      <point x="164" y="635" type="line" smooth="yes"/>
      <point x="160" y="654"/>
      <point x="170" y="665"/>
      <point x="194" y="665" type="curve" smooth="yes"/>
      <point x="218" y="665"/>
      <point x="227" y="654"/>
      <point x="223" y="635" type="curve" smooth="yes"/>
      <point x="205" y="547" type="line"/>
      <point x="201" y="531"/>
      <point x="208" y="529"/>
      <point x="217" y="537" type="curve"/>
      <point x="290" y="598" type="line" smooth="yes"/>
      <point x="303" y="609"/>
      <point x="322" y="612"/>
      <point x="335" y="590" type="curve" smooth="yes"/>
      <point x="344" y="575"/>
      <point x="345" y="556"/>
      <point x="322" y="548" type="curve"/>
      <point x="232" y="512" type="line"/>
      <point x="215" y="506"/>
      <point x="213" y="500"/>
      <point x="229" y="494" type="curve"/>
      <point x="320" y="457" type="line" smooth="yes"/>
      <point x="341" y="449"/>
      <point x="345" y="430"/>
      <point x="332" y="411" type="curve" smooth="yes"/>
      <point x="320" y="394"/>
      <point x="302" y="391"/>
      <point x="287" y="406" type="curve" smooth="yes"/>
      <point x="219" y="471" type="line" smooth="yes"/>
      <point x="206" y="483"/>
      <point x="202" y="475"/>
      <point x="205" y="460" type="curve" smooth="yes"/>
      <point x="223" y="372" type="line" smooth="yes"/>
      <point x="228" y="350"/>
      <point x="219" y="335"/>
      <point x="194" y="335" type="curve" smooth="yes"/>
      <point x="169" y="335"/>
      <point x="159" y="350"/>
      <point x="164" y="372" type="curve" smooth="yes"/>
      <point x="182" y="460" type="line" smooth="yes"/>
      <point x="185" y="475"/>
      <point x="181" y="483"/>
      <point x="168" y="471" type="curve" smooth="yes"/>
      <point x="101" y="407" type="line" smooth="yes"/>
      <point x="85" y="392"/>
      <point x="67" y="394"/>
      <point x="55" y="411" type="curve"/>
      <point x="43" y="430"/>
      <point x="47" y="449"/>
      <point x="68" y="457" type="curve" smooth="yes"/>
      <point x="158" y="494" type="line"/>
      <point x="174" y="500"/>
      <point x="172" y="506"/>
      <point x="155" y="512" type="curve"/>
      <point x="66" y="547" type="line" smooth="yes"/>
      <point x="42" y="556"/>
      <point x="44" y="575"/>
      <point x="54" y="590" type="curve"/>
    </contour>
  </outline>
</glyph>
<glyph name="plus" format="2">
  <advance width="535"/>
  <unicode hex="002B"/>
  <outline>
    <contour>
      <point x="40" y="208" type="line"/>
      <point x="40" y="262" type="line"/>
      <point x="236" y="262" type="line"/>
      <point x="236" y="461" type="line"/>
      <point x="300" y="461" type="line"/>
      <point x="300" y="262" type="line"/>
      <point x="495" y="262" type="line"/>
      <point x="495" y="208" type="line"/>
      <point x="300" y="208" type="line"/>
      <point x="300" y="0" type="line"/>
      <point x="236" y="0" type="line"/>
      <point x="236" y="208" type="line"/>
    </contour>
  </outline>
</glyph>
<glyph name="comma" format="2">
  <advance width="249"/>
  <unicode hex="002C"/>
  <outline>
    <contour>
      <point x="48" y="-115" type="line"/>
      <point x="78" y="-82"/>
      <point x="102" y="-45"/>
      <point x="102" y="-6" type="curve" smooth="yes"/>
      <point x="102" y="34"/>
      <point x="71" y="52"/>
      <point x="71" y="86" type="curve" smooth="yes"/>
      <point x="71" y="110"/>
      <point x="89" y="133"/>
      <point x="118" y="133" type="curve" smooth="yes"/>
      <point x="154" y="133"/>
      <point x="181" y="98"/>
      <point x="181" y="48" type="curve" smooth="yes"/>
      <point x="181" y="-26"/>
      <point x="113" y="-89"/>
      <point x="66" y="-133" type="curve"/>
    </contour>
  </outline>
</glyph>
<glyph name="period" format="2">
  <advance width="249"/>
  <unicode hex="002E"/>
  <outline>
    <contour>
      <point x="66" y="48" type="line"/>
      <point x="66" y="83"/>
      <point x="89" y="109"/>
      <point x="125" y="109" type="curve" smooth="yes"/>
      <point x="162" y="109"/>
      <point x="184" y="83"/>
      <point x="184" y="48" type="curve"/>
      <point x="183" y="14"/>
      <point x="162" y="-11"/>
      <point x="125" y="-11" type="curve" smooth="yes"/>
      <point x="89" y="-11"/>
      <point x="66" y="14"/>
      <point x="66" y="48" type="curve"/>
    </contour>
  </outline>
</glyph>
<glyph name="slash" format="2">
  <advance width="432"/>
  <unicode hex="002F"/>
  <outline>
    <contour>
      <point x="86" y="-14" type="line"/>
      <point x="284" y="665" type="line"/>
      <point x="347" y="665" type="line"/>
      <point x="149" y="-14" type="line"/>
    </contour>
  </outline>
</glyph>
<glyph name="colon" format="2">
  <advance width="249"/>
  <unicode hex="003A"/>
  <outline>
    <contour>
      <point x="66" y="48" type="curve" smooth="yes"/>
      <point x="66" y="83"/>
      <point x="89" y="109"/>
      <point x="125" y="109" type="curve" smooth="yes"/>
      <point x="162" y="109"/>
      <point x="184" y="83"/>
      <point x="184" y="48" type="curve" smooth="yes"/>
      <point x="184" y="14"/>
      <point x="162" y="-11"/>
      <point x="125" y="-11" type="curve" smooth="yes"/>
      <point x="89" y="-11"/>
      <point x="66" y="14"/>
    </contour>
    <contour>
      <point x="66" y="400" type="curve" smooth="yes"/>
      <point x="66" y="435"/>
      <point x="89" y="461"/>
      <point x="125" y="461" type="curve" smooth="yes"/>
      <point x="162" y="461"/>
      <point x="184" y="435"/>
      <point x="184" y="400" type="curve" smooth="yes"/>
      <point x="184" y="366"/>
      <point x="162" y="341"/>
      <point x="125" y="341" type="curve" smooth="yes"/>
      <point x="89" y="341"/>
      <point x="66" y="366"/>
    </contour>
  </outline>
</glyph>
<glyph name="semicolon" format="2">
  <advance width="249"/>
  <unicode hex="003B"/>
  <outline>
    <contour>
      <point x="48" y="-115" type="line"/>
      <point x="78" y="-82"/>
      <point x="102" y="-45"/>
      <point x="102" y="-8" type="curve" smooth="yes"/>
      <point x="102" y="34"/>
      <point x="71" y="52"/>
      <point x="71" y="85" type="curve" smooth="yes"/>
      <point x="71" y="110"/>
      <point x="89" y="133"/>
      <point x="118" y="133" type="curve" smooth="yes"/>
      <point x="154" y="133"/>
      <point x="181" y="98"/>
      <point x="181" y="50" type="curve" smooth="yes"/>
      <point x="181" y="-26"/>
      <point x="113" y="-89"/>
      <point x="66" y="-133" type="curve"/>
    </contour>
    <contour>
      <point x="66" y="400" type="curve" smooth="yes"/>
      <point x="66" y="435"/>
      <point x="89" y="461"/>
      <point x="125" y="461" type="curve" smooth="yes"/>
      <point x="162" y="461"/>
      <point x="184" y="435"/>
      <point x="184" y="400" type="curve" smooth="yes"/>
      <point x="184" y="366"/>
      <point x="162" y="341"/>
      <point x="125" y="341" type="curve" smooth="yes"/>
      <point x="89" y="341"/>
      <point x="66" y="366"/>
    </contour>
  </outline>
</glyph>
<glyph name="less" format="2">
  <advance width="535"/>
  <unicode hex="003C"/>
  <outline>
    <contour>
      <point x="43" y="197" type="line"/>
      <point x="43" y="273" type="line"/>
      <point x="493" y="469" type="line"/>
      <point x="493" y="404" type="line"/>
      <point x="99" y="235" type="line"/>
      <point x="493" y="66" type="line"/>
      <point x="493" y="1" type="line"/>
    </contour>
  </outline>
</glyph>
<glyph name="equal" format="2">
  <advance width="535"/>
  <unicode hex="003D"/>
  <outline>
    <contour>
      <point x="40" y="104" type="line"/>
      <point x="40" y="159" type="line"/>
      <point x="495" y="159" type="line"/>
      <point x="495" y="104" type="line"/>
    </contour>
    <contour>
      <point x="40" y="311" type="line"/>
      <point x="40" y="366" type="line"/>
      <point x="495" y="366" type="line"/>
      <point x="495" y="311" type="line"/>
    </contour>
  </outline>
</glyph>
<glyph name="greater" format="2">
  <advance width="535"/>
  <unicode hex="003E"/>
  <outline>
    <contour>
      <point x="43" y="1" type="line"/>
      <point x="43" y="66" type="line"/>
      <point x="437" y="235" type="line"/>
      <point x="43" y="404" type="line"/>
      <point x="43" y="469" type="line"/>
      <point x="493" y="273" type="line"/>
      <point x="493" y="197" type="line"/>
    </contour>
  </outline>
</glyph>
<glyph name="question" format="2">
  <advance width="365"/>
  <unicode hex="003F"/>
  <outline>
    <contour>
      <point x="27" y="556" type="curve" smooth="yes"/>
      <point x="27" y="587"/>
      <point x="65" y="665"/>
      <point x="189" y="665" type="curve" smooth="yes"/>
      <point x="274" y="665"/>
      <point x="337" y="623"/>
      <point x="337" y="537" type="curve" smooth="yes"/>
      <point x="337" y="463"/>
      <point x="279" y="425"/>
      <point x="247" y="405" type="curve" smooth="yes"/>
      <point x="198.301" y="374.563"/>
      <point x="176" y="338"/>
      <point x="176" y="297" type="curve" smooth="yes"/>
      <point x="176" y="245"/>
      <point x="220" y="228"/>
      <point x="240" y="228" type="curve" smooth="yes"/>
      <point x="251" y="228"/>
      <point x="261" y="230"/>
      <point x="268" y="232" type="curve"/>
      <point x="275" y="213" type="line"/>
      <point x="250" y="192"/>
      <point x="214" y="187"/>
      <point x="185" y="187" type="curve" smooth="yes"/>
      <point x="134" y="187"/>
      <point x="85" y="219"/>
      <point x="85" y="278" type="curve" smooth="yes"/>
      <point x="85" y="320"/>
      <point x="105" y="345"/>
      <point x="161" y="388" type="curve" smooth="yes"/>
      <point x="203" y="420"/>
      <point x="244" y="478"/>
      <point x="244" y="537" type="curve" smooth="yes"/>
      <point x="244" y="592"/>
      <point x="227" y="632"/>
      <point x="184" y="632" type="curve" smooth="yes"/>
      <point x="146" y="632"/>
      <point x="120" y="601"/>
      <point x="107" y="531" type="curve" smooth="yes"/>
      <point x="104" y="515"/>
      <point x="91" y="509"/>
      <point x="77" y="509" type="curve" smooth="yes"/>
      <point x="61" y="509"/>
      <point x="27" y="521"/>
    </contour>
    <contour>
      <point x="120" y="47" type="curve" smooth="yes"/>
      <point x="120" y="82"/>
      <point x="145" y="106"/>
      <point x="179" y="106" type="curve" smooth="yes"/>
      <point x="213" y="106"/>
      <point x="237" y="82"/>
      <point x="237" y="47" type="curve" smooth="yes"/>
      <point x="237" y="13"/>
      <point x="213" y="-11"/>
      <point x="179" y="-11" type="curve" smooth="yes"/>
      <point x="145" y="-11"/>
      <point x="120" y="13"/>
    </contour>
  </outline>
</glyph>
<glyph name="at" format="2">
  <advance width="745"/>
  <unicode hex="0040"/>
  <outline>
    <contour>
      <point x="43" y="285" type="curve" smooth="yes"/>
      <point x="43" y="524"/>
      <point x="228" y="665"/>
      <point x="422" y="665" type="curve" smooth="yes"/>
      <point x="601" y="665"/>
      <point x="710" y="541"/>
      <point x="710" y="389" type="curve" smooth="yes"/>
      <point x="710" y="260"/>
      <point x="608" y="162"/>
      <point x="498" y="162" type="curve" smooth="yes"/>
      <point x="458" y="162"/>
      <point x="432" y="177"/>
      <point x="432" y="221" type="curve" smooth="yes"/>
      <point x="432" y="244"/>
      <point x="439" y="268"/>
      <point x="446" y="290" type="curve"/>
      <point x="444" y="291" type="line"/>
      <point x="418" y="244"/>
      <point x="346" y="162"/>
      <point x="272" y="162" type="curve" smooth="yes"/>
      <point x="244" y="162"/>
      <point x="210" y="179"/>
      <point x="210" y="240" type="curve" smooth="yes"/>
      <point x="210" y="310"/>
      <point x="279" y="501"/>
      <point x="446" y="501" type="curve" smooth="yes"/>
      <point x="468" y="501"/>
      <point x="480" y="498"/>
      <point x="498" y="489" type="curve"/>
      <point x="502" y="496" type="line"/>
      <point x="563" y="496" type="line"/>
      <point x="501" y="254" type="line"/>
      <point x="499" y="245"/>
      <point x="497" y="236"/>
      <point x="497" y="229" type="curve" smooth="yes"/>
      <point x="497" y="204"/>
      <point x="512" y="197"/>
      <point x="533" y="197" type="curve" smooth="yes"/>
      <point x="596" y="197"/>
      <point x="663" y="287"/>
      <point x="663" y="384" type="curve" smooth="yes"/>
      <point x="663" y="541"/>
      <point x="557" y="626"/>
      <point x="424" y="626" type="curve" smooth="yes"/>
      <point x="235" y="626"/>
      <point x="117" y="461"/>
      <point x="117" y="289" type="curve" smooth="yes"/>
      <point x="117" y="173"/>
      <point x="178" y="23"/>
      <point x="390" y="23" type="curve" smooth="yes"/>
      <point x="445" y="23"/>
      <point x="507" y="34"/>
      <point x="549" y="52" type="curve"/>
      <point x="556" y="28" type="line"/>
      <point x="498" y="-4"/>
      <point x="422" y="-14"/>
      <point x="364" y="-14" type="curve" smooth="yes"/>
      <point x="207" y="-14"/>
      <point x="43" y="82"/>
    </contour>
    <contour>
      <point x="287" y="254" type="curve" smooth="yes"/>
      <point x="287" y="223"/>
      <point x="298" y="206"/>
      <point x="319" y="206" type="curve" smooth="yes"/>
      <point x="386" y="206"/>
      <point x="474" y="374"/>
      <point x="492" y="461" type="curve"/>
      <point x="483" y="467"/>
      <point x="474" y="471"/>
      <point x="464" y="473" type="curve" smooth="yes"/>
      <point x="459" y="474"/>
      <point x="453" y="474"/>
      <point x="447" y="474" type="curve" smooth="yes"/>
      <point x="348" y="474"/>
      <point x="287" y="311"/>
    </contour>
  </outline>
</glyph>
<glyph name="A" format="2">
  <advance width="596"/>
  <unicode hex="0041"/>
  <anchor x="292" y="697" name="top"/>
  <anchor x="292" y="620" name="t.ring"/>
  <anchor x="525" y="0" name="b.ogonek"/>
  <anchor x="291" y="-40" name="bottom"/>
  <outline>
    <contour>
      <point x="-27" y="0" type="line"/>
      <point x="180" y="0" type="line"/>
      <point x="180" y="27" type="line"/>
      <point x="131" y="32" type="line" smooth="yes"/>
      <point x="111" y="34"/>
      <point x="103" y="40"/>
      <point x="103" y="52" type="curve" smooth="yes"/>
      <point x="103" y="57"/>
      <point x="104" y="63"/>
      <point x="107" y="70" type="curve"/>
      <point x="268" y="556" type="line"/>
      <point x="271" y="556" type="line"/>
      <point x="438" y="71" type="line"/>
      <point x="441" y="63"/>
      <point x="442" y="56"/>
      <point x="442" y="51" type="curve" smooth="yes"/>
      <point x="442" y="39"/>
      <point x="434" y="33"/>
      <point x="413" y="31" type="curve" smooth="yes"/>
      <point x="370" y="27" type="line"/>
      <point x="370" y="0" type="line"/>
      <point x="611" y="0" type="line"/>
      <point x="611" y="27" type="line"/>
      <point x="556" y="32"/>
      <point x="546" y="35"/>
      <point x="529" y="84" type="curve" smooth="yes"/>
      <point x="330" y="650" type="line"/>
      <point x="260" y="650" type="line"/>
      <point x="162" y="372" type="line" smooth="yes"/>
      <point x="133" y="290"/>
      <point x="93" y="178"/>
      <point x="60" y="92" type="curve" smooth="yes"/>
      <point x="40" y="41"/>
      <point x="32" y="30"/>
      <point x="-27" y="27" type="curve"/>
    </contour>
    <contour>
      <point x="149" y="251" type="line"/>
      <point x="390" y="251" type="line"/>
      <point x="379" y="287" type="line"/>
      <point x="162" y="287" type="line"/>
    </contour>
  </outline>
</glyph>
<glyph name="B" format="2">
  <advance width="607"/>
  <unicode hex="0042"/>
  <anchor x="292" y="697" name="top"/>
  <anchor x="280" y="-40" name="bottom"/>
  <outline>
    <contour>
      <point x="33" y="0" type="line"/>
      <point x="33" y="27" type="line"/>
      <point x="116" y="33"/>
      <point x="118" y="34"/>
      <point x="118" y="87" type="curve" smooth="yes"/>
      <point x="118" y="563" type="line" smooth="yes"/>
      <point x="118" y="616"/>
      <point x="116" y="617"/>
      <point x="33" y="623" type="curve"/>
      <point x="33" y="650" type="line"/>
      <point x="305" y="650" type="line" smooth="yes"/>
      <point x="405" y="650"/>
      <point x="529" y="633"/>
      <point x="529" y="509" type="curve" smooth="yes"/>
      <point x="529" y="429"/>
      <point x="477" y="376"/>
      <point x="389" y="357" type="curve"/>
      <point x="389" y="354" type="line"/>
      <point x="480" y="342"/>
      <point x="559" y="293"/>
      <point x="559" y="177" type="curve" smooth="yes"/>
      <point x="559" y="51"/>
      <point x="467" y="0"/>
      <point x="324" y="0" type="curve" smooth="yes"/>
    </contour>
    <contour>
      <point x="211" y="105" type="line" smooth="yes"/>
      <point x="211" y="47"/>
      <point x="226" y="33"/>
      <point x="301" y="33" type="curve" smooth="yes"/>
      <point x="382" y="33"/>
      <point x="459" y="63"/>
      <point x="459" y="174" type="curve" smooth="yes"/>
      <point x="459" y="276"/>
      <point x="395" y="334"/>
      <point x="278" y="334" type="curve" smooth="yes"/>
      <point x="211" y="334" type="line"/>
    </contour>
    <contour>
      <point x="211" y="367" type="line"/>
      <point x="274" y="367" type="line" smooth="yes"/>
      <point x="372" y="367"/>
      <point x="431" y="403"/>
      <point x="431" y="492" type="curve" smooth="yes"/>
      <point x="431" y="592"/>
      <point x="356" y="618"/>
      <point x="287" y="618" type="curve" smooth="yes"/>
      <point x="214" y="618"/>
      <point x="211" y="611"/>
      <point x="211" y="571" type="curve" smooth="yes"/>
    </contour>
  </outline>
</glyph>
<glyph name="C" format="2">
  <advance width="642"/>
  <unicode hex="0043"/>
  <anchor x="396" y="10" name="b.cedilla"/>
  <anchor x="370" y="697" name="top"/>
  <outline>
    <contour>
      <point x="45" y="311" type="curve" smooth="yes"/>
      <point x="45" y="541"/>
      <point x="177" y="665"/>
      <point x="400" y="665" type="curve" smooth="yes"/>
      <point x="482" y="665"/>
      <point x="553" y="648"/>
      <point x="595" y="628" type="curve"/>
      <point x="595" y="481" type="line"/>
      <point x="567" y="481" type="line"/>
      <point x="549" y="592"/>
      <point x="482" y="632"/>
      <point x="391" y="632" type="curve" smooth="yes"/>
      <point x="211" y="632"/>
      <point x="150" y="477"/>
      <point x="150" y="329" type="curve" smooth="yes"/>
      <point x="150" y="209"/>
      <point x="190" y="19"/>
      <point x="387" y="19" type="curve" smooth="yes"/>
      <point x="507" y="19"/>
      <point x="556" y="90"/>
      <point x="582" y="188" type="curve"/>
      <point x="610" y="188" type="line"/>
      <point x="597" y="31" type="line"/>
      <point x="552" y="7"/>
      <point x="465" y="-14"/>
      <point x="390" y="-14" type="curve" smooth="yes"/>
      <point x="166" y="-14"/>
      <point x="45" y="91"/>
    </contour>
  </outline>
</glyph>
<glyph name="D" format="2">
  <advance width="732"/>
  <unicode hex="0044"/>
  <anchor x="326" y="697" name="top"/>
  <anchor x="280" y="-40" name="bottom"/>
  <anchor x="376" y="10" name="b.cedilla"/>
  <outline>
    <contour>
      <point x="33" y="0" type="line"/>
      <point x="33" y="27" type="line"/>
      <point x="116" y="33"/>
      <point x="118" y="34"/>
      <point x="118" y="87" type="curve" smooth="yes"/>
      <point x="118" y="563" type="line" smooth="yes"/>
      <point x="118" y="616"/>
      <point x="116" y="617"/>
      <point x="33" y="623" type="curve"/>
      <point x="33" y="650" type="line"/>
      <point x="345" y="650" type="line" smooth="yes"/>
      <point x="619" y="650"/>
      <point x="687" y="491"/>
      <point x="687" y="332" type="curve" smooth="yes"/>
      <point x="687" y="169"/>
      <point x="615" y="0"/>
      <point x="326" y="0" type="curve" smooth="yes"/>
    </contour>
    <contour>
      <point x="211" y="118" type="line" smooth="yes"/>
      <point x="211" y="44"/>
      <point x="226" y="33"/>
      <point x="308" y="33" type="curve" smooth="yes"/>
      <point x="466" y="33"/>
      <point x="582" y="96"/>
      <point x="582" y="324" type="curve" smooth="yes"/>
      <point x="582" y="492"/>
      <point x="519" y="618"/>
      <point x="320" y="618" type="curve" smooth="yes"/>
      <point x="219" y="618"/>
      <point x="211" y="613"/>
      <point x="211" y="564" type="curve" smooth="yes"/>
    </contour>
  </outline>
</glyph>
<glyph name="E" format="2">
  <advance width="569"/>
  <unicode hex="0045"/>
  <anchor x="282" y="697" name="top"/>
  <anchor x="352" y="0" name="b.ogonek"/>
  <anchor x="310" y="-40" name="bottom"/>
  <outline>
    <contour>
      <point x="33" y="0" type="line"/>
      <point x="33" y="27" type="line"/>
      <point x="116" y="33"/>
      <point x="118" y="34"/>
      <point x="118" y="87" type="curve" smooth="yes"/>
      <point x="118" y="563" type="line" smooth="yes"/>
      <point x="118" y="616"/>
      <point x="116" y="617"/>
      <point x="33" y="623" type="curve"/>
      <point x="33" y="650" type="line"/>
      <point x="508" y="650" type="line"/>
      <point x="508" y="496" type="line"/>
      <point x="479" y="496" type="line"/>
      <point x="466" y="594"/>
      <point x="444" y="618"/>
      <point x="337" y="618" type="curve" smooth="yes"/>
      <point x="245" y="618" type="line" smooth="yes"/>
      <point x="215" y="618"/>
      <point x="211" y="614"/>
      <point x="211" y="584" type="curve" smooth="yes"/>
      <point x="211" y="356" type="line"/>
      <point x="342" y="356" type="line" smooth="yes"/>
      <point x="422" y="356"/>
      <point x="426" y="379"/>
      <point x="434" y="437" type="curve"/>
      <point x="462" y="437" type="line"/>
      <point x="462" y="239" type="line"/>
      <point x="434" y="239" type="line"/>
      <point x="426" y="298"/>
      <point x="422" y="321"/>
      <point x="342" y="321" type="curve" smooth="yes"/>
      <point x="211" y="321" type="line"/>
      <point x="211" y="113" type="line" smooth="yes"/>
      <point x="211" y="41"/>
      <point x="247" y="33"/>
      <point x="332" y="33" type="curve" smooth="yes"/>
      <point x="450" y="33"/>
      <point x="492" y="48"/>
      <point x="514" y="163" type="curve"/>
      <point x="542" y="163" type="line"/>
      <point x="531" y="0" type="line"/>
    </contour>
  </outline>
</glyph>
<glyph name="F" format="2">
  <advance width="545"/>
  <unicode hex="0046"/>
  <anchor x="282" y="697" name="top"/>
  <outline>
    <contour>
      <point x="33" y="0" type="line"/>
      <point x="33" y="27" type="line"/>
      <point x="116" y="33"/>
      <point x="118" y="34"/>
      <point x="118" y="87" type="curve" smooth="yes"/>
      <point x="118" y="563" type="line" smooth="yes"/>
      <point x="118" y="616"/>
      <point x="116" y="617"/>
      <point x="33" y="623" type="curve"/>
      <point x="33" y="650" type="line"/>
      <point x="510" y="650" type="line"/>
      <point x="510" y="500" type="line"/>
      <point x="482" y="500" type="line"/>
      <point x="469" y="596"/>
      <point x="447" y="618"/>
      <point x="338" y="618" type="curve" smooth="yes"/>
      <point x="245" y="618" type="line" smooth="yes"/>
      <point x="214" y="618"/>
      <point x="211" y="615"/>
      <point x="211" y="584" type="curve" smooth="yes"/>
      <point x="211" y="343" type="line"/>
      <point x="342" y="343" type="line" smooth="yes"/>
      <point x="422" y="343"/>
      <point x="426" y="366"/>
      <point x="434" y="426" type="curve"/>
      <point x="462" y="426" type="line"/>
      <point x="462" y="225" type="line"/>
      <point x="434" y="225" type="line"/>
      <point x="426" y="285"/>
      <point x="422" y="307"/>
      <point x="342" y="307" type="curve" smooth="yes"/>
      <point x="211" y="307" type="line"/>
      <point x="211" y="87" type="line" smooth="yes"/>
      <point x="211" y="34"/>
      <point x="213" y="33"/>
      <point x="310" y="27" type="curve"/>
      <point x="310" y="0" type="line"/>
    </contour>
  </outline>
</glyph>
<glyph name="G" format="2">
  <advance width="689"/>
  <unicode hex="0047"/>
  <anchor x="370" y="697" name="top"/>
  <outline>
    <contour>
      <point x="45" y="315.242" type="curve" smooth="yes"/>
      <point x="45" y="540"/>
      <point x="175" y="665"/>
      <point x="398.896" y="665" type="curve" smooth="yes"/>
      <point x="479" y="665"/>
      <point x="560" y="649"/>
      <point x="606" y="626" type="curve"/>
      <point x="606" y="478" type="line"/>
      <point x="578" y="478" type="line"/>
      <point x="558" y="584"/>
      <point x="498" y="632"/>
      <point x="395" y="632" type="curve" smooth="yes"/>
      <point x="210" y="632"/>
      <point x="150" y="477"/>
      <point x="150" y="330.83" type="curve" smooth="yes"/>
      <point x="150" y="210"/>
      <point x="191" y="19"/>
      <point x="407" y="19" type="curve" smooth="yes"/>
      <point x="454" y="19"/>
      <point x="522" y="24"/>
      <point x="522" y="84" type="curve" smooth="yes"/>
      <point x="522" y="211" type="line" smooth="yes"/>
      <point x="522" y="257"/>
      <point x="517" y="262"/>
      <point x="422" y="269" type="curve"/>
      <point x="422" y="296" type="line"/>
      <point x="682" y="296" type="line"/>
      <point x="682" y="269" type="line"/>
      <point x="620" y="262"/>
      <point x="615" y="258"/>
      <point x="615" y="211" type="curve" smooth="yes"/>
      <point x="615" y="25" type="line"/>
      <point x="556" y="6"/>
      <point x="465" y="-14"/>
      <point x="399" y="-14" type="curve" smooth="yes"/>
      <point x="185" y="-14"/>
      <point x="45" y="82"/>
    </contour>
  </outline>
</glyph>
<glyph name="H" format="2">
  <advance width="750"/>
  <unicode hex="0048"/>
  <anchor x="375" y="697" name="top"/>
  <anchor x="374" y="-40" name="bottom"/>
  <outline>
    <contour>
      <point x="33" y="0" type="line"/>
      <point x="33" y="27" type="line"/>
      <point x="116" y="33"/>
      <point x="118" y="34"/>
      <point x="118" y="87" type="curve" smooth="yes"/>
      <point x="118" y="563" type="line" smooth="yes"/>
      <point x="118" y="616"/>
      <point x="116" y="617"/>
      <point x="33" y="623" type="curve"/>
      <point x="33" y="650" type="line"/>
      <point x="295" y="650" type="line"/>
      <point x="295" y="623" type="line"/>
      <point x="213" y="617"/>
      <point x="211" y="616"/>
      <point x="211" y="563" type="curve" smooth="yes"/>
      <point x="211" y="356" type="line"/>
      <point x="540" y="356" type="line"/>
      <point x="540" y="563" type="line" smooth="yes"/>
      <point x="540" y="616"/>
      <point x="538" y="617"/>
      <point x="455" y="623" type="curve"/>
      <point x="455" y="650" type="line"/>
      <point x="717" y="650" type="line"/>
      <point x="717" y="623" type="line"/>
      <point x="635" y="617"/>
      <point x="633" y="616"/>
      <point x="633" y="563" type="curve" smooth="yes"/>
      <point x="633" y="87" type="line" smooth="yes"/>
      <point x="633" y="34"/>
      <point x="635" y="33"/>
      <point x="717" y="27" type="curve"/>
      <point x="717" y="0" type="line"/>
      <point x="455" y="0" type="line"/>
      <point x="455" y="27" type="line"/>
      <point x="538" y="33"/>
      <point x="540" y="34"/>
      <point x="540" y="87" type="curve" smooth="yes"/>
      <point x="540" y="321" type="line"/>
      <point x="211" y="321" type="line"/>
      <point x="211" y="87" type="line" smooth="yes"/>
      <point x="211" y="34"/>
      <point x="213" y="33"/>
      <point x="295" y="27" type="curve"/>
      <point x="295" y="0" type="line"/>
    </contour>
  </outline>
</glyph>
<glyph name="J" format="2">
  <advance width="329"/>
  <unicode hex="004A"/>
  <anchor x="173" y="697" name="top"/>
  <outline>
    <contour>
      <point x="0" y="-84" type="line"/>
      <point x="111" y="-57"/>
      <point x="126" y="25"/>
      <point x="126" y="129" type="curve" smooth="yes"/>
      <point x="126" y="563" type="line" smooth="yes"/>
      <point x="126" y="616"/>
      <point x="124" y="617"/>
      <point x="41" y="623" type="curve"/>
      <point x="41" y="650" type="line"/>
      <point x="304" y="650" type="line"/>
      <point x="304" y="623" type="line"/>
      <point x="222" y="617"/>
      <point x="219" y="616"/>
      <point x="219" y="563" type="curve" smooth="yes"/>
      <point x="219" y="134" type="line" smooth="yes"/>
      <point x="219" y="-24"/>
      <point x="163" y="-98"/>
      <point x="5" y="-107" type="curve"/>
    </contour>
  </outline>
</glyph>
<glyph name="K" format="2">
  <advance width="618"/>
  <unicode hex="004B"/>
  <anchor x="319" y="697" name="top"/>
  <anchor x="346" y="-40" name="bottom"/>
  <outline>
    <contour>
      <point x="33" y="0" type="line"/>
      <point x="33" y="27" type="line"/>
      <point x="116" y="33"/>
      <point x="118" y="34"/>
      <point x="118" y="87" type="curve" smooth="yes"/>
      <point x="118" y="563" type="line" smooth="yes"/>
      <point x="118" y="616"/>
      <point x="116" y="617"/>
      <point x="33" y="623" type="curve"/>
      <point x="33" y="650" type="line"/>
      <point x="295" y="650" type="line"/>
      <point x="295" y="623" type="line"/>
      <point x="213" y="617"/>
      <point x="211" y="616"/>
      <point x="211" y="563" type="curve" smooth="yes"/>
      <point x="211" y="341" type="line"/>
      <point x="418" y="555" type="line" smooth="yes"/>
      <point x="434" y="572"/>
      <point x="454" y="596"/>
      <point x="454" y="609" type="curve" smooth="yes"/>
      <point x="454" y="615"/>
      <point x="448" y="619"/>
      <point x="438" y="620" type="curve" smooth="yes"/>
      <point x="402" y="623" type="line"/>
      <point x="402" y="650" type="line"/>
      <point x="631" y="650" type="line"/>
      <point x="631" y="623" type="line"/>
      <point x="551" y="618"/>
      <point x="532" y="608"/>
      <point x="480" y="562" type="curve" smooth="yes"/>
      <point x="426" y="515"/>
      <point x="353" y="444"/>
      <point x="291" y="375" type="curve"/>
      <point x="355" y="279"/>
      <point x="434" y="184"/>
      <point x="518" y="95" type="curve" smooth="yes"/>
      <point x="566" y="44"/>
      <point x="594" y="25"/>
      <point x="627" y="18" type="curve"/>
      <point x="627" y="-5" type="line"/>
      <point x="568" y="-2" type="line" smooth="yes"/>
      <point x="510" y="0"/>
      <point x="460" y="17"/>
      <point x="405" y="79" type="curve" smooth="yes"/>
      <point x="332" y="162"/>
      <point x="268" y="250"/>
      <point x="214" y="332" type="curve"/>
      <point x="211" y="332" type="line"/>
      <point x="211" y="87" type="line" smooth="yes"/>
      <point x="211" y="34"/>
      <point x="213" y="33"/>
      <point x="295" y="27" type="curve"/>
      <point x="295" y="0" type="line"/>
    </contour>
  </outline>
  <guideline angle="46.0051" x="211" y="341"/>
</glyph>
<glyph name="L" format="2">
  <advance width="533"/>
  <unicode hex="004C"/>
  <anchor x="266" y="697" name="top"/>
  <anchor x="389" y="743" name="t.r.caron"/>
  <anchor x="310" y="-40" name="bottom"/>
  <outline>
    <contour>
      <point x="33" y="0" type="line"/>
      <point x="33" y="27" type="line"/>
      <point x="116" y="33"/>
      <point x="118" y="34"/>
      <point x="118" y="87" type="curve" smooth="yes"/>
      <point x="118" y="563" type="line" smooth="yes"/>
      <point x="118" y="616"/>
      <point x="116" y="617"/>
      <point x="33" y="623" type="curve"/>
      <point x="33" y="650" type="line"/>
      <point x="301" y="650" type="line"/>
      <point x="301" y="623" type="line"/>
      <point x="214" y="617"/>
      <point x="211" y="616"/>
      <point x="211" y="563" type="curve" smooth="yes"/>
      <point x="211" y="113" type="line" smooth="yes"/>
      <point x="211" y="42"/>
      <point x="233" y="33"/>
      <point x="326" y="33" type="curve" smooth="yes"/>
      <point x="434" y="33"/>
      <point x="485" y="45"/>
      <point x="504" y="168" type="curve"/>
      <point x="532" y="168" type="line"/>
      <point x="521" y="0" type="line"/>
    </contour>
  </outline>
</glyph>
<glyph name="M" format="2">
  <advance width="887"/>
  <unicode hex="004D"/>
  <anchor x="430" y="697" name="top"/>
  <anchor x="421" y="-40" name="bottom"/>
  <outline>
    <contour>
      <point x="32" y="0" type="line"/>
      <point x="32" y="27" type="line"/>
      <point x="43" y="28" type="line" smooth="yes"/>
      <point x="85" y="32"/>
      <point x="104" y="38"/>
      <point x="109" y="74" type="curve" smooth="yes"/>
      <point x="114" y="105"/>
      <point x="116" y="141"/>
      <point x="116" y="191" type="curve" smooth="yes"/>
      <point x="116" y="563" type="line" smooth="yes"/>
      <point x="116" y="616"/>
      <point x="114" y="617"/>
      <point x="31" y="623" type="curve"/>
      <point x="31" y="650" type="line"/>
      <point x="222" y="650" type="line"/>
      <point x="257" y="566"/>
      <point x="292" y="484"/>
      <point x="330" y="400" type="curve" smooth="yes"/>
      <point x="443" y="149" type="line"/>
      <point x="446" y="149" type="line"/>
      <point x="558" y="401" type="line" smooth="yes"/>
      <point x="595" y="485"/>
      <point x="630" y="566"/>
      <point x="666" y="650" type="curve"/>
      <point x="854" y="650" type="line"/>
      <point x="854" y="623" type="line"/>
      <point x="772" y="617"/>
      <point x="770" y="616"/>
      <point x="770" y="563" type="curve" smooth="yes"/>
      <point x="770" y="87" type="line" smooth="yes"/>
      <point x="770" y="34"/>
      <point x="772" y="33"/>
      <point x="854" y="27" type="curve"/>
      <point x="854" y="0" type="line"/>
      <point x="592" y="0" type="line"/>
      <point x="592" y="27" type="line"/>
      <point x="675" y="33"/>
      <point x="677" y="34"/>
      <point x="677" y="87" type="curve" smooth="yes"/>
      <point x="677" y="564" type="line"/>
      <point x="674" y="564" type="line"/>
      <point x="429" y="11" type="line"/>
      <point x="403" y="11" type="line"/>
      <point x="162" y="564" type="line"/>
      <point x="159" y="564" type="line"/>
      <point x="159" y="191" type="line" smooth="yes"/>
      <point x="159" y="141"/>
      <point x="160" y="105"/>
      <point x="165" y="74" type="curve" smooth="yes"/>
      <point x="170" y="38"/>
      <point x="190" y="31"/>
      <point x="240" y="28" type="curve" smooth="yes"/>
      <point x="255" y="27" type="line"/>
      <point x="255" y="0" type="line"/>
    </contour>
  </outline>
  <guideline angle="0" x="0" y="1796"/>
</glyph>
<glyph name="N" format="2">
  <advance width="733"/>
  <unicode hex="004E"/>
  <anchor x="360" y="697" name="top"/>
  <anchor x="370" y="-40" name="bottom"/>
  <outline>
    <contour>
      <point x="33" y="0" type="line"/>
      <point x="33" y="27" type="line"/>
      <point x="42" y="28" type="line" smooth="yes"/>
      <point x="115.335" y="36.1484"/>
      <point x="117" y="38.6509"/>
      <point x="117" y="110" type="curve" smooth="yes"/>
      <point x="117" y="563" type="line" smooth="yes"/>
      <point x="117" y="616"/>
      <point x="115" y="617"/>
      <point x="32" y="623" type="curve"/>
      <point x="32" y="650" type="line"/>
      <point x="212" y="650" type="line"/>
      <point x="333" y="477"/>
      <point x="455" y="305"/>
      <point x="579" y="132" type="curve"/>
      <point x="581" y="130" type="line"/>
      <point x="581" y="550" type="line" smooth="yes"/>
      <point x="581" y="611.202"/>
      <point x="578.906" y="615.776"/>
      <point x="498" y="622" type="curve" smooth="yes"/>
      <point x="485" y="623" type="line"/>
      <point x="485" y="650" type="line"/>
      <point x="708" y="650" type="line"/>
      <point x="708" y="623" type="line"/>
      <point x="690" y="622" type="line" smooth="yes"/>
      <point x="625.384" y="618.41"/>
      <point x="624" y="611.202"/>
      <point x="624" y="550" type="curve" smooth="yes"/>
      <point x="624" y="0" type="line"/>
      <point x="562" y="0" type="line"/>
      <point x="430" y="189"/>
      <point x="298" y="377"/>
      <point x="163" y="566" type="curve"/>
      <point x="160" y="566" type="line"/>
      <point x="160" y="110" type="line" smooth="yes"/>
      <point x="160" y="38.6509"/>
      <point x="161.971" y="34.233"/>
      <point x="243" y="28" type="curve" smooth="yes"/>
      <point x="256" y="27" type="line"/>
      <point x="256" y="0" type="line"/>
    </contour>
  </outline>
</glyph>
<glyph name="O" format="2">
  <advance width="716"/>
  <unicode hex="004F"/>
  <anchor x="358" y="697" name="top"/>
  <anchor x="358" y="-40" name="bottom"/>
  <outline>
    <contour>
      <point x="45" y="325" type="curve" smooth="yes"/>
      <point x="45" y="526"/>
      <point x="148" y="665"/>
      <point x="358" y="665" type="curve" smooth="yes"/>
      <point x="568" y="665"/>
      <point x="671" y="526"/>
      <point x="671" y="325" type="curve" smooth="yes"/>
      <point x="671" y="123"/>
      <point x="569" y="-14"/>
      <point x="358" y="-14" type="curve" smooth="yes"/>
      <point x="147" y="-14"/>
      <point x="45" y="123"/>
    </contour>
    <contour>
      <point x="150" y="325" type="curve" smooth="yes"/>
      <point x="150" y="187"/>
      <point x="191" y="19"/>
      <point x="358" y="19" type="curve" smooth="yes"/>
      <point x="525" y="19"/>
      <point x="566" y="187"/>
      <point x="566" y="325" type="curve" smooth="yes"/>
      <point x="566" y="463"/>
      <point x="525" y="632"/>
      <point x="358" y="632" type="curve" smooth="yes"/>
      <point x="191" y="632"/>
      <point x="150" y="463"/>
    </contour>
  </outline>
</glyph>
<glyph name="P" format="2">
  <advance width="564"/>
  <unicode hex="0050"/>
  <anchor x="273" y="697" name="top"/>
  <outline>
    <contour>
      <point x="33" y="0" type="line"/>
      <point x="33" y="27" type="line"/>
      <point x="116" y="33"/>
      <point x="118" y="34"/>
      <point x="118" y="87" type="curve" smooth="yes"/>
      <point x="118" y="563" type="line" smooth="yes"/>
      <point x="118" y="616"/>
      <point x="116" y="617"/>
      <point x="33" y="623" type="curve"/>
      <point x="33" y="650" type="line"/>
      <point x="295" y="650" type="line" smooth="yes"/>
      <point x="420" y="650"/>
      <point x="540" y="614"/>
      <point x="540" y="467" type="curve" smooth="yes"/>
      <point x="540" y="305"/>
      <point x="394" y="267"/>
      <point x="264" y="267" type="curve" smooth="yes"/>
      <point x="211" y="267" type="line"/>
      <point x="211" y="87" type="line" smooth="yes"/>
      <point x="211" y="34"/>
      <point x="213" y="33"/>
      <point x="310" y="27" type="curve"/>
      <point x="310" y="0" type="line"/>
    </contour>
    <contour>
      <point x="211" y="337" type="line" smooth="yes"/>
      <point x="211" y="302"/>
      <point x="225" y="300"/>
      <point x="280" y="300" type="curve" smooth="yes"/>
      <point x="361" y="300"/>
      <point x="438" y="342"/>
      <point x="438" y="460" type="curve" smooth="yes"/>
      <point x="438" y="562"/>
      <point x="379" y="618"/>
      <point x="282" y="618" type="curve" smooth="yes"/>
      <point x="221" y="618"/>
      <point x="211" y="609"/>
      <point x="211" y="583" type="curve" smooth="yes"/>
    </contour>
  </outline>
</glyph>
<glyph name="Q" format="2">
  <advance width="716"/>
  <unicode hex="0051"/>
  <outline>
    <contour>
      <point x="45" y="325" type="curve" smooth="yes"/>
      <point x="45" y="526"/>
      <point x="148" y="665"/>
      <point x="358" y="665" type="curve" smooth="yes"/>
      <point x="569" y="665"/>
      <point x="671" y="526"/>
      <point x="671" y="325" type="curve" smooth="yes"/>
      <point x="671" y="164"/>
      <point x="602" y="20"/>
      <point x="432" y="-8" type="curve"/>
      <point x="462" y="-64"/>
      <point x="543" y="-149"/>
      <point x="609" y="-149" type="curve" smooth="yes"/>
      <point x="634" y="-149" type="line"/>
      <point x="636" y="-164" type="line"/>
      <point x="616" y="-176"/>
      <point x="590" y="-181"/>
      <point x="557" y="-181" type="curve" smooth="yes"/>
      <point x="457" y="-181"/>
      <point x="370" y="-113"/>
      <point x="321" y="-12" type="curve"/>
      <point x="129" y="2"/>
      <point x="45" y="144"/>
    </contour>
    <contour>
      <point x="150" y="325" type="curve" smooth="yes"/>
      <point x="150" y="187"/>
      <point x="191" y="19"/>
      <point x="358" y="19" type="curve" smooth="yes"/>
      <point x="525" y="19"/>
      <point x="566" y="187"/>
      <point x="566" y="325" type="curve" smooth="yes"/>
      <point x="566" y="463"/>
      <point x="525" y="632"/>
      <point x="358" y="632" type="curve" smooth="yes"/>
      <point x="191" y="632"/>
      <point x="150" y="463"/>
    </contour>
  </outline>
</glyph>
<glyph name="R" format="2">
  <advance width="605"/>
  <unicode hex="0052"/>
  <anchor x="292" y="697" name="top"/>
  <anchor x="338" y="-40" name="bottom"/>
  <outline>
    <contour>
      <point x="33" y="0" type="line"/>
      <point x="33" y="27" type="line"/>
      <point x="116" y="33"/>
      <point x="118" y="34"/>
      <point x="118" y="87" type="curve" smooth="yes"/>
      <point x="118" y="563" type="line" smooth="yes"/>
      <point x="118" y="616"/>
      <point x="116" y="617"/>
      <point x="33" y="623" type="curve"/>
      <point x="33" y="650" type="line"/>
      <point x="307" y="650" type="line" smooth="yes"/>
      <point x="471" y="650"/>
      <point x="528" y="580"/>
      <point x="528" y="493.438" type="curve" smooth="yes"/>
      <point x="528" y="401"/>
      <point x="463" y="343"/>
      <point x="375" y="325" type="curve"/>
      <point x="375" y="322" type="line"/>
      <point x="475" y="298"/>
      <point x="492" y="235"/>
      <point x="503" y="151" type="curve" smooth="yes"/>
      <point x="511" y="87"/>
      <point x="527" y="35"/>
      <point x="600" y="27" type="curve"/>
      <point x="600" y="0" type="line"/>
      <point x="524" y="0" type="line" smooth="yes"/>
      <point x="428" y="0"/>
      <point x="415" y="85"/>
      <point x="400.983" y="172.339" type="curve" smooth="yes"/>
      <point x="389" y="247"/>
      <point x="380" y="306"/>
      <point x="275" y="306" type="curve" smooth="yes"/>
      <point x="211" y="306" type="line"/>
      <point x="211" y="87" type="line" smooth="yes"/>
      <point x="211" y="34"/>
      <point x="217" y="30"/>
      <point x="281" y="27" type="curve"/>
      <point x="281" y="0" type="line"/>
    </contour>
    <contour>
      <point x="211" y="339" type="line"/>
      <point x="285" y="339" type="line" smooth="yes"/>
      <point x="376" y="339"/>
      <point x="428" y="382"/>
      <point x="428" y="476.062" type="curve" smooth="yes"/>
      <point x="428" y="592"/>
      <point x="349" y="618"/>
      <point x="279" y="618" type="curve" smooth="yes"/>
      <point x="217" y="618"/>
      <point x="211" y="610"/>
      <point x="211" y="571" type="curve" smooth="yes"/>
    </contour>
  </outline>
</glyph>
<glyph name="S" format="2">
  <advance width="508"/>
  <unicode hex="0053"/>
  <anchor x="274" y="697" name="top"/>
  <anchor x="247" y="-40" name="bottom"/>
  <anchor x="285" y="10" name="b.cedilla"/>
  <outline>
    <contour>
      <point x="47" y="193" type="line"/>
      <point x="77" y="193" type="line"/>
      <point x="101" y="88"/>
      <point x="159" y="19"/>
      <point x="252" y="19" type="curve" smooth="yes"/>
      <point x="331" y="19"/>
      <point x="383" y="68"/>
      <point x="383" y="139" type="curve" smooth="yes"/>
      <point x="383" y="233"/>
      <point x="293" y="274"/>
      <point x="252" y="291" type="curve" smooth="yes"/>
      <point x="235" y="298" type="line" smooth="yes"/>
      <point x="138" y="338"/>
      <point x="57" y="384"/>
      <point x="57" y="489" type="curve" smooth="yes"/>
      <point x="57" y="607"/>
      <point x="159" y="665"/>
      <point x="275" y="665" type="curve" smooth="yes"/>
      <point x="338" y="665"/>
      <point x="401" y="648"/>
      <point x="433" y="623" type="curve"/>
      <point x="433" y="491" type="line"/>
      <point x="404" y="491" type="line"/>
      <point x="389" y="586"/>
      <point x="344" y="632"/>
      <point x="266" y="632" type="curve" smooth="yes"/>
      <point x="184" y="632"/>
      <point x="143" y="581"/>
      <point x="143" y="512" type="curve" smooth="yes"/>
      <point x="143" y="456"/>
      <point x="195" y="416"/>
      <point x="258" y="392" type="curve" smooth="yes"/>
      <point x="289" y="381" type="line" smooth="yes"/>
      <point x="399" y="341"/>
      <point x="474" y="288"/>
      <point x="474" y="181" type="curve" smooth="yes"/>
      <point x="474" y="81"/>
      <point x="408" y="-14"/>
      <point x="245" y="-14" type="curve" smooth="yes"/>
      <point x="176" y="-14"/>
      <point x="97" y="3"/>
      <point x="56" y="42" type="curve"/>
    </contour>
  </outline>
</glyph>
<glyph name="T" format="2">
  <advance width="583"/>
  <unicode hex="0054"/>
  <anchor x="292" y="697" name="top"/>
  <anchor x="292" y="-40" name="bottom"/>
  <anchor x="317" y="10" name="b.cedilla"/>
  <outline>
    <contour>
      <point x="21" y="494" type="line"/>
      <point x="21" y="650" type="line"/>
      <point x="563" y="650" type="line"/>
      <point x="563" y="494" type="line"/>
      <point x="535" y="494" type="line"/>
      <point x="524" y="596"/>
      <point x="504" y="618"/>
      <point x="394" y="618" type="curve" smooth="yes"/>
      <point x="338" y="618" type="line"/>
      <point x="338" y="87" type="line" smooth="yes"/>
      <point x="338" y="37"/>
      <point x="341" y="33"/>
      <point x="426" y="28" type="curve" smooth="yes"/>
      <point x="442" y="27" type="line"/>
      <point x="442" y="0" type="line"/>
      <point x="142" y="0" type="line"/>
      <point x="142" y="27" type="line"/>
      <point x="159" y="28" type="line" smooth="yes"/>
      <point x="243" y="33"/>
      <point x="245" y="37"/>
      <point x="245" y="87" type="curve" smooth="yes"/>
      <point x="245" y="618" type="line"/>
      <point x="190" y="618" type="line" smooth="yes"/>
      <point x="80" y="618"/>
      <point x="60" y="596"/>
      <point x="49" y="494" type="curve"/>
    </contour>
  </outline>
</glyph>
<glyph name="U" format="2">
  <advance width="743"/>
  <unicode hex="0055"/>
  <anchor x="374" y="697" name="top"/>
  <anchor x="374" y="697" name="t.ring"/>
  <anchor x="371" y="-40" name="bottom"/>
  <outline>
    <contour>
      <point x="27" y="623" type="curve"/>
      <point x="27" y="650" type="line"/>
      <point x="290" y="650" type="line"/>
      <point x="290" y="623" type="line"/>
      <point x="208" y="617"/>
      <point x="205" y="616"/>
      <point x="205" y="563" type="curve" smooth="yes"/>
      <point x="205" y="258" type="line" smooth="yes"/>
      <point x="205" y="141"/>
      <point x="229" y="19"/>
      <point x="371" y="19" type="curve" smooth="yes"/>
      <point x="513" y="19"/>
      <point x="539" y="140"/>
      <point x="539" y="258" type="curve" smooth="yes"/>
      <point x="539" y="563" type="line" smooth="yes"/>
      <point x="539" y="616"/>
      <point x="537" y="617"/>
      <point x="454" y="623" type="curve"/>
      <point x="454" y="650" type="line"/>
      <point x="716" y="650" type="line"/>
      <point x="716" y="623" type="line"/>
      <point x="634" y="617"/>
      <point x="632" y="616"/>
      <point x="632" y="563" type="curve" smooth="yes"/>
      <point x="632" y="240" type="line" smooth="yes"/>
      <point x="632" y="68"/>
      <point x="551" y="-14"/>
      <point x="371" y="-14" type="curve" smooth="yes"/>
      <point x="193" y="-14"/>
      <point x="112" y="67"/>
      <point x="112" y="238" type="curve" smooth="yes"/>
      <point x="112" y="563" type="line" smooth="yes"/>
      <point x="112" y="616"/>
      <point x="110" y="617"/>
    </contour>
  </outline>
</glyph>
<glyph name="V" format="2">
  <advance width="595"/>
  <unicode hex="0056"/>
  <anchor x="329" y="697" name="top"/>
  <anchor x="310" y="-40" name="bottom"/>
  <outline>
    <contour>
      <point x="-17" y="623" type="curve"/>
      <point x="-17" y="650" type="line"/>
      <point x="226" y="650" type="line"/>
      <point x="226" y="623" type="line"/>
      <point x="177" y="619" type="line" smooth="yes"/>
      <point x="161" y="618"/>
      <point x="155" y="614"/>
      <point x="155" y="604" type="curve" smooth="yes"/>
      <point x="155" y="599"/>
      <point x="156" y="593"/>
      <point x="159" y="585" type="curve" smooth="yes"/>
      <point x="329" y="103" type="line"/>
      <point x="331" y="102" type="line"/>
      <point x="429" y="371" type="line" smooth="yes"/>
      <point x="459" y="455"/>
      <point x="486" y="531"/>
      <point x="498" y="575" type="curve"/>
      <point x="501" y="584"/>
      <point x="504" y="593"/>
      <point x="504" y="602" type="curve" smooth="yes"/>
      <point x="504" y="612"/>
      <point x="498" y="618"/>
      <point x="481" y="619" type="curve" smooth="yes"/>
      <point x="430" y="623" type="line"/>
      <point x="430" y="650" type="line"/>
      <point x="637" y="650" type="line"/>
      <point x="637" y="623" type="line"/>
      <point x="586" y="620"/>
      <point x="576" y="618"/>
      <point x="556" y="574" type="curve" smooth="yes"/>
      <point x="533" y="524"/>
      <point x="496" y="428"/>
      <point x="457" y="324" type="curve" smooth="yes"/>
      <point x="337" y="0" type="line"/>
      <point x="270" y="0" type="line"/>
      <point x="66" y="568" type="line" smooth="yes"/>
      <point x="51" y="610"/>
      <point x="36" y="621"/>
    </contour>
  </outline>
</glyph>
<glyph name="W" format="2">
  <advance width="883"/>
  <unicode hex="0057"/>
  <anchor x="469" y="697" name="top"/>
  <anchor x="445" y="-40" name="bottom"/>
  <outline>
    <contour>
      <point x="-12" y="623" type="curve"/>
      <point x="-12" y="650" type="line"/>
      <point x="224" y="650" type="line"/>
      <point x="224" y="623" type="line"/>
      <point x="177" y="619" type="line" smooth="yes"/>
      <point x="161" y="618"/>
      <point x="153" y="614"/>
      <point x="153" y="601" type="curve" smooth="yes"/>
      <point x="153" y="596"/>
      <point x="154" y="591"/>
      <point x="157" y="580" type="curve" smooth="yes"/>
      <point x="285" y="113" type="line"/>
      <point x="288" y="113" type="line"/>
      <point x="432" y="634" type="line"/>
      <point x="501" y="634" type="line"/>
      <point x="660" y="113" type="line"/>
      <point x="663" y="113" type="line"/>
      <point x="732" y="382" type="line" smooth="yes"/>
      <point x="756" y="470"/>
      <point x="775" y="547"/>
      <point x="782" y="582" type="curve" smooth="yes"/>
      <point x="783" y="587"/>
      <point x="784" y="592"/>
      <point x="784" y="596" type="curve" smooth="yes"/>
      <point x="784" y="608"/>
      <point x="778" y="617"/>
      <point x="761" y="618" type="curve"/>
      <point x="703" y="623" type="line"/>
      <point x="703" y="650" type="line"/>
      <point x="918" y="650" type="line"/>
      <point x="918" y="623" type="line"/>
      <point x="860" y="619"/>
      <point x="850" y="615"/>
      <point x="831" y="560" type="curve" smooth="yes"/>
      <point x="808" y="492"/>
      <point x="785" y="408"/>
      <point x="766" y="336" type="curve" smooth="yes"/>
      <point x="672" y="0" type="line"/>
      <point x="601" y="0" type="line"/>
      <point x="445" y="521" type="line"/>
      <point x="442" y="521" type="line"/>
      <point x="294" y="0" type="line"/>
      <point x="222" y="0" type="line"/>
      <point x="142" y="300" type="line" smooth="yes"/>
      <point x="117" y="394"/>
      <point x="90" y="488"/>
      <point x="68" y="562" type="curve" smooth="yes"/>
      <point x="52" y="617"/>
      <point x="43" y="620"/>
    </contour>
  </outline>
</glyph>
<glyph name="X" format="2">
  <advance width="586"/>
  <unicode hex="0058"/>
  <anchor x="300" y="697" name="top"/>
  <outline>
    <contour>
      <point x="-18" y="0" type="line"/>
      <point x="-18" y="27" type="line"/>
      <point x="42" y="33"/>
      <point x="51" y="36"/>
      <point x="81" y="75" type="curve" smooth="yes"/>
      <point x="122" y="130"/>
      <point x="196" y="245"/>
      <point x="251" y="324" type="curve"/>
      <point x="101" y="564" type="line" smooth="yes"/>
      <point x="69" y="615"/>
      <point x="57" y="621"/>
      <point x="-2" y="623" type="curve"/>
      <point x="-2" y="650" type="line"/>
      <point x="241" y="650" type="line"/>
      <point x="241" y="623" type="line"/>
      <point x="196" y="619" type="line" smooth="yes"/>
      <point x="185" y="618"/>
      <point x="180" y="613"/>
      <point x="180" y="606" type="curve" smooth="yes"/>
      <point x="180" y="601"/>
      <point x="182" y="595"/>
      <point x="187" y="587" type="curve" smooth="yes"/>
      <point x="303" y="402" type="line"/>
      <point x="306" y="402" type="line"/>
      <point x="428" y="588" type="line"/>
      <point x="433" y="595"/>
      <point x="435" y="602"/>
      <point x="435" y="607" type="curve" smooth="yes"/>
      <point x="435" y="614"/>
      <point x="430" y="617"/>
      <point x="419" y="619" type="curve"/>
      <point x="374" y="623" type="line"/>
      <point x="374" y="650" type="line"/>
      <point x="582" y="650" type="line"/>
      <point x="582" y="623" type="line"/>
      <point x="527" y="620"/>
      <point x="514" y="616"/>
      <point x="474" y="566" type="curve" smooth="yes"/>
      <point x="434" y="516"/>
      <point x="379" y="442"/>
      <point x="327" y="366" type="curve"/>
      <point x="511" y="81" type="line" smooth="yes"/>
      <point x="538" y="38"/>
      <point x="550" y="32"/>
      <point x="618" y="27" type="curve"/>
      <point x="618" y="0" type="line"/>
      <point x="351" y="0" type="line"/>
      <point x="351" y="27" type="line"/>
      <point x="402" y="33" type="line"/>
      <point x="414" y="34"/>
      <point x="422" y="38"/>
      <point x="422" y="46" type="curve" smooth="yes"/>
      <point x="422" y="50"/>
      <point x="420" y="54"/>
      <point x="417" y="60" type="curve"/>
      <point x="276" y="287" type="line"/>
      <point x="273" y="287" type="line"/>
      <point x="136" y="59" type="line"/>
      <point x="133" y="55"/>
      <point x="132" y="50"/>
      <point x="132" y="47" type="curve" smooth="yes"/>
      <point x="132" y="40"/>
      <point x="138" y="36"/>
      <point x="147" y="34" type="curve"/>
      <point x="207" y="27" type="line"/>
      <point x="207" y="0" type="line"/>
    </contour>
  </outline>
</glyph>
<glyph name="Y" format="2">
  <advance width="552"/>
  <unicode hex="0059"/>
  <anchor x="292" y="697" name="top"/>
  <anchor x="284" y="-40" name="bottom"/>
  <outline>
    <contour>
      <point x="141" y="0" type="line"/>
      <point x="141" y="27" type="line"/>
      <point x="238" y="33"/>
      <point x="241" y="35"/>
      <point x="241" y="87" type="curve" smooth="yes"/>
      <point x="241" y="227" type="line" smooth="yes"/>
      <point x="241" y="246"/>
      <point x="237.428" y="262.22"/>
      <point x="227" y="282" type="curve" smooth="yes"/>
      <point x="72" y="576" type="line" smooth="yes"/>
      <point x="51.3426" y="615.183"/>
      <point x="39" y="621"/>
      <point x="-11" y="623" type="curve"/>
      <point x="-11" y="650" type="line"/>
      <point x="232" y="650" type="line"/>
      <point x="232" y="623" type="line"/>
      <point x="177" y="618" type="line" smooth="yes"/>
      <point x="162.916" y="616.72"/>
      <point x="157.433" y="605.721"/>
      <point x="166" y="589" type="curve" smooth="yes"/>
      <point x="311" y="306" type="line"/>
      <point x="313" y="306" type="line"/>
      <point x="450" y="588" type="line" smooth="yes"/>
      <point x="458.607" y="605.718"/>
      <point x="456.065" y="617.662"/>
      <point x="439" y="619" type="curve" smooth="yes"/>
      <point x="388" y="623" type="line"/>
      <point x="388" y="650" type="line"/>
      <point x="594" y="650" type="line"/>
      <point x="594" y="623" type="line"/>
      <point x="531" y="620"/>
      <point x="523.017" y="614.721"/>
      <point x="494" y="561" type="curve" smooth="yes"/>
      <point x="346" y="287" type="line" smooth="yes"/>
      <point x="336.008" y="268.502"/>
      <point x="334" y="254"/>
      <point x="334" y="231" type="curve" smooth="yes"/>
      <point x="334" y="87" type="line" smooth="yes"/>
      <point x="334" y="35"/>
      <point x="336" y="33"/>
      <point x="433" y="27" type="curve"/>
      <point x="433" y="0" type="line"/>
    </contour>
  </outline>
</glyph>
<glyph name="Z" format="2">
  <advance width="573"/>
  <unicode hex="005A"/>
  <anchor x="302" y="697" name="top"/>
  <anchor x="290" y="-40" name="bottom"/>
  <outline>
    <contour>
      <point x="8" y="12" type="line"/>
      <point x="150" y="214"/>
      <point x="292" y="417"/>
      <point x="429" y="618" type="curve"/>
      <point x="260" y="618" type="line" smooth="yes"/>
      <point x="131" y="618"/>
      <point x="108" y="597"/>
      <point x="97" y="489" type="curve"/>
      <point x="67" y="489" type="line"/>
      <point x="67" y="650" type="line"/>
      <point x="547" y="650" type="line"/>
      <point x="553" y="638" type="line"/>
      <point x="411" y="436"/>
      <point x="270" y="235"/>
      <point x="133" y="33" type="curve"/>
      <point x="322" y="33" type="line" smooth="yes"/>
      <point x="467" y="33"/>
      <point x="511" y="49"/>
      <point x="528" y="167" type="curve"/>
      <point x="558" y="167" type="line"/>
      <point x="549" y="0" type="line"/>
      <point x="13" y="0" type="line"/>
    </contour>
  </outline>
</glyph>
<glyph name="bracketleft" format="2">
  <advance width="326"/>
  <unicode hex="005B"/>
  <outline>
    <contour>
      <point x="109" y="-188" type="line"/>
      <point x="109" y="746" type="line"/>
      <point x="290" y="746" type="line"/>
      <point x="290" y="716" type="line"/>
      <point x="254" y="714" type="line" smooth="yes"/>
      <point x="186" y="710"/>
      <point x="181" y="699"/>
      <point x="181" y="653" type="curve" smooth="yes"/>
      <point x="181" y="-95" type="line" smooth="yes"/>
      <point x="181" y="-141"/>
      <point x="186" y="-152"/>
      <point x="254" y="-156" type="curve" smooth="yes"/>
      <point x="290" y="-158" type="line"/>
      <point x="290" y="-188" type="line"/>
    </contour>
  </outline>
</glyph>
<glyph name="bracketright" format="2">
  <advance width="326"/>
  <unicode hex="005D"/>
  <outline>
    <contour>
      <point x="36" y="-188" type="line"/>
      <point x="36" y="-158" type="line"/>
      <point x="73" y="-156" type="line" smooth="yes"/>
      <point x="140" y="-152"/>
      <point x="145" y="-141"/>
      <point x="145" y="-95" type="curve" smooth="yes"/>
      <point x="145" y="653" type="line" smooth="yes"/>
      <point x="145" y="699"/>
      <point x="140" y="710"/>
      <point x="73" y="714" type="curve" smooth="yes"/>
      <point x="36" y="716" type="line"/>
      <point x="36" y="746" type="line"/>
      <point x="217" y="746" type="line"/>
      <point x="217" y="-188" type="line"/>
    </contour>
  </outline>
</glyph>
<glyph name="asciicircum" format="2">
  <advance width="535"/>
  <unicode hex="005E"/>
  <outline>
    <contour>
      <point x="53" y="214" type="line"/>
      <point x="237" y="628" type="line"/>
      <point x="304" y="628" type="line"/>
      <point x="483" y="214" type="line"/>
      <point x="416" y="214" type="line"/>
      <point x="270" y="563" type="line"/>
      <point x="119" y="214" type="line"/>
    </contour>
  </outline>
</glyph>
<glyph name="grave" format="2">
  <advance width="376"/>
  <unicode hex="0060"/>
  <outline>
    <contour>
      <point x="46" y="639" type="curve" smooth="yes"/>
      <point x="46" y="658"/>
      <point x="69" y="680"/>
      <point x="87" y="680" type="curve" smooth="yes"/>
      <point x="99" y="680"/>
      <point x="115" y="670"/>
      <point x="143" y="641" type="curve" smooth="yes"/>
      <point x="255" y="528" type="line"/>
      <point x="241" y="509" type="line"/>
      <point x="99" y="588" type="line" smooth="yes"/>
      <point x="71" y="603"/>
      <point x="46" y="619"/>
    </contour>
  </outline>
</glyph>
<glyph name="a" format="2">
  <advance width="491"/>
  <unicode hex="0061"/>
  <anchor x="243" y="509" name="top"/>
  <anchor x="245" y="509" name="t.ring"/>
  <anchor x="447" y="0" name="b.ogonek"/>
  <anchor x="277" y="-40" name="bottom"/>
  <outline>
    <contour>
      <point x="46" y="123" type="curve" smooth="yes"/>
      <point x="46" y="206"/>
      <point x="110" y="228"/>
      <point x="179" y="249" type="curve" smooth="yes"/>
      <point x="241" y="268"/>
      <point x="303" y="287"/>
      <point x="322" y="306" type="curve"/>
      <point x="322" y="345" type="line" smooth="yes"/>
      <point x="322" y="420"/>
      <point x="280" y="439"/>
      <point x="243" y="439" type="curve" smooth="yes"/>
      <point x="205" y="439"/>
      <point x="167" y="417"/>
      <point x="146" y="348" type="curve" smooth="yes"/>
      <point x="141" y="331"/>
      <point x="136" y="321"/>
      <point x="119" y="321" type="curve" smooth="yes"/>
      <point x="98" y="321"/>
      <point x="63" y="335"/>
      <point x="63" y="367" type="curve" smooth="yes"/>
      <point x="63" y="417"/>
      <point x="147" y="472"/>
      <point x="253" y="472" type="curve" smooth="yes"/>
      <point x="395" y="472"/>
      <point x="407" y="402"/>
      <point x="407" y="347" type="curve" smooth="yes"/>
      <point x="407" y="119" type="line" smooth="yes"/>
      <point x="407" y="75"/>
      <point x="411" y="36"/>
      <point x="462" y="36" type="curve" smooth="yes"/>
      <point x="470" y="36"/>
      <point x="480" y="37"/>
      <point x="488" y="39" type="curve"/>
      <point x="494" y="17" type="line"/>
      <point x="458" y="-1"/>
      <point x="418" y="-11"/>
      <point x="390" y="-11" type="curve" smooth="yes"/>
      <point x="350" y="-11"/>
      <point x="334" y="10"/>
      <point x="321" y="45" type="curve"/>
      <point x="291" y="25"/>
      <point x="236" y="-11"/>
      <point x="174" y="-11" type="curve" smooth="yes"/>
      <point x="93" y="-11"/>
      <point x="46" y="52"/>
    </contour>
    <contour>
      <point x="141" y="134" type="curve" smooth="yes"/>
      <point x="141" y="80"/>
      <point x="169" y="39"/>
      <point x="226" y="39" type="curve" smooth="yes"/>
      <point x="264" y="39"/>
      <point x="322" y="58"/>
      <point x="322" y="134" type="curve" smooth="yes"/>
      <point x="322" y="267" type="line"/>
      <point x="301" y="254"/>
      <point x="252" y="236"/>
      <point x="214" y="222" type="curve" smooth="yes"/>
      <point x="161" y="202"/>
      <point x="141" y="179"/>
    </contour>
  </outline>
</glyph>
<glyph name="b" format="2">
  <advance width="562"/>
  <unicode hex="0062"/>
  <anchor x="300" y="697" name="top"/>
  <anchor x="277" y="-40" name="bottom"/>
  <outline>
    <contour>
      <point x="19" y="650" type="line"/>
      <point x="19" y="674" type="line"/>
      <point x="166" y="697" type="line"/>
      <point x="173" y="692" type="line"/>
      <point x="173" y="405" type="line"/>
      <point x="209" y="435"/>
      <point x="264" y="472"/>
      <point x="340" y="472" type="curve" smooth="yes"/>
      <point x="504" y="472"/>
      <point x="516" y="299"/>
      <point x="516" y="237" type="curve" smooth="yes"/>
      <point x="516" y="49"/>
      <point x="407" y="-11"/>
      <point x="280" y="-11" type="curve" smooth="yes"/>
      <point x="212" y="-11"/>
      <point x="172" y="6"/>
      <point x="139" y="25" type="curve"/>
      <point x="102" y="-11" type="line"/>
      <point x="85" y="-4" type="line"/>
      <point x="85" y="603" type="line" smooth="yes"/>
      <point x="85" y="639"/>
      <point x="79" y="644"/>
      <point x="55" y="647" type="curve"/>
    </contour>
    <contour>
      <point x="173" y="153" type="line" smooth="yes"/>
      <point x="173" y="82"/>
      <point x="201" y="22"/>
      <point x="283" y="22" type="curve" smooth="yes"/>
      <point x="376" y="22"/>
      <point x="418" y="97"/>
      <point x="418" y="235" type="curve" smooth="yes"/>
      <point x="418" y="399"/>
      <point x="336" y="421"/>
      <point x="288" y="421" type="curve" smooth="yes"/>
      <point x="220" y="421"/>
      <point x="173" y="376"/>
      <point x="173" y="302" type="curve" smooth="yes"/>
    </contour>
  </outline>
</glyph>
<glyph name="c" format="2">
  <advance width="466"/>
  <unicode hex="0063"/>
  <anchor x="289" y="10" name="b.cedilla"/>
  <anchor x="260" y="509" name="top"/>
  <outline>
    <contour>
      <point x="46" y="221" type="curve" smooth="yes"/>
      <point x="46" y="351"/>
      <point x="103" y="472"/>
      <point x="271" y="472" type="curve" smooth="yes"/>
      <point x="376" y="472"/>
      <point x="438" y="424"/>
      <point x="438" y="379" type="curve" smooth="yes"/>
      <point x="438" y="345"/>
      <point x="402" y="333"/>
      <point x="383" y="333" type="curve" smooth="yes"/>
      <point x="365" y="333"/>
      <point x="358" y="342"/>
      <point x="351" y="363" type="curve" smooth="yes"/>
      <point x="336" y="408"/>
      <point x="307" y="439"/>
      <point x="261" y="439" type="curve" smooth="yes"/>
      <point x="199" y="439"/>
      <point x="144" y="383"/>
      <point x="144" y="248" type="curve" smooth="yes"/>
      <point x="144" y="155"/>
      <point x="170" y="38"/>
      <point x="288" y="38" type="curve" smooth="yes"/>
      <point x="351" y="38"/>
      <point x="388" y="71"/>
      <point x="417" y="137" type="curve"/>
      <point x="445" y="124" type="line"/>
      <point x="419" y="23"/>
      <point x="330" y="-11"/>
      <point x="264" y="-11" type="curve" smooth="yes"/>
      <point x="123" y="-11"/>
      <point x="46" y="69"/>
    </contour>
  </outline>
</glyph>
<glyph name="d" format="2">
  <advance width="562"/>
  <unicode hex="0064"/>
  <anchor x="510" y="743" name="t.r.caron"/>
  <anchor x="277" y="-40" name="bottom"/>
  <anchor x="300" y="697" name="top"/>
  <anchor x="299" y="10" name="b.cedilla"/>
  <outline>
    <contour>
      <point x="46" y="222" type="curve" smooth="yes"/>
      <point x="46" y="377"/>
      <point x="135" y="472"/>
      <point x="282" y="472" type="curve" smooth="yes"/>
      <point x="324" y="472"/>
      <point x="361" y="464"/>
      <point x="389" y="449" type="curve"/>
      <point x="477" y="449" type="line"/>
      <point x="477" y="53" type="line"/>
      <point x="388" y="53" type="line"/>
      <point x="331" y="7"/>
      <point x="288" y="-11"/>
      <point x="236" y="-11" type="curve" smooth="yes"/>
      <point x="121" y="-11"/>
      <point x="46" y="80"/>
    </contour>
    <contour>
      <point x="144" y="239" type="curve" smooth="yes"/>
      <point x="144" y="113"/>
      <point x="196" y="39"/>
      <point x="284" y="39" type="curve" smooth="yes"/>
      <point x="352" y="39"/>
      <point x="389" y="82"/>
      <point x="389" y="160" type="curve" smooth="yes"/>
      <point x="389" y="325" type="line" smooth="yes"/>
      <point x="389" y="398"/>
      <point x="352" y="439"/>
      <point x="286" y="439" type="curve" smooth="yes"/>
      <point x="196" y="439"/>
      <point x="144" y="366"/>
    </contour>
    <contour>
      <point x="477" y="434" type="line"/>
      <point x="389" y="434" type="line"/>
      <point x="389" y="603" type="line" smooth="yes"/>
      <point x="389" y="638"/>
      <point x="384" y="645"/>
      <point x="359" y="647" type="curve" smooth="yes"/>
      <point x="323" y="650" type="line"/>
      <point x="323" y="674" type="line"/>
      <point x="470" y="697" type="line"/>
      <point x="477" y="692" type="line"/>
    </contour>
    <contour>
      <point x="396" y="0" type="line"/>
      <point x="388" y="7" type="line"/>
      <point x="388" y="82" type="line"/>
      <point x="477" y="82" type="line"/>
      <point x="477" y="34"/>
      <point x="480" y="32"/>
      <point x="547" y="27" type="curve"/>
      <point x="547" y="0" type="line"/>
    </contour>
  </outline>
</glyph>
<glyph name="e" format="2">
  <advance width="483"/>
  <unicode hex="0065"/>
  <anchor x="261" y="509" name="top"/>
  <anchor x="317" y="0" name="b.ogonek"/>
  <anchor x="277" y="-40" name="bottom"/>
  <outline>
    <contour>
      <point x="46" y="228" type="curve" smooth="yes"/>
      <point x="46" y="370"/>
      <point x="115" y="472"/>
      <point x="264" y="472" type="curve" smooth="yes"/>
      <point x="434" y="472"/>
      <point x="452" y="338"/>
      <point x="452" y="283" type="curve" smooth="yes"/>
      <point x="452" y="252"/>
      <point x="435" y="247"/>
      <point x="415" y="247" type="curve" smooth="yes"/>
      <point x="144" y="247" type="line"/>
      <point x="144" y="149"/>
      <point x="165" y="37"/>
      <point x="282" y="37" type="curve" smooth="yes"/>
      <point x="356" y="37"/>
      <point x="392" y="81"/>
      <point x="418" y="136" type="curve"/>
      <point x="446" y="121" type="line"/>
      <point x="421" y="47"/>
      <point x="367" y="-11"/>
      <point x="257" y="-11" type="curve" smooth="yes"/>
      <point x="110" y="-11"/>
      <point x="46" y="91"/>
    </contour>
    <contour>
      <point x="145" y="283" type="curve"/>
      <point x="322" y="283" type="line" smooth="yes"/>
      <point x="348" y="283"/>
      <point x="354" y="295"/>
      <point x="354" y="319" type="curve" smooth="yes"/>
      <point x="354" y="350"/>
      <point x="344" y="439"/>
      <point x="257" y="439" type="curve" smooth="yes"/>
      <point x="159" y="439"/>
      <point x="145" y="322"/>
    </contour>
  </outline>
</glyph>
<glyph name="f" format="2">
  <advance width="299"/>
  <unicode hex="0066"/>
  <anchor x="238" y="717" name="top"/>
  <outline>
    <contour>
      <point x="30" y="0" type="line"/>
      <point x="30" y="27" type="line"/>
      <point x="98" y="32"/>
      <point x="101" y="34"/>
      <point x="101" y="82" type="curve" smooth="yes"/>
      <point x="101" y="423" type="line"/>
      <point x="28" y="423" type="line"/>
      <point x="28" y="461" type="line"/>
      <point x="101" y="461" type="line"/>
      <point x="101" y="494" type="line" smooth="yes"/>
      <point x="101" y="596"/>
      <point x="129" y="697"/>
      <point x="251" y="697" type="curve" smooth="yes"/>
      <point x="326" y="697"/>
      <point x="366" y="660"/>
      <point x="366" y="629" type="curve" smooth="yes"/>
      <point x="366" y="601"/>
      <point x="339" y="585"/>
      <point x="320" y="585" type="curve" smooth="yes"/>
      <point x="306" y="585"/>
      <point x="298" y="592"/>
      <point x="294" y="601" type="curve" smooth="yes"/>
      <point x="268" y="656"/>
      <point x="250" y="665"/>
      <point x="230" y="665" type="curve" smooth="yes"/>
      <point x="210" y="665"/>
      <point x="184" y="647"/>
      <point x="184" y="594" type="curve" smooth="yes"/>
      <point x="184" y="553"/>
      <point x="189" y="507"/>
      <point x="189" y="468" type="curve" smooth="yes"/>
      <point x="189" y="461" type="line"/>
      <point x="304" y="461" type="line"/>
      <point x="304" y="423" type="line"/>
      <point x="189" y="423" type="line"/>
      <point x="189" y="81" type="line" smooth="yes"/>
      <point x="189" y="33"/>
      <point x="192" y="31"/>
      <point x="278" y="27" type="curve"/>
      <point x="278" y="0" type="line"/>
    </contour>
  </outline>
</glyph>
<glyph name="g" format="2">
  <advance width="488"/>
  <unicode hex="0067"/>
  <anchor x="244" y="509" name="top"/>
  <outline>
    <contour>
      <point x="39" y="-90" type="line"/>
      <point x="39" y="-22"/>
      <point x="108" y="0"/>
      <point x="148" y="13" type="curve"/>
      <point x="148" y="15" type="line"/>
      <point x="103" y="20"/>
      <point x="65" y="55"/>
      <point x="65" y="88" type="curve" smooth="yes"/>
      <point x="65" y="125"/>
      <point x="100" y="152"/>
      <point x="151" y="172" type="curve"/>
      <point x="151" y="174" type="line"/>
      <point x="108" y="185"/>
      <point x="50" y="226"/>
      <point x="50" y="314" type="curve" smooth="yes"/>
      <point x="50" y="384"/>
      <point x="100" y="472"/>
      <point x="244" y="472" type="curve" smooth="yes"/>
      <point x="287" y="472"/>
      <point x="340" y="461"/>
      <point x="366" y="443" type="curve"/>
      <point x="486" y="481" type="line"/>
      <point x="494" y="473" type="line"/>
      <point x="475" y="414" type="line"/>
      <point x="400" y="402" type="line"/>
      <point x="416" y="386"/>
      <point x="429" y="353"/>
      <point x="429" y="314" type="curve" smooth="yes"/>
      <point x="429" y="200"/>
      <point x="328" y="161"/>
      <point x="239" y="161" type="curve" smooth="yes"/>
      <point x="229" y="161"/>
      <point x="209" y="162"/>
      <point x="191" y="164" type="curve"/>
      <point x="179" y="160"/>
      <point x="143" y="145"/>
      <point x="143" y="118" type="curve" smooth="yes"/>
      <point x="143" y="100"/>
      <point x="153" y="77"/>
      <point x="221" y="77" type="curve" smooth="yes"/>
      <point x="296" y="77" type="line" smooth="yes"/>
      <point x="397" y="77"/>
      <point x="478" y="42"/>
      <point x="478" y="-60" type="curve" smooth="yes"/>
      <point x="478" y="-118"/>
      <point x="446" y="-163"/>
      <point x="403" y="-189" type="curve" smooth="yes"/>
      <point x="358" y="-216"/>
      <point x="299" y="-227"/>
      <point x="243" y="-227" type="curve" smooth="yes"/>
      <point x="134" y="-227"/>
      <point x="39" y="-185"/>
      <point x="39" y="-90" type="curve"/>
    </contour>
    <contour>
      <point x="129" y="-86" type="line"/>
      <point x="129" y="-154"/>
      <point x="184" y="-195"/>
      <point x="264" y="-195" type="curve" smooth="yes"/>
      <point x="331" y="-195"/>
      <point x="399" y="-159"/>
      <point x="399" y="-84" type="curve" smooth="yes"/>
      <point x="399" y="-14"/>
      <point x="338" y="7"/>
      <point x="255" y="7" type="curve" smooth="yes"/>
      <point x="210" y="7"/>
      <point x="179" y="1"/>
      <point x="158" y="-15" type="curve" smooth="yes"/>
      <point x="138" y="-30"/>
      <point x="129" y="-54"/>
      <point x="129" y="-86" type="curve"/>
    </contour>
    <contour>
      <point x="146" y="314" type="line"/>
      <point x="146" y="235"/>
      <point x="190" y="194"/>
      <point x="243" y="194" type="curve" smooth="yes"/>
      <point x="298" y="194"/>
      <point x="338" y="235"/>
      <point x="338" y="314" type="curve" smooth="yes"/>
      <point x="338" y="405"/>
      <point x="290" y="439"/>
      <point x="244" y="439" type="curve" smooth="yes"/>
      <point x="194" y="439"/>
      <point x="146" y="407"/>
      <point x="146" y="314" type="curve"/>
    </contour>
  </outline>
</glyph>
<glyph name="h" format="2">
  <advance width="569"/>
  <unicode hex="0068"/>
  <anchor x="288" y="697" name="top"/>
  <anchor x="289" y="-40" name="bottom"/>
  <outline>
    <contour>
      <point x="485" y="110" type="line"/>
      <point x="485" y="82" type="line" smooth="yes"/>
      <point x="485" y="36"/>
      <point x="490" y="32"/>
      <point x="555" y="27" type="curve"/>
      <point x="555" y="0" type="line"/>
      <point x="326" y="0" type="line"/>
      <point x="326" y="27" type="line"/>
      <point x="346" y="29" type="line" smooth="yes"/>
      <point x="393" y="34"/>
      <point x="397" y="41"/>
      <point x="397" y="82" type="curve" smooth="yes"/>
      <point x="397" y="110" type="line"/>
    </contour>
    <contour>
      <point x="128" y="293" type="line"/>
      <point x="128" y="390" type="line"/>
      <point x="162" y="390" type="line"/>
      <point x="225" y="437"/>
      <point x="272" y="472"/>
      <point x="343" y="472" type="curve" smooth="yes"/>
      <point x="433" y="472"/>
      <point x="485" y="417"/>
      <point x="485" y="322" type="curve" smooth="yes"/>
      <point x="485" y="0" type="line"/>
      <point x="397" y="0" type="line"/>
      <point x="397" y="304" type="line" smooth="yes"/>
      <point x="397" y="386"/>
      <point x="362" y="421"/>
      <point x="301" y="421" type="curve" smooth="yes"/>
      <point x="227" y="421"/>
      <point x="177" y="370"/>
      <point x="177" y="302" type="curve" smooth="yes"/>
      <point x="177" y="293" type="line"/>
    </contour>
    <contour>
      <point x="20" y="0" type="line"/>
      <point x="20" y="27" type="line"/>
      <point x="86" y="32"/>
      <point x="89" y="36"/>
      <point x="89" y="82" type="curve" smooth="yes"/>
      <point x="89" y="603" type="line" smooth="yes"/>
      <point x="89" y="637"/>
      <point x="83" y="643"/>
      <point x="59" y="646" type="curve" smooth="yes"/>
      <point x="24" y="650" type="line"/>
      <point x="24" y="674" type="line"/>
      <point x="169" y="697" type="line"/>
      <point x="176" y="692" type="line"/>
      <point x="176" y="401" type="line"/>
      <point x="177" y="401" type="line"/>
      <point x="177" y="82" type="line" smooth="yes"/>
      <point x="177" y="42"/>
      <point x="181" y="33"/>
      <point x="223" y="29" type="curve" smooth="yes"/>
      <point x="247" y="27" type="line"/>
      <point x="247" y="0" type="line"/>
    </contour>
  </outline>
</glyph>
<glyph name="i" format="2">
  <advance width="273"/>
  <unicode hex="0069"/>
  <anchor x="147" y="-40" name="bottom"/>
  <outline>
    <contour>
      <point x="86" y="615" type="curve" smooth="yes"/>
      <point x="86" y="649"/>
      <point x="110" y="672"/>
      <point x="144" y="672" type="curve" smooth="yes"/>
      <point x="178" y="672"/>
      <point x="201" y="649"/>
      <point x="201" y="615" type="curve" smooth="yes"/>
      <point x="201" y="581"/>
      <point x="178" y="557"/>
      <point x="144" y="557" type="curve" smooth="yes"/>
      <point x="110" y="557"/>
      <point x="86" y="581"/>
    </contour>
    <contour>
      <point x="30" y="0" type="line"/>
      <point x="30" y="27" type="line"/>
      <point x="98" y="32"/>
      <point x="101" y="34"/>
      <point x="101" y="82" type="curve" smooth="yes"/>
      <point x="101" y="378" type="line" smooth="yes"/>
      <point x="101" y="412"/>
      <point x="94" y="416"/>
      <point x="70" y="420" type="curve" smooth="yes"/>
      <point x="35" y="425" type="line"/>
      <point x="35" y="448" type="line"/>
      <point x="182" y="472" type="line"/>
      <point x="189" y="466" type="line"/>
      <point x="189" y="82" type="line" smooth="yes"/>
      <point x="189" y="34"/>
      <point x="192" y="32"/>
      <point x="259" y="27" type="curve"/>
      <point x="259" y="0" type="line"/>
    </contour>
  </outline>
</glyph>
<glyph name="k" format="2">
  <advance width="506"/>
  <unicode hex="006B"/>
  <anchor x="288" y="697" name="top"/>
  <anchor x="276" y="-40" name="bottom"/>
  <outline>
    <contour>
      <point x="19" y="0" type="line"/>
      <point x="19" y="27" type="line"/>
      <point x="87" y="32"/>
      <point x="89" y="34"/>
      <point x="89" y="82" type="curve" smooth="yes"/>
      <point x="89" y="603" type="line" smooth="yes"/>
      <point x="89" y="639"/>
      <point x="83" y="645"/>
      <point x="59" y="647" type="curve" smooth="yes"/>
      <point x="24" y="650" type="line"/>
      <point x="24" y="674" type="line"/>
      <point x="171" y="697" type="line"/>
      <point x="178" y="692" type="line"/>
      <point x="178" y="252" type="line"/>
      <point x="181" y="252" type="line"/>
      <point x="259" y="355" type="line" smooth="yes"/>
      <point x="290" y="396"/>
      <point x="339" y="461"/>
      <point x="381" y="461" type="curve" smooth="yes"/>
      <point x="478" y="461" type="line"/>
      <point x="478" y="434" type="line"/>
      <point x="382" y="424"/>
      <point x="319" y="364"/>
      <point x="260" y="291" type="curve" smooth="yes"/>
      <point x="251" y="280" type="line"/>
      <point x="302" y="207"/>
      <point x="419" y="47"/>
      <point x="506" y="22" type="curve"/>
      <point x="506" y="-5" type="line"/>
      <point x="435" y="-2" type="line" smooth="yes"/>
      <point x="405" y="0"/>
      <point x="369" y="11"/>
      <point x="334" y="46" type="curve" smooth="yes"/>
      <point x="285" y="96"/>
      <point x="221" y="178"/>
      <point x="181" y="239" type="curve"/>
      <point x="178" y="239" type="line"/>
      <point x="178" y="82" type="line" smooth="yes"/>
      <point x="178" y="34"/>
      <point x="181" y="32"/>
      <point x="248" y="27" type="curve"/>
      <point x="248" y="0" type="line"/>
    </contour>
  </outline>
</glyph>
<glyph name="l" format="2">
  <advance width="262"/>
  <unicode hex="006C"/>
  <anchor x="130" y="717" name="top"/>
  <anchor x="251" y="743" name="t.r.caron"/>
  <anchor x="164" y="-40" name="bottom"/>
  <outline>
    <contour>
      <point x="89" y="0" type="line"/>
      <point x="89" y="603" type="line" smooth="yes"/>
      <point x="89" y="639"/>
      <point x="83" y="645"/>
      <point x="59" y="647" type="curve" smooth="yes"/>
      <point x="24" y="650" type="line"/>
      <point x="24" y="674" type="line"/>
      <point x="170" y="697" type="line"/>
      <point x="177" y="692" type="line"/>
      <point x="177" y="0" type="line"/>
    </contour>
    <contour>
      <point x="19" y="0" type="line"/>
      <point x="19" y="27" type="line"/>
      <point x="87" y="32"/>
      <point x="89" y="34"/>
      <point x="89" y="82" type="curve" smooth="yes"/>
      <point x="89" y="110" type="line"/>
      <point x="177" y="110" type="line"/>
      <point x="177" y="82" type="line" smooth="yes"/>
      <point x="177" y="34"/>
      <point x="180" y="32"/>
      <point x="247" y="27" type="curve"/>
      <point x="247" y="0" type="line"/>
    </contour>
  </outline>
</glyph>
<glyph name="m" format="2">
  <advance width="867"/>
  <unicode hex="006D"/>
  <anchor x="442" y="509" name="top"/>
  <anchor x="442" y="-40" name="bottom"/>
  <outline>
    <contour>
      <point x="30" y="0" type="line"/>
      <point x="30" y="27" type="line"/>
      <point x="98" y="32"/>
      <point x="101" y="34"/>
      <point x="101" y="82" type="curve" smooth="yes"/>
      <point x="101" y="378" type="line" smooth="yes"/>
      <point x="101" y="412"/>
      <point x="94" y="416"/>
      <point x="70" y="420" type="curve" smooth="yes"/>
      <point x="35" y="425" type="line"/>
      <point x="35" y="448" type="line"/>
      <point x="180" y="472" type="line"/>
      <point x="189" y="400" type="line"/>
      <point x="225" y="428"/>
      <point x="281" y="472"/>
      <point x="358" y="472" type="curve" smooth="yes"/>
      <point x="419" y="472"/>
      <point x="455" y="444"/>
      <point x="478" y="400" type="curve"/>
      <point x="520" y="435"/>
      <point x="566" y="472"/>
      <point x="641" y="472" type="curve" smooth="yes"/>
      <point x="732" y="472"/>
      <point x="783" y="417"/>
      <point x="783" y="322" type="curve" smooth="yes"/>
      <point x="783" y="82" type="line" smooth="yes"/>
      <point x="783" y="34"/>
      <point x="787" y="32"/>
      <point x="854" y="27" type="curve"/>
      <point x="854" y="0" type="line"/>
      <point x="624" y="0" type="line"/>
      <point x="624" y="27" type="line"/>
      <point x="643" y="29" type="line" smooth="yes"/>
      <point x="693" y="34"/>
      <point x="695" y="39"/>
      <point x="695" y="82" type="curve" smooth="yes"/>
      <point x="695" y="304" type="line" smooth="yes"/>
      <point x="695" y="388"/>
      <point x="659" y="421"/>
      <point x="598" y="421" type="curve" smooth="yes"/>
      <point x="524" y="421"/>
      <point x="486" y="371"/>
      <point x="486" y="302" type="curve" smooth="yes"/>
      <point x="486" y="82" type="line" smooth="yes"/>
      <point x="486" y="41"/>
      <point x="488" y="33"/>
      <point x="532" y="29" type="curve" smooth="yes"/>
      <point x="556" y="27" type="line"/>
      <point x="556" y="0" type="line"/>
      <point x="327" y="0" type="line"/>
      <point x="327" y="27" type="line"/>
      <point x="346" y="28" type="line" smooth="yes"/>
      <point x="396" y="31"/>
      <point x="398" y="38"/>
      <point x="398" y="82" type="curve" smooth="yes"/>
      <point x="398" y="304" type="line" smooth="yes"/>
      <point x="398" y="362"/>
      <point x="388" y="421"/>
      <point x="307" y="421" type="curve" smooth="yes"/>
      <point x="233" y="421"/>
      <point x="189" y="371"/>
      <point x="189" y="302" type="curve" smooth="yes"/>
      <point x="189" y="82" type="line" smooth="yes"/>
      <point x="189" y="40"/>
      <point x="191" y="33"/>
      <point x="238" y="29" type="curve" smooth="yes"/>
      <point x="259" y="27" type="line"/>
      <point x="259" y="0" type="line"/>
    </contour>
  </outline>
</glyph>
<glyph name="n" format="2">
  <advance width="581"/>
  <unicode hex="006E"/>
  <anchor x="299" y="509" name="top"/>
  <anchor x="299" y="-40" name="bottom"/>
  <outline>
    <contour>
      <point x="338" y="0" type="line"/>
      <point x="338" y="27" type="line"/>
      <point x="358" y="29" type="line" smooth="yes"/>
      <point x="406" y="33"/>
      <point x="409" y="40"/>
      <point x="409" y="82" type="curve" smooth="yes"/>
      <point x="409" y="100" type="line"/>
      <point x="497" y="100" type="line"/>
      <point x="497" y="82" type="line" smooth="yes"/>
      <point x="497" y="34"/>
      <point x="501" y="32"/>
      <point x="568" y="27" type="curve"/>
      <point x="568" y="0" type="line"/>
    </contour>
    <contour>
      <point x="30" y="0" type="line"/>
      <point x="30" y="27" type="line"/>
      <point x="98" y="32"/>
      <point x="101" y="34"/>
      <point x="101" y="82" type="curve" smooth="yes"/>
      <point x="101" y="100" type="line"/>
      <point x="189" y="100" type="line"/>
      <point x="189" y="82" type="line" smooth="yes"/>
      <point x="189" y="40"/>
      <point x="191" y="33"/>
      <point x="237" y="29" type="curve" smooth="yes"/>
      <point x="259" y="27" type="line"/>
      <point x="259" y="0" type="line"/>
    </contour>
    <contour>
      <point x="101" y="0" type="line"/>
      <point x="101" y="378" type="line" smooth="yes"/>
      <point x="101" y="412"/>
      <point x="94" y="416"/>
      <point x="70" y="420" type="curve" smooth="yes"/>
      <point x="35" y="425" type="line"/>
      <point x="35" y="448" type="line"/>
      <point x="175" y="472" type="line"/>
      <point x="188" y="400" type="line"/>
      <point x="244" y="445"/>
      <point x="289" y="472"/>
      <point x="353" y="472" type="curve" smooth="yes"/>
      <point x="445" y="472"/>
      <point x="497" y="417"/>
      <point x="497" y="322" type="curve" smooth="yes"/>
      <point x="497" y="0" type="line"/>
      <point x="409" y="0" type="line"/>
      <point x="409" y="304" type="line" smooth="yes"/>
      <point x="409" y="386"/>
      <point x="374" y="421"/>
      <point x="313" y="421" type="curve" smooth="yes"/>
      <point x="240" y="421"/>
      <point x="189" y="370"/>
      <point x="189" y="302" type="curve" smooth="yes"/>
      <point x="189" y="0" type="line"/>
    </contour>
  </outline>
</glyph>
<glyph name="o" format="2">
  <advance width="542"/>
  <unicode hex="006F"/>
  <anchor x="278" y="509" name="top"/>
  <anchor x="290" y="-40" name="bottom"/>
  <outline>
    <contour>
      <point x="46" y="230" type="curve" smooth="yes"/>
      <point x="46" y="382"/>
      <point x="121" y="472"/>
      <point x="272" y="472" type="curve" smooth="yes"/>
      <point x="423" y="472"/>
      <point x="497" y="382"/>
      <point x="497" y="230" type="curve" smooth="yes"/>
      <point x="497" y="78"/>
      <point x="423" y="-11"/>
      <point x="272" y="-11" type="curve" smooth="yes"/>
      <point x="121" y="-11"/>
      <point x="46" y="78"/>
    </contour>
    <contour>
      <point x="144" y="230" type="curve" smooth="yes"/>
      <point x="144" y="100"/>
      <point x="186" y="22"/>
      <point x="272" y="22" type="curve" smooth="yes"/>
      <point x="358" y="22"/>
      <point x="400" y="100"/>
      <point x="400" y="230" type="curve" smooth="yes"/>
      <point x="400" y="360"/>
      <point x="358" y="439"/>
      <point x="272" y="439" type="curve" smooth="yes"/>
      <point x="186" y="439"/>
      <point x="144" y="360"/>
    </contour>
  </outline>
</glyph>
<glyph name="p" format="2">
  <advance width="571"/>
  <unicode hex="0070"/>
  <anchor x="309" y="509" name="top"/>
  <outline>
    <contour>
      <point x="24" y="-189" type="line"/>
      <point x="90" y="-184"/>
      <point x="94" y="-182"/>
      <point x="94" y="-134" type="curve" smooth="yes"/>
      <point x="94" y="378" type="line" smooth="yes"/>
      <point x="94" y="412"/>
      <point x="88" y="417"/>
      <point x="64" y="420" type="curve" smooth="yes"/>
      <point x="28" y="425" type="line"/>
      <point x="28" y="448" type="line"/>
      <point x="170" y="472" type="line"/>
      <point x="182" y="402" type="line"/>
      <point x="229" y="444"/>
      <point x="273" y="472"/>
      <point x="343" y="472" type="curve" smooth="yes"/>
      <point x="513" y="472"/>
      <point x="525" y="308"/>
      <point x="525" y="243" type="curve" smooth="yes"/>
      <point x="525" y="47"/>
      <point x="417" y="-11"/>
      <point x="297" y="-11" type="curve" smooth="yes"/>
      <point x="247" y="-11"/>
      <point x="202" y="-1"/>
      <point x="182" y="10" type="curve"/>
      <point x="182" y="-134" type="line" smooth="yes"/>
      <point x="182" y="-182"/>
      <point x="188" y="-184"/>
      <point x="267" y="-189" type="curve"/>
      <point x="267" y="-216" type="line"/>
      <point x="24" y="-216" type="line"/>
    </contour>
    <contour>
      <point x="182" y="148" type="line" smooth="yes"/>
      <point x="182" y="78"/>
      <point x="209" y="22"/>
      <point x="290" y="22" type="curve" smooth="yes"/>
      <point x="384" y="22"/>
      <point x="428" y="97"/>
      <point x="428" y="235" type="curve" smooth="yes"/>
      <point x="428" y="397"/>
      <point x="344" y="421"/>
      <point x="301" y="421" type="curve" smooth="yes"/>
      <point x="238" y="421"/>
      <point x="182" y="370"/>
      <point x="182" y="302" type="curve" smooth="yes"/>
    </contour>
  </outline>
</glyph>
<glyph name="q" format="2">
  <advance width="555"/>
  <unicode hex="0071"/>
  <outline>
    <contour>
      <point x="46" y="219" type="curve" smooth="yes"/>
      <point x="46" y="372"/>
      <point x="131" y="472"/>
      <point x="283" y="472" type="curve" smooth="yes"/>
      <point x="328" y="472"/>
      <point x="376" y="463"/>
      <point x="412" y="443" type="curve"/>
      <point x="452" y="472" type="line"/>
      <point x="478" y="472" type="line"/>
      <point x="478" y="-134" type="line" smooth="yes"/>
      <point x="478" y="-182"/>
      <point x="483" y="-184"/>
      <point x="548" y="-189" type="curve"/>
      <point x="548" y="-216" type="line"/>
      <point x="314" y="-216" type="line"/>
      <point x="314" y="-189" type="line"/>
      <point x="384" y="-184"/>
      <point x="389" y="-182"/>
      <point x="389" y="-134" type="curve" smooth="yes"/>
      <point x="389" y="50" type="line"/>
      <point x="340" y="14"/>
      <point x="295" y="-11"/>
      <point x="235" y="-11" type="curve" smooth="yes"/>
      <point x="128" y="-11"/>
      <point x="46" y="69"/>
    </contour>
    <contour>
      <point x="285" y="39" type="curve" smooth="yes"/>
      <point x="360" y="39"/>
      <point x="389" y="87"/>
      <point x="389" y="161" type="curve" smooth="yes"/>
      <point x="389" y="320" type="line" smooth="yes"/>
      <point x="389" y="392"/>
      <point x="361" y="439"/>
      <point x="287" y="439" type="curve" smooth="yes"/>
      <point x="184" y="439"/>
      <point x="144" y="347"/>
      <point x="144" y="236" type="curve" smooth="yes"/>
      <point x="144" y="125"/>
      <point x="184" y="39"/>
    </contour>
  </outline>
</glyph>
<glyph name="r" format="2">
  <advance width="365"/>
  <unicode hex="0072"/>
  <anchor x="199" y="509" name="top"/>
  <anchor x="155" y="-40" name="bottom"/>
  <outline>
    <contour>
      <point x="30" y="0" type="line"/>
      <point x="30" y="27" type="line"/>
      <point x="96" y="32"/>
      <point x="101" y="34"/>
      <point x="101" y="82" type="curve" smooth="yes"/>
      <point x="101" y="110" type="line"/>
      <point x="189" y="110" type="line"/>
      <point x="189" y="82" type="line" smooth="yes"/>
      <point x="189" y="34"/>
      <point x="194" y="32"/>
      <point x="278" y="27" type="curve"/>
      <point x="278" y="0" type="line"/>
    </contour>
    <contour>
      <point x="101" y="0" type="line"/>
      <point x="101" y="378" type="line" smooth="yes"/>
      <point x="101" y="412"/>
      <point x="94" y="416"/>
      <point x="70" y="420" type="curve" smooth="yes"/>
      <point x="35" y="425" type="line"/>
      <point x="35" y="448" type="line"/>
      <point x="178" y="472" type="line"/>
      <point x="189" y="397" type="line"/>
      <point x="251" y="452"/>
      <point x="279" y="472"/>
      <point x="313" y="472" type="curve" smooth="yes"/>
      <point x="350" y="472"/>
      <point x="363" y="447"/>
      <point x="363" y="425" type="curve" smooth="yes"/>
      <point x="363" y="397"/>
      <point x="343" y="373"/>
      <point x="318" y="373" type="curve" smooth="yes"/>
      <point x="306" y="373"/>
      <point x="296" y="378"/>
      <point x="286" y="384" type="curve" smooth="yes"/>
      <point x="268" y="395"/>
      <point x="255" y="399"/>
      <point x="246" y="399" type="curve" smooth="yes"/>
      <point x="221" y="399"/>
      <point x="189" y="374"/>
      <point x="189" y="302" type="curve" smooth="yes"/>
      <point x="189" y="0" type="line"/>
    </contour>
  </outline>
</glyph>
<glyph name="s" format="2">
  <advance width="421"/>
  <unicode hex="0073"/>
  <anchor x="216" y="509" name="top"/>
  <anchor x="210" y="-40" name="bottom"/>
  <anchor x="247" y="10" name="b.cedilla"/>
  <outline>
    <contour>
      <point x="44" y="157" type="line"/>
      <point x="71" y="157" type="line"/>
      <point x="90" y="77"/>
      <point x="133" y="22"/>
      <point x="205" y="22" type="curve" smooth="yes"/>
      <point x="259" y="22"/>
      <point x="296" y="52"/>
      <point x="296" y="101" type="curve" smooth="yes"/>
      <point x="296" y="164"/>
      <point x="237" y="185"/>
      <point x="201" y="196" type="curve" smooth="yes"/>
      <point x="117" y="222"/>
      <point x="53" y="257"/>
      <point x="53" y="339" type="curve" smooth="yes"/>
      <point x="53" y="424"/>
      <point x="122" y="472"/>
      <point x="222" y="472" type="curve" smooth="yes"/>
      <point x="266" y="472"/>
      <point x="314" y="463"/>
      <point x="345" y="440" type="curve"/>
      <point x="345" y="330" type="line"/>
      <point x="318" y="330" type="line"/>
      <point x="311" y="387"/>
      <point x="279" y="439"/>
      <point x="212" y="439" type="curve" smooth="yes"/>
      <point x="165" y="439"/>
      <point x="128" y="412"/>
      <point x="128" y="367" type="curve" smooth="yes"/>
      <point x="128" y="310"/>
      <point x="189" y="290"/>
      <point x="228" y="278" type="curve" smooth="yes"/>
      <point x="325" y="248"/>
      <point x="376" y="211"/>
      <point x="376" y="134" type="curve" smooth="yes"/>
      <point x="376" y="48"/>
      <point x="312" y="-11"/>
      <point x="200" y="-11" type="curve" smooth="yes"/>
      <point x="145" y="-11"/>
      <point x="88" y="4"/>
      <point x="54" y="34" type="curve"/>
    </contour>
  </outline>
</glyph>
<glyph name="t" format="2">
  <advance width="323"/>
  <unicode hex="0074"/>
  <anchor x="168" y="650" name="top"/>
  <anchor x="201" y="-40" name="bottom"/>
  <anchor x="206" y="10" name="b.cedilla"/>
  <anchor x="251" y="743" name="t.r.caron"/>
  <outline>
    <contour>
      <point x="29" y="423" type="line"/>
      <point x="29" y="461" type="line"/>
      <point x="101" y="461" type="line"/>
      <point x="158" y="579" type="line"/>
      <point x="185" y="579" type="line"/>
      <point x="185" y="461" type="line"/>
      <point x="306" y="461" type="line"/>
      <point x="306" y="423" type="line"/>
      <point x="185" y="423" type="line"/>
      <point x="185" y="132" type="line" smooth="yes"/>
      <point x="185" y="61"/>
      <point x="215" y="38"/>
      <point x="247" y="38" type="curve" smooth="yes"/>
      <point x="271" y="38"/>
      <point x="291" y="41"/>
      <point x="314" y="50" type="curve"/>
      <point x="321" y="30" type="line"/>
      <point x="294" y="13"/>
      <point x="249" y="-11"/>
      <point x="201" y="-11" type="curve" smooth="yes"/>
      <point x="168" y="-11"/>
      <point x="97" y="0"/>
      <point x="97" y="96" type="curve" smooth="yes"/>
      <point x="97" y="423" type="line"/>
    </contour>
  </outline>
</glyph>
<glyph name="u" format="2">
  <advance width="569"/>
  <unicode hex="0075"/>
  <anchor x="273" y="509" name="top"/>
  <anchor x="273" y="509" name="t.ring"/>
  <anchor x="290" y="-40" name="bottom"/>
  <outline>
    <contour>
      <point x="24" y="425" type="line"/>
      <point x="24" y="448" type="line"/>
      <point x="171" y="472" type="line"/>
      <point x="178" y="466" type="line"/>
      <point x="178" y="147" type="line" smooth="yes"/>
      <point x="178" y="74"/>
      <point x="219" y="39"/>
      <point x="278" y="39" type="curve" smooth="yes"/>
      <point x="352" y="39"/>
      <point x="397" y="94"/>
      <point x="397" y="166" type="curve" smooth="yes"/>
      <point x="397" y="378" type="line" smooth="yes"/>
      <point x="397" y="412"/>
      <point x="391" y="417"/>
      <point x="367" y="420" type="curve" smooth="yes"/>
      <point x="331" y="425" type="line"/>
      <point x="331" y="448" type="line"/>
      <point x="478" y="472" type="line"/>
      <point x="485" y="466" type="line"/>
      <point x="485" y="82" type="line" smooth="yes"/>
      <point x="485" y="34"/>
      <point x="491" y="32"/>
      <point x="556" y="27" type="curve"/>
      <point x="556" y="0" type="line"/>
      <point x="405" y="0" type="line"/>
      <point x="396" y="56" type="line"/>
      <point x="367" y="31"/>
      <point x="304" y="-11"/>
      <point x="224" y="-11" type="curve" smooth="yes"/>
      <point x="154" y="-11"/>
      <point x="90" y="22"/>
      <point x="90" y="130" type="curve" smooth="yes"/>
      <point x="90" y="378" type="line" smooth="yes"/>
      <point x="90" y="412"/>
      <point x="84" y="417"/>
      <point x="60" y="420" type="curve" smooth="yes"/>
    </contour>
  </outline>
</glyph>
<glyph name="v" format="2">
  <advance width="473"/>
  <unicode hex="0076"/>
  <anchor x="253" y="509" name="top"/>
  <anchor x="249" y="-40" name="bottom"/>
  <outline>
    <contour>
      <point x="211" y="0" type="line"/>
      <point x="137" y="203" type="line" smooth="yes"/>
      <point x="108" y="283"/>
      <point x="91" y="329"/>
      <point x="68" y="391" type="curve" smooth="yes"/>
      <point x="55" y="426"/>
      <point x="45" y="429"/>
      <point x="1" y="433" type="curve"/>
      <point x="1" y="461" type="line"/>
      <point x="212" y="461" type="line"/>
      <point x="212" y="433" type="line"/>
      <point x="169" y="429" type="line" smooth="yes"/>
      <point x="157" y="428"/>
      <point x="151" y="424"/>
      <point x="151" y="415" type="curve" smooth="yes"/>
      <point x="151" y="411"/>
      <point x="152" y="407"/>
      <point x="154" y="401" type="curve" smooth="yes"/>
      <point x="267" y="85" type="line"/>
      <point x="270" y="85" type="line"/>
      <point x="332" y="258" type="line" smooth="yes"/>
      <point x="339" y="278"/>
      <point x="381" y="402"/>
      <point x="381" y="417" type="curve" smooth="yes"/>
      <point x="381" y="422"/>
      <point x="376" y="428"/>
      <point x="365" y="429" type="curve" smooth="yes"/>
      <point x="319" y="433" type="line"/>
      <point x="319" y="461" type="line"/>
      <point x="497" y="461" type="line"/>
      <point x="497" y="433" type="line"/>
      <point x="454" y="431"/>
      <point x="444" y="426"/>
      <point x="430" y="393" type="curve" smooth="yes"/>
      <point x="417" y="363"/>
      <point x="380" y="276"/>
      <point x="362" y="227" type="curve" smooth="yes"/>
      <point x="278" y="0" type="line"/>
    </contour>
  </outline>
</glyph>
<glyph name="w" format="2">
  <advance width="721"/>
  <unicode hex="0077"/>
  <anchor x="371" y="509" name="top"/>
  <anchor x="372" y="-40" name="bottom"/>
  <anchor x="384" y="509" name="t.ring"/>
  <outline>
    <contour>
      <point x="-2" y="461" type="line"/>
      <point x="196" y="461" type="line"/>
      <point x="196" y="433" type="line"/>
      <point x="164" y="431" type="line" smooth="yes"/>
      <point x="151" y="430"/>
      <point x="145" y="425"/>
      <point x="145" y="415" type="curve" smooth="yes"/>
      <point x="145" y="411"/>
      <point x="146" y="405"/>
      <point x="147" y="402" type="curve"/>
      <point x="240" y="84" type="line"/>
      <point x="243" y="84" type="line"/>
      <point x="351" y="449" type="line"/>
      <point x="422" y="449" type="line"/>
      <point x="539" y="84" type="line"/>
      <point x="542" y="84" type="line"/>
      <point x="586" y="243" type="line" smooth="yes"/>
      <point x="604" y="308"/>
      <point x="619" y="368"/>
      <point x="625" y="394" type="curve" smooth="yes"/>
      <point x="627" y="403"/>
      <point x="628" y="408"/>
      <point x="628" y="412" type="curve" smooth="yes"/>
      <point x="628" y="422"/>
      <point x="624" y="428"/>
      <point x="613" y="429" type="curve" smooth="yes"/>
      <point x="559" y="433" type="line"/>
      <point x="559" y="461" type="line"/>
      <point x="744" y="461" type="line"/>
      <point x="744" y="433" type="line"/>
      <point x="697" y="430"/>
      <point x="687" y="427"/>
      <point x="671" y="379" type="curve" smooth="yes"/>
      <point x="658" y="340"/>
      <point x="635" y="271"/>
      <point x="612" y="195" type="curve" smooth="yes"/>
      <point x="553" y="0" type="line"/>
      <point x="481" y="0" type="line"/>
      <point x="366" y="358" type="line"/>
      <point x="363" y="358" type="line"/>
      <point x="252" y="0" type="line"/>
      <point x="180" y="0" type="line"/>
      <point x="127" y="176" type="line" smooth="yes"/>
      <point x="104" y="251"/>
      <point x="82" y="322"/>
      <point x="60" y="393" type="curve" smooth="yes"/>
      <point x="49" y="429"/>
      <point x="37" y="431"/>
      <point x="-2" y="433" type="curve"/>
    </contour>
  </outline>
</glyph>
<glyph name="x" format="2">
  <advance width="456"/>
  <unicode hex="0078"/>
  <anchor x="240" y="509" name="top"/>
  <outline>
    <contour>
      <point x="1" y="0" type="line"/>
      <point x="1" y="27" type="line"/>
      <point x="42" y="30"/>
      <point x="63" y="35"/>
      <point x="87" y="68" type="curve" smooth="yes"/>
      <point x="197" y="223" type="line"/>
      <point x="77" y="399" type="line" smooth="yes"/>
      <point x="60" y="424"/>
      <point x="46" y="431"/>
      <point x="8" y="433" type="curve"/>
      <point x="8" y="461" type="line"/>
      <point x="204" y="461" type="line"/>
      <point x="204" y="433" type="line"/>
      <point x="176" y="431" type="line"/>
      <point x="167" y="430"/>
      <point x="163" y="425"/>
      <point x="163" y="419" type="curve" smooth="yes"/>
      <point x="163" y="415"/>
      <point x="164" y="411"/>
      <point x="167" y="407" type="curve"/>
      <point x="245" y="290" type="line"/>
      <point x="248" y="290" type="line"/>
      <point x="322" y="408" type="line"/>
      <point x="325" y="412"/>
      <point x="327" y="417"/>
      <point x="327" y="421" type="curve" smooth="yes"/>
      <point x="327" y="426"/>
      <point x="324" y="429"/>
      <point x="316" y="430" type="curve"/>
      <point x="279" y="433" type="line"/>
      <point x="279" y="461" type="line"/>
      <point x="454" y="461" type="line"/>
      <point x="454" y="433" type="line"/>
      <point x="406" y="431"/>
      <point x="381" y="417"/>
      <point x="355" y="381" type="curve" smooth="yes"/>
      <point x="268" y="259" type="line"/>
      <point x="397" y="66" type="line" smooth="yes"/>
      <point x="417" y="36"/>
      <point x="436" y="29"/>
      <point x="478" y="27" type="curve"/>
      <point x="478" y="0" type="line"/>
      <point x="258" y="0" type="line"/>
      <point x="258" y="27" type="line"/>
      <point x="297" y="32" type="line"/>
      <point x="306" y="34"/>
      <point x="310" y="37"/>
      <point x="310" y="43" type="curve" smooth="yes"/>
      <point x="310" y="47"/>
      <point x="308" y="52"/>
      <point x="304" y="58" type="curve" smooth="yes"/>
      <point x="221" y="189" type="line"/>
      <point x="218" y="189" type="line"/>
      <point x="135" y="55" type="line"/>
      <point x="132" y="51"/>
      <point x="131" y="47"/>
      <point x="131" y="43" type="curve" smooth="yes"/>
      <point x="131" y="38"/>
      <point x="134" y="33"/>
      <point x="142" y="32" type="curve" smooth="yes"/>
      <point x="181" y="27" type="line"/>
      <point x="181" y="0" type="line"/>
    </contour>
  </outline>
  <guideline angle="54.4623" x="323" y="336"/>
</glyph>
<glyph name="y" format="2">
  <advance width="475"/>
  <unicode hex="0079"/>
  <anchor x="253" y="509" name="top"/>
  <anchor x="245" y="509" name="t.ring"/>
  <anchor x="372" y="-120" name="bottom"/>
  <outline>
    <contour>
      <point x="-5" y="433" type="line"/>
      <point x="-5" y="461" type="line"/>
      <point x="211" y="461" type="line"/>
      <point x="211" y="433" type="line"/>
      <point x="170" y="430" type="line" smooth="yes"/>
      <point x="156" y="429"/>
      <point x="152" y="424"/>
      <point x="152" y="417" type="curve" smooth="yes"/>
      <point x="152" y="412"/>
      <point x="154" y="407"/>
      <point x="156" y="400" type="curve"/>
      <point x="272" y="86" type="line"/>
      <point x="275" y="86" type="line"/>
      <point x="378" y="397" type="line" smooth="yes"/>
      <point x="380" y="403"/>
      <point x="381" y="409"/>
      <point x="381" y="413" type="curve" smooth="yes"/>
      <point x="381" y="423"/>
      <point x="376" y="429"/>
      <point x="365" y="429" type="curve"/>
      <point x="316" y="433" type="line"/>
      <point x="316" y="461" type="line"/>
      <point x="496" y="461" type="line"/>
      <point x="496" y="433" type="line"/>
      <point x="482" y="432" type="line" smooth="yes"/>
      <point x="448" y="430"/>
      <point x="440" y="420"/>
      <point x="427" y="385" type="curve" smooth="yes"/>
      <point x="253" y="-77" type="line" smooth="yes"/>
      <point x="201" y="-215"/>
      <point x="157" y="-227"/>
      <point x="125" y="-227" type="curve" smooth="yes"/>
      <point x="80" y="-227"/>
      <point x="54" y="-202"/>
      <point x="54" y="-176" type="curve" smooth="yes"/>
      <point x="54" y="-152"/>
      <point x="77" y="-126"/>
      <point x="97" y="-126" type="curve" smooth="yes"/>
      <point x="106" y="-126"/>
      <point x="114" y="-131"/>
      <point x="125" y="-141" type="curve"/>
      <point x="140" y="-156"/>
      <point x="149" y="-159"/>
      <point x="156" y="-159" type="curve" smooth="yes"/>
      <point x="194" y="-159"/>
      <point x="222" y="-69"/>
      <point x="222" y="-33" type="curve" smooth="yes"/>
      <point x="222" y="-23"/>
      <point x="220" y="-9"/>
      <point x="214" y="7" type="curve" smooth="yes"/>
      <point x="67" y="384" type="line" smooth="yes"/>
      <point x="53" y="420"/>
      <point x="42" y="428"/>
      <point x="5" y="432" type="curve" smooth="yes"/>
    </contour>
  </outline>
</glyph>
<glyph name="z" format="2">
  <advance width="451"/>
  <unicode hex="007A"/>
  <anchor x="223" y="509" name="top"/>
  <anchor x="226" y="-40" name="bottom"/>
  <outline>
    <contour>
      <point x="18" y="14" type="line"/>
      <point x="314" y="428" type="line"/>
      <point x="220" y="428" type="line" smooth="yes"/>
      <point x="118" y="428"/>
      <point x="98" y="407"/>
      <point x="86" y="321" type="curve"/>
      <point x="57" y="321" type="line"/>
      <point x="57" y="461" type="line"/>
      <point x="418" y="461" type="line"/>
      <point x="426" y="447" type="line"/>
      <point x="133" y="33" type="line"/>
      <point x="254" y="33" type="line" smooth="yes"/>
      <point x="358" y="33"/>
      <point x="390" y="56"/>
      <point x="405" y="144" type="curve"/>
      <point x="434" y="144" type="line"/>
      <point x="425" y="0" type="line"/>
      <point x="25" y="0" type="line"/>
    </contour>
  </outline>
</glyph>
<glyph name="braceleft" format="2">
  <advance width="326"/>
  <unicode hex="007B"/>
  <outline>
    <contour>
      <point x="34" y="296" type="line"/>
      <point x="108" y="296"/>
      <point x="134" y="335"/>
      <point x="134" y="398" type="curve" smooth="yes"/>
      <point x="134" y="406"/>
      <point x="133" y="416"/>
      <point x="132" y="426" type="curve" smooth="yes"/>
      <point x="121" y="534" type="line" smooth="yes"/>
      <point x="119" y="553"/>
      <point x="117" y="574"/>
      <point x="117" y="594" type="curve" smooth="yes"/>
      <point x="117" y="672"/>
      <point x="141" y="746"/>
      <point x="255" y="746" type="curve" smooth="yes"/>
      <point x="284" y="746" type="line"/>
      <point x="284" y="716" type="line"/>
      <point x="208" y="712"/>
      <point x="190" y="672"/>
      <point x="190" y="617" type="curve" smooth="yes"/>
      <point x="190" y="603"/>
      <point x="190" y="588"/>
      <point x="192" y="573" type="curve"/>
      <point x="201" y="484" type="line" smooth="yes"/>
      <point x="204" y="455"/>
      <point x="209" y="406"/>
      <point x="209" y="383" type="curve" smooth="yes"/>
      <point x="209" y="346"/>
      <point x="189" y="302"/>
      <point x="98" y="283" type="curve"/>
      <point x="98" y="275" type="line"/>
      <point x="189" y="256"/>
      <point x="209" y="218"/>
      <point x="209" y="168" type="curve" smooth="yes"/>
      <point x="209" y="154"/>
      <point x="204" y="103"/>
      <point x="201" y="74" type="curve" smooth="yes"/>
      <point x="193" y="-14" type="line" smooth="yes"/>
      <point x="192" y="-29"/>
      <point x="190" y="-62"/>
      <point x="190" y="-73" type="curve" smooth="yes"/>
      <point x="190" y="-113"/>
      <point x="208" y="-154"/>
      <point x="284" y="-158" type="curve"/>
      <point x="284" y="-188" type="line"/>
      <point x="255" y="-188" type="line" smooth="yes"/>
      <point x="141" y="-188"/>
      <point x="117" y="-114"/>
      <point x="117" y="-36" type="curve" smooth="yes"/>
      <point x="117" y="-16"/>
      <point x="119" y="5"/>
      <point x="121" y="24" type="curve" smooth="yes"/>
      <point x="132" y="132" type="line" smooth="yes"/>
      <point x="133" y="145"/>
      <point x="135" y="172"/>
      <point x="135" y="179" type="curve" smooth="yes"/>
      <point x="135" y="228"/>
      <point x="111" y="262"/>
      <point x="34" y="262" type="curve"/>
    </contour>
  </outline>
</glyph>
<glyph name="bar" format="2">
  <advance width="214"/>
  <unicode hex="007C"/>
  <outline>
    <contour>
      <point x="75" y="-235" type="line"/>
      <point x="75" y="705" type="line"/>
      <point x="139" y="705" type="line"/>
      <point x="139" y="-235" type="line"/>
    </contour>
  </outline>
</glyph>
<glyph name="braceright" format="2">
  <advance width="326"/>
  <unicode hex="007D"/>
  <outline>
    <contour>
      <point x="292" y="262" type="line"/>
      <point x="215" y="262"/>
      <point x="191" y="228"/>
      <point x="191" y="169" type="curve" smooth="yes"/>
      <point x="191" y="158"/>
      <point x="192" y="145"/>
      <point x="194" y="132" type="curve"/>
      <point x="205" y="24" type="line" smooth="yes"/>
      <point x="207" y="4"/>
      <point x="209" y="-16"/>
      <point x="209" y="-36" type="curve" smooth="yes"/>
      <point x="209" y="-114"/>
      <point x="185" y="-188"/>
      <point x="71" y="-188" type="curve" smooth="yes"/>
      <point x="42" y="-188" type="line"/>
      <point x="42" y="-158" type="line"/>
      <point x="118" y="-154"/>
      <point x="136" y="-113"/>
      <point x="136" y="-58" type="curve" smooth="yes"/>
      <point x="136" y="-44"/>
      <point x="135" y="-29"/>
      <point x="133" y="-14" type="curve"/>
      <point x="124" y="74" type="line" smooth="yes"/>
      <point x="121" y="103"/>
      <point x="117" y="146"/>
      <point x="117" y="158" type="curve" smooth="yes"/>
      <point x="117" y="212"/>
      <point x="137" y="256"/>
      <point x="228" y="275" type="curve"/>
      <point x="228" y="283" type="line"/>
      <point x="137" y="302"/>
      <point x="117" y="346"/>
      <point x="117" y="400" type="curve" smooth="yes"/>
      <point x="117" y="426"/>
      <point x="120" y="455"/>
      <point x="123" y="484" type="curve" smooth="yes"/>
      <point x="133" y="573" type="line" smooth="yes"/>
      <point x="135" y="589"/>
      <point x="136" y="603"/>
      <point x="136" y="617" type="curve" smooth="yes"/>
      <point x="136" y="672"/>
      <point x="118" y="712"/>
      <point x="42" y="716" type="curve"/>
      <point x="42" y="746" type="line"/>
      <point x="71" y="746" type="line" smooth="yes"/>
      <point x="185" y="746"/>
      <point x="209" y="672"/>
      <point x="209" y="594" type="curve" smooth="yes"/>
      <point x="209" y="574"/>
      <point x="207" y="554"/>
      <point x="205" y="534" type="curve" smooth="yes"/>
      <point x="193" y="427" type="line" smooth="yes"/>
      <point x="192" y="417"/>
      <point x="192" y="407"/>
      <point x="192" y="398" type="curve" smooth="yes"/>
      <point x="192" y="335"/>
      <point x="218" y="296"/>
      <point x="292" y="296" type="curve"/>
    </contour>
  </outline>
</glyph>
<glyph name="asciitilde" format="2">
  <advance width="535"/>
  <unicode hex="007E"/>
  <outline>
    <contour>
      <point x="69" y="188" type="line"/>
      <point x="92" y="235"/>
      <point x="122" y="288"/>
      <point x="191" y="288" type="curve" smooth="yes"/>
      <point x="219" y="288"/>
      <point x="249" y="277"/>
      <point x="278" y="266" type="curve"/>
      <point x="307" y="256"/>
      <point x="334" y="244"/>
      <point x="357" y="244" type="curve" smooth="yes"/>
      <point x="389" y="244"/>
      <point x="403" y="258"/>
      <point x="430" y="298" type="curve"/>
      <point x="467" y="274" type="line"/>
      <point x="441" y="217"/>
      <point x="408" y="180"/>
      <point x="354" y="180" type="curve" smooth="yes"/>
      <point x="327" y="180"/>
      <point x="295" y="191"/>
      <point x="265" y="201" type="curve"/>
      <point x="235" y="212"/>
      <point x="204" y="223"/>
      <point x="180" y="223" type="curve" smooth="yes"/>
      <point x="144" y="223"/>
      <point x="127" y="203"/>
      <point x="107" y="164" type="curve"/>
    </contour>
  </outline>
</glyph>
<glyph name="exclamdown" format="2">
  <advance width="227"/>
  <unicode hex="00A1"/>
  <outline>
    <contour>
      <point x="55" y="413" type="line"/>
      <point x="56" y="447"/>
      <point x="77" y="472"/>
      <point x="114" y="472" type="curve" smooth="yes"/>
      <point x="150" y="472"/>
      <point x="173" y="447"/>
      <point x="173" y="413" type="curve" smooth="yes"/>
      <point x="173" y="378"/>
      <point x="150" y="352"/>
      <point x="114" y="352" type="curve" smooth="yes"/>
      <point x="77" y="352"/>
      <point x="55" y="378"/>
      <point x="55" y="413" type="curve"/>
    </contour>
    <contour>
      <point x="61" y="-141" type="line"/>
      <point x="101" y="264" type="line"/>
      <point x="128" y="264" type="line"/>
      <point x="165" y="-141" type="line" smooth="yes"/>
      <point x="169" y="-183"/>
      <point x="165" y="-204"/>
      <point x="114" y="-204" type="curve" smooth="yes"/>
      <point x="62" y="-204"/>
      <point x="57" y="-183"/>
      <point x="61" y="-141" type="curve"/>
    </contour>
  </outline>
</glyph>
<glyph name="cent" format="2">
  <advance width="498"/>
  <unicode hex="00A2"/>
  <outline>
    <contour>
      <point x="35" y="325" type="line"/>
      <point x="35" y="492"/>
      <point x="131" y="556"/>
      <point x="245" y="563" type="curve"/>
      <point x="245" y="634" type="line"/>
      <point x="283" y="634" type="line"/>
      <point x="283" y="563" type="line"/>
      <point x="416" y="562"/>
      <point x="451" y="500"/>
      <point x="451" y="470" type="curve" smooth="yes"/>
      <point x="451" y="442"/>
      <point x="426" y="426"/>
      <point x="402" y="426" type="curve" smooth="yes"/>
      <point x="389" y="426"/>
      <point x="382" y="431"/>
      <point x="374" y="448" type="curve" smooth="yes"/>
      <point x="342" y="520"/>
      <point x="307" y="528"/>
      <point x="283" y="530" type="curve"/>
      <point x="283" y="129" type="line"/>
      <point x="344" y="128"/>
      <point x="392" y="145"/>
      <point x="433" y="217" type="curve"/>
      <point x="458" y="202" type="line"/>
      <point x="425" y="119"/>
      <point x="355" y="83"/>
      <point x="283" y="82" type="curve"/>
      <point x="283" y="-9" type="line"/>
      <point x="245" y="-9" type="line"/>
      <point x="245" y="82" type="line"/>
      <point x="110" y="82"/>
      <point x="35" y="164"/>
      <point x="35" y="325" type="curve"/>
    </contour>
    <contour>
      <point x="127" y="335" type="line"/>
      <point x="127" y="232"/>
      <point x="157" y="151"/>
      <point x="245" y="132" type="curve"/>
      <point x="245" y="530" type="line"/>
      <point x="211" y="527"/>
      <point x="127" y="517"/>
      <point x="127" y="335" type="curve"/>
    </contour>
  </outline>
</glyph>
<glyph name="currency" format="2">
  <advance width="498"/>
  <unicode hex="00A4"/>
  <outline>
    <contour>
      <point x="39" y="95" type="line"/>
      <point x="15" y="114"/>
      <point x="18" y="133"/>
      <point x="47" y="156" type="curve" smooth="yes"/>
      <point x="84" y="184" type="line"/>
      <point x="50" y="227"/>
      <point x="40" y="268"/>
      <point x="40" y="314" type="curve" smooth="yes"/>
      <point x="40" y="360"/>
      <point x="50" y="401"/>
      <point x="84" y="444" type="curve"/>
      <point x="47" y="472" type="line" smooth="yes"/>
      <point x="18" y="495"/>
      <point x="15" y="514"/>
      <point x="39" y="533" type="curve" smooth="yes"/>
      <point x="62" y="552"/>
      <point x="80" y="545"/>
      <point x="98" y="519" type="curve" smooth="yes"/>
      <point x="123" y="482" type="line"/>
      <point x="158" y="515"/>
      <point x="207" y="525"/>
      <point x="249" y="525" type="curve" smooth="yes"/>
      <point x="291" y="525"/>
      <point x="340" y="515"/>
      <point x="375" y="482" type="curve"/>
      <point x="400" y="519" type="line" smooth="yes"/>
      <point x="418" y="545"/>
      <point x="436" y="552"/>
      <point x="459" y="533" type="curve" smooth="yes"/>
      <point x="483" y="514"/>
      <point x="480" y="495"/>
      <point x="451" y="472" type="curve" smooth="yes"/>
      <point x="415" y="444" type="line"/>
      <point x="449" y="401"/>
      <point x="458" y="360"/>
      <point x="458" y="314" type="curve" smooth="yes"/>
      <point x="458" y="268"/>
      <point x="449" y="227"/>
      <point x="415" y="184" type="curve"/>
      <point x="451" y="156" type="line" smooth="yes"/>
      <point x="480" y="133"/>
      <point x="483" y="114"/>
      <point x="459" y="95" type="curve" smooth="yes"/>
      <point x="436" y="76"/>
      <point x="418" y="83"/>
      <point x="400" y="109" type="curve" smooth="yes"/>
      <point x="375" y="146" type="line"/>
      <point x="340" y="113"/>
      <point x="291" y="102"/>
      <point x="249" y="102" type="curve" smooth="yes"/>
      <point x="207" y="102"/>
      <point x="158" y="113"/>
      <point x="123" y="146" type="curve"/>
      <point x="98" y="109" type="line" smooth="yes"/>
      <point x="80" y="83"/>
      <point x="62" y="76"/>
      <point x="39" y="95" type="curve"/>
    </contour>
    <contour>
      <point x="108" y="314" type="line"/>
      <point x="108" y="222"/>
      <point x="167" y="152"/>
      <point x="249" y="152" type="curve" smooth="yes"/>
      <point x="331" y="152"/>
      <point x="390" y="222"/>
      <point x="390" y="314" type="curve" smooth="yes"/>
      <point x="390" y="406"/>
      <point x="331" y="476"/>
      <point x="249" y="476" type="curve" smooth="yes"/>
      <point x="167" y="476"/>
      <point x="108" y="406"/>
      <point x="108" y="314" type="curve"/>
    </contour>
  </outline>
</glyph>
<glyph name="yen" format="2">
  <advance width="498"/>
  <unicode hex="00A5"/>
  <outline>
    <contour>
      <point x="110" y="0" type="line"/>
      <point x="110" y="27" type="line"/>
      <point x="128" y="28" type="line" smooth="yes"/>
      <point x="196" y="32"/>
      <point x="199" y="39"/>
      <point x="199" y="82" type="curve" smooth="yes"/>
      <point x="199" y="176" type="line"/>
      <point x="39" y="176" type="line"/>
      <point x="39" y="212" type="line"/>
      <point x="199" y="212" type="line"/>
      <point x="199" y="239" type="line" smooth="yes"/>
      <point x="199" y="263"/>
      <point x="197" y="279"/>
      <point x="190" y="291" type="curve"/>
      <point x="39" y="291" type="line"/>
      <point x="39" y="327" type="line"/>
      <point x="177" y="327" type="line"/>
      <point x="63" y="562" type="line" smooth="yes"/>
      <point x="51" y="587"/>
      <point x="40" y="596"/>
      <point x="23" y="598" type="curve" smooth="yes"/>
      <point x="-2" y="601" type="line"/>
      <point x="-2" y="628" type="line"/>
      <point x="204" y="628" type="line"/>
      <point x="204" y="601" type="line"/>
      <point x="160" y="597" type="line" smooth="yes"/>
      <point x="150" y="596"/>
      <point x="146" y="591"/>
      <point x="146" y="584" type="curve" smooth="yes"/>
      <point x="146" y="581"/>
      <point x="147" y="577"/>
      <point x="149" y="573" type="curve"/>
      <point x="263" y="327" type="line"/>
      <point x="265.5" y="327" type="line"/>
      <point x="355" y="531" type="line" smooth="yes"/>
      <point x="370" y="566"/>
      <point x="374" y="573"/>
      <point x="374" y="581" type="curve" smooth="yes"/>
      <point x="374" y="590"/>
      <point x="370" y="594"/>
      <point x="360" y="595" type="curve" smooth="yes"/>
      <point x="308" y="601" type="line"/>
      <point x="308" y="628" type="line"/>
      <point x="494" y="628" type="line"/>
      <point x="494" y="601" type="line"/>
      <point x="467" y="597" type="line" smooth="yes"/>
      <point x="430" y="592"/>
      <point x="413" y="566"/>
      <point x="342" y="410" type="curve" smooth="yes"/>
      <point x="304" y="327" type="line"/>
      <point x="445" y="327" type="line"/>
      <point x="445" y="291" type="line"/>
      <point x="290" y="291" type="line"/>
      <point x="286" y="283"/>
      <point x="285" y="269"/>
      <point x="285" y="240" type="curve" smooth="yes"/>
      <point x="285" y="212" type="line"/>
      <point x="445" y="212" type="line"/>
      <point x="445" y="176" type="line"/>
      <point x="285" y="176" type="line"/>
      <point x="285" y="82" type="line" smooth="yes"/>
      <point x="285" y="40"/>
      <point x="287" y="31"/>
      <point x="354" y="28" type="curve" smooth="yes"/>
      <point x="374" y="27" type="line"/>
      <point x="374" y="0" type="line"/>
    </contour>
  </outline>
</glyph>
<glyph name="brokenbar" format="2">
  <advance width="214"/>
  <unicode hex="00A6"/>
  <outline>
    <contour>
      <point x="75" y="-164" type="line"/>
      <point x="75" y="164" type="line"/>
      <point x="139" y="164" type="line"/>
      <point x="139" y="-164" type="line"/>
    </contour>
    <contour>
      <point x="75" y="306" type="line"/>
      <point x="75" y="634" type="line"/>
      <point x="139" y="634" type="line"/>
      <point x="139" y="306" type="line"/>
    </contour>
  </outline>
</glyph>
<glyph name="section" format="2">
  <advance width="520"/>
  <unicode hex="00A7"/>
  <outline>
    <contour>
      <point x="43" y="357" type="line"/>
      <point x="43" y="420"/>
      <point x="76" y="481"/>
      <point x="125" y="528" type="curve"/>
      <point x="129" y="584"/>
      <point x="168" y="665"/>
      <point x="285" y="665" type="curve" smooth="yes"/>
      <point x="352" y="665"/>
      <point x="412" y="634"/>
      <point x="412" y="595" type="curve" smooth="yes"/>
      <point x="412" y="569"/>
      <point x="389" y="557"/>
      <point x="371" y="557" type="curve" smooth="yes"/>
      <point x="360" y="557"/>
      <point x="353" y="562"/>
      <point x="346" y="572" type="curve"/>
      <point x="318" y="621"/>
      <point x="289" y="632"/>
      <point x="262" y="632" type="curve" smooth="yes"/>
      <point x="216" y="632"/>
      <point x="188" y="596"/>
      <point x="188" y="560" type="curve" smooth="yes"/>
      <point x="188" y="535"/>
      <point x="190" y="498"/>
      <point x="311" y="434" type="curve" smooth="yes"/>
      <point x="420" y="377"/>
      <point x="477" y="321"/>
      <point x="477" y="222" type="curve" smooth="yes"/>
      <point x="477" y="158"/>
      <point x="451" y="100"/>
      <point x="411" y="48" type="curve"/>
      <point x="413" y="-33"/>
      <point x="351" y="-108"/>
      <point x="244" y="-108" type="curve" smooth="yes"/>
      <point x="165" y="-108"/>
      <point x="101" y="-70"/>
      <point x="100" y="-31" type="curve" smooth="yes"/>
      <point x="100" y="-6"/>
      <point x="119" y="12"/>
      <point x="144" y="12" type="curve" smooth="yes"/>
      <point x="154" y="12"/>
      <point x="163" y="3"/>
      <point x="169" y="-6" type="curve"/>
      <point x="203" y="-63"/>
      <point x="236" y="-73"/>
      <point x="271" y="-73" type="curve" smooth="yes"/>
      <point x="310" y="-73"/>
      <point x="345" y="-41"/>
      <point x="345" y="7" type="curve" smooth="yes"/>
      <point x="345" y="51"/>
      <point x="326" y="94"/>
      <point x="203" y="156" type="curve" smooth="yes"/>
      <point x="74" y="221"/>
      <point x="43" y="284"/>
      <point x="43" y="357" type="curve"/>
    </contour>
    <contour>
      <point x="92" y="392" type="line"/>
      <point x="92" y="333"/>
      <point x="138" y="277"/>
      <point x="233" y="227" type="curve" smooth="yes"/>
      <point x="325" y="179"/>
      <point x="375" y="141"/>
      <point x="398" y="93" type="curve"/>
      <point x="417" y="107"/>
      <point x="429" y="138"/>
      <point x="429" y="177" type="curve" smooth="yes"/>
      <point x="429" y="247"/>
      <point x="371" y="312"/>
      <point x="296" y="353" type="curve" smooth="yes"/>
      <point x="222" y="396"/>
      <point x="158" y="428"/>
      <point x="136" y="486" type="curve"/>
      <point x="110" y="467"/>
      <point x="92" y="431"/>
      <point x="92" y="392" type="curve"/>
    </contour>
  </outline>
</glyph>
<glyph name="dieresis" format="2">
  <advance width="376"/>
  <unicode hex="00A8"/>
  <outline>
    <contour>
      <point x="229" y="589" type="curve" smooth="yes"/>
      <point x="229" y="620"/>
      <point x="253" y="642"/>
      <point x="286" y="642" type="curve" smooth="yes"/>
      <point x="319" y="642"/>
      <point x="342" y="620"/>
      <point x="342" y="589" type="curve" smooth="yes"/>
      <point x="342" y="558"/>
      <point x="319" y="536"/>
      <point x="286" y="536" type="curve" smooth="yes"/>
      <point x="253" y="536"/>
      <point x="229" y="558"/>
    </contour>
    <contour>
      <point x="34" y="589" type="curve" smooth="yes"/>
      <point x="34" y="620"/>
      <point x="58" y="642"/>
      <point x="90" y="642" type="curve" smooth="yes"/>
      <point x="123" y="642"/>
      <point x="147" y="620"/>
      <point x="147" y="589" type="curve" smooth="yes"/>
      <point x="147" y="558"/>
      <point x="123" y="536"/>
      <point x="90" y="536" type="curve" smooth="yes"/>
      <point x="58" y="536"/>
      <point x="34" y="558"/>
    </contour>
  </outline>
</glyph>
<glyph name="copyright" format="2">
  <advance width="768"/>
  <unicode hex="00A9"/>
  <outline>
    <contour>
      <point x="42" y="325" type="curve" smooth="yes"/>
      <point x="42" y="513"/>
      <point x="195" y="665"/>
      <point x="384" y="665" type="curve" smooth="yes"/>
      <point x="573" y="665"/>
      <point x="727" y="513"/>
      <point x="727" y="325" type="curve" smooth="yes"/>
      <point x="727" y="137"/>
      <point x="573" y="-14"/>
      <point x="384" y="-14" type="curve" smooth="yes"/>
      <point x="195" y="-14"/>
      <point x="42" y="137"/>
    </contour>
    <contour>
      <point x="102" y="325" type="curve" smooth="yes"/>
      <point x="102" y="159"/>
      <point x="226" y="28"/>
      <point x="384" y="28" type="curve" smooth="yes"/>
      <point x="542" y="28"/>
      <point x="666" y="159"/>
      <point x="666" y="325" type="curve" smooth="yes"/>
      <point x="666" y="491"/>
      <point x="542" y="622"/>
      <point x="384" y="622" type="curve" smooth="yes"/>
      <point x="226" y="622"/>
      <point x="102" y="491"/>
    </contour>
    <contour>
      <point x="206" y="325.074" type="curve" smooth="yes"/>
      <point x="206" y="441"/>
      <point x="273" y="517"/>
      <point x="402.152" y="517" type="curve" smooth="yes"/>
      <point x="449" y="517"/>
      <point x="500" y="507"/>
      <point x="529" y="488" type="curve"/>
      <point x="529" y="396" type="line"/>
      <point x="510" y="396" type="line"/>
      <point x="501" y="447"/>
      <point x="480" y="491"/>
      <point x="408.323" y="491" type="curve" smooth="yes"/>
      <point x="316" y="491"/>
      <point x="282" y="418"/>
      <point x="282" y="333.071" type="curve" smooth="yes"/>
      <point x="282" y="256"/>
      <point x="310" y="166"/>
      <point x="410.168" y="166" type="curve" smooth="yes"/>
      <point x="468" y="166"/>
      <point x="500" y="196"/>
      <point x="518" y="263" type="curve"/>
      <point x="537" y="263" type="line"/>
      <point x="526" y="169" type="line"/>
      <point x="502" y="151"/>
      <point x="458" y="140"/>
      <point x="404.682" y="140" type="curve" smooth="yes"/>
      <point x="260" y="140"/>
      <point x="206" y="221"/>
    </contour>
  </outline>
</glyph>
<glyph name="ordfeminine" format="2">
  <advance width="366"/>
  <unicode hex="00AA"/>
  <outline>
    <contour>
      <point x="38" y="334" type="curve" smooth="yes"/>
      <point x="38" y="365"/>
      <point x="52" y="386"/>
      <point x="112" y="406" type="curve" smooth="yes"/>
      <point x="221" y="443" type="line"/>
      <point x="221" y="478" type="line" smooth="yes"/>
      <point x="221" y="516"/>
      <point x="197" y="528"/>
      <point x="176" y="528" type="curve" smooth="yes"/>
      <point x="156" y="528"/>
      <point x="131" y="518"/>
      <point x="119" y="484" type="curve" smooth="yes"/>
      <point x="114" y="469"/>
      <point x="105" y="456"/>
      <point x="90" y="456" type="curve" smooth="yes"/>
      <point x="75" y="456"/>
      <point x="50" y="468"/>
      <point x="50" y="489" type="curve" smooth="yes"/>
      <point x="50" y="521"/>
      <point x="109" y="555"/>
      <point x="189" y="555" type="curve" smooth="yes"/>
      <point x="278" y="555"/>
      <point x="286" y="512"/>
      <point x="286" y="479" type="curve" smooth="yes"/>
      <point x="286" y="335" type="line" smooth="yes"/>
      <point x="286" y="306"/>
      <point x="291" y="282"/>
      <point x="322" y="282" type="curve" smooth="yes"/>
      <point x="328" y="282"/>
      <point x="335" y="283"/>
      <point x="339" y="284" type="curve"/>
      <point x="342" y="267" type="line"/>
      <point x="318" y="256"/>
      <point x="290" y="250"/>
      <point x="270" y="250" type="curve" smooth="yes"/>
      <point x="240" y="250"/>
      <point x="229" y="263"/>
      <point x="221" y="286" type="curve"/>
      <point x="193" y="263"/>
      <point x="159" y="249"/>
      <point x="125" y="249" type="curve" smooth="yes"/>
      <point x="68" y="249"/>
      <point x="38" y="289"/>
    </contour>
    <contour>
      <point x="112" y="339" type="curve" smooth="yes"/>
      <point x="112" y="308"/>
      <point x="129" y="282"/>
      <point x="163" y="282" type="curve" smooth="yes"/>
      <point x="189" y="282"/>
      <point x="221" y="298"/>
      <point x="221" y="344" type="curve" smooth="yes"/>
      <point x="221" y="417" type="line"/>
      <point x="162" y="398" type="line" smooth="yes"/>
      <point x="128" y="387"/>
      <point x="112" y="369"/>
    </contour>
  </outline>
</glyph>
<glyph name="guillemotleft" format="2">
  <advance width="415"/>
  <unicode hex="00AB"/>
  <outline>
    <contour>
      <point x="39" y="225" type="curve" smooth="yes"/>
      <point x="39" y="230"/>
      <point x="39" y="235"/>
      <point x="43" y="239" type="curve"/>
      <point x="184" y="409" type="line"/>
      <point x="203" y="393" type="line"/>
      <point x="129" y="240" type="line"/>
      <point x="126" y="235"/>
      <point x="125" y="230"/>
      <point x="125" y="225" type="curve" smooth="yes"/>
      <point x="125" y="219"/>
      <point x="126" y="214"/>
      <point x="129" y="208" type="curve" smooth="yes"/>
      <point x="203" y="54" type="line"/>
      <point x="184" y="39" type="line"/>
      <point x="43" y="210" type="line" smooth="yes"/>
      <point x="39" y="215"/>
      <point x="39" y="219"/>
    </contour>
    <contour>
      <point x="212" y="225" type="curve" smooth="yes"/>
      <point x="212" y="230"/>
      <point x="213" y="235"/>
      <point x="217" y="239" type="curve"/>
      <point x="358" y="409" type="line"/>
      <point x="377" y="393" type="line"/>
      <point x="303" y="240" type="line"/>
      <point x="300" y="235"/>
      <point x="299" y="230"/>
      <point x="299" y="225" type="curve" smooth="yes"/>
      <point x="299" y="219"/>
      <point x="300" y="214"/>
      <point x="303" y="208" type="curve" smooth="yes"/>
      <point x="377" y="54" type="line"/>
      <point x="358" y="39" type="line"/>
      <point x="217" y="210" type="line" smooth="yes"/>
      <point x="213" y="215"/>
      <point x="212" y="219"/>
    </contour>
  </outline>
</glyph>
<glyph name="logicalnot" format="2">
  <advance width="535"/>
  <unicode hex="00AC"/>
  <outline>
    <contour>
      <point x="40" y="311" type="line"/>
      <point x="40" y="366" type="line"/>
      <point x="495" y="366" type="line"/>
      <point x="495" y="96" type="line"/>
      <point x="431" y="96" type="line"/>
      <point x="431" y="311" type="line"/>
    </contour>
  </outline>
</glyph>
<glyph name="registered" format="2">
  <advance width="768"/>
  <unicode hex="00AE"/>
  <outline>
    <contour>
      <point x="42" y="325" type="curve" smooth="yes"/>
      <point x="42" y="513"/>
      <point x="195" y="665"/>
      <point x="384" y="665" type="curve" smooth="yes"/>
      <point x="573" y="665"/>
      <point x="727" y="513"/>
      <point x="727" y="325" type="curve" smooth="yes"/>
      <point x="727" y="137"/>
      <point x="573" y="-14"/>
      <point x="384" y="-14" type="curve" smooth="yes"/>
      <point x="195" y="-14"/>
      <point x="42" y="137"/>
    </contour>
    <contour>
      <point x="102" y="325" type="curve" smooth="yes"/>
      <point x="102" y="159"/>
      <point x="226" y="28"/>
      <point x="384" y="28" type="curve" smooth="yes"/>
      <point x="542" y="28"/>
      <point x="666" y="159"/>
      <point x="666" y="325" type="curve" smooth="yes"/>
      <point x="666" y="491"/>
      <point x="542" y="622"/>
      <point x="384" y="622" type="curve" smooth="yes"/>
      <point x="226" y="622"/>
      <point x="102" y="491"/>
    </contour>
    <contour>
      <point x="229" y="149" type="line"/>
      <point x="229" y="168" type="line"/>
      <point x="258" y="172" type="line" smooth="yes"/>
      <point x="274" y="174"/>
      <point x="277" y="182"/>
      <point x="277" y="198" type="curve" smooth="yes"/>
      <point x="277" y="457" type="line" smooth="yes"/>
      <point x="277" y="475"/>
      <point x="274" y="483"/>
      <point x="258" y="485" type="curve" smooth="yes"/>
      <point x="229" y="489" type="line"/>
      <point x="229" y="508" type="line"/>
      <point x="399" y="508" type="line" smooth="yes"/>
      <point x="490" y="508"/>
      <point x="521" y="470"/>
      <point x="521" y="421" type="curve" smooth="yes"/>
      <point x="521" y="367"/>
      <point x="483" y="339"/>
      <point x="430" y="331" type="curve"/>
      <point x="430" y="328" type="line"/>
      <point x="482" y="313"/>
      <point x="493" y="279"/>
      <point x="502" y="242" type="curve" smooth="yes"/>
      <point x="512" y="200"/>
      <point x="522" y="173"/>
      <point x="561" y="164" type="curve"/>
      <point x="561" y="149" type="line"/>
      <point x="520" y="149" type="line" smooth="yes"/>
      <point x="475" y="149"/>
      <point x="454" y="177"/>
      <point x="436" y="250" type="curve" smooth="yes"/>
      <point x="424" y="301"/>
      <point x="414" y="314"/>
      <point x="370" y="314" type="curve" smooth="yes"/>
      <point x="338" y="314" type="line"/>
      <point x="338" y="198" type="line" smooth="yes"/>
      <point x="338" y="182"/>
      <point x="342" y="174"/>
      <point x="359" y="172" type="curve" smooth="yes"/>
      <point x="387" y="168" type="line"/>
      <point x="387" y="149" type="line"/>
    </contour>
    <contour>
      <point x="338" y="340" type="line"/>
      <point x="374" y="340" type="line" smooth="yes"/>
      <point x="422" y="340"/>
      <point x="455" y="360"/>
      <point x="455" y="412" type="curve" smooth="yes"/>
      <point x="455" y="469"/>
      <point x="417" y="481"/>
      <point x="371" y="481" type="curve" smooth="yes"/>
      <point x="342" y="481"/>
      <point x="338" y="476"/>
      <point x="338" y="462" type="curve" smooth="yes"/>
    </contour>
  </outline>
</glyph>
<glyph name="macron" format="2">
  <advance width="376"/>
  <unicode hex="00AF"/>
  <outline>
    <contour>
      <point x="53" y="561" type="line"/>
      <point x="53" y="617" type="line"/>
      <point x="323" y="617" type="line"/>
      <point x="323" y="561" type="line"/>
    </contour>
  </outline>
</glyph>
<glyph name="degree" format="2">
  <advance width="329"/>
  <unicode hex="00B0"/>
  <outline>
    <contour>
      <point x="35" y="509" type="curve" smooth="yes"/>
      <point x="35" y="579"/>
      <point x="94" y="639"/>
      <point x="164" y="639" type="curve" smooth="yes"/>
      <point x="234" y="639"/>
      <point x="294" y="579"/>
      <point x="294" y="509" type="curve" smooth="yes"/>
      <point x="294" y="439"/>
      <point x="234" y="380"/>
      <point x="164" y="380" type="curve" smooth="yes"/>
      <point x="94" y="380"/>
      <point x="35" y="439"/>
    </contour>
    <contour>
      <point x="87" y="509" type="curve" smooth="yes"/>
      <point x="87" y="461"/>
      <point x="123" y="425"/>
      <point x="164" y="425" type="curve" smooth="yes"/>
      <point x="205" y="425"/>
      <point x="242" y="461"/>
      <point x="242" y="509" type="curve" smooth="yes"/>
      <point x="242" y="557"/>
      <point x="205" y="594"/>
      <point x="164" y="594" type="curve" smooth="yes"/>
      <point x="123" y="594"/>
      <point x="87" y="557"/>
    </contour>
  </outline>
</glyph>
<glyph name="plusminus" format="2">
  <advance width="535"/>
  <unicode hex="00B1"/>
  <outline>
    <contour>
      <point x="40" y="292" type="line"/>
      <point x="40" y="347" type="line"/>
      <point x="237" y="347" type="line"/>
      <point x="237" y="523" type="line"/>
      <point x="301" y="523" type="line"/>
      <point x="301" y="347" type="line"/>
      <point x="495" y="347" type="line"/>
      <point x="495" y="292" type="line"/>
      <point x="301" y="292" type="line"/>
      <point x="301" y="107" type="line"/>
      <point x="237" y="107" type="line"/>
      <point x="237" y="292" type="line"/>
    </contour>
    <contour>
      <point x="40" y="0" type="line"/>
      <point x="40" y="55" type="line"/>
      <point x="495" y="55" type="line"/>
      <point x="495" y="0" type="line"/>
    </contour>
  </outline>
</glyph>
<glyph name="uni00B2" format="2">
  <advance width="357"/>
  <unicode hex="00B2"/>
  <outline>
    <contour>
      <point x="30" y="365" type="line"/>
      <point x="37" y="410"/>
      <point x="71" y="461"/>
      <point x="155" y="518" type="curve" smooth="yes"/>
      <point x="218" y="561"/>
      <point x="230" y="610"/>
      <point x="230" y="647" type="curve" smooth="yes"/>
      <point x="230" y="685"/>
      <point x="214" y="713"/>
      <point x="179" y="713" type="curve" smooth="yes"/>
      <point x="150" y="713"/>
      <point x="125" y="693"/>
      <point x="114" y="638" type="curve" smooth="yes"/>
      <point x="111" y="623"/>
      <point x="105" y="615"/>
      <point x="89" y="615" type="curve" smooth="yes"/>
      <point x="69" y="615"/>
      <point x="47" y="629"/>
      <point x="47" y="649" type="curve" smooth="yes"/>
      <point x="47" y="691"/>
      <point x="93" y="739"/>
      <point x="181" y="739" type="curve" smooth="yes"/>
      <point x="261" y="739"/>
      <point x="311" y="706"/>
      <point x="311" y="637" type="curve" smooth="yes"/>
      <point x="311" y="578"/>
      <point x="270" y="544"/>
      <point x="186" y="498" type="curve" smooth="yes"/>
      <point x="130" y="467"/>
      <point x="109" y="434"/>
      <point x="101" y="411" type="curve"/>
      <point x="253" y="411" type="line" smooth="yes"/>
      <point x="283" y="411"/>
      <point x="294" y="420"/>
      <point x="306" y="444" type="curve"/>
      <point x="327" y="439" type="line"/>
      <point x="302" y="356" type="line"/>
      <point x="39" y="356" type="line"/>
    </contour>
  </outline>
</glyph>
<glyph name="uni00B3" format="2">
  <advance width="357"/>
  <unicode hex="00B3"/>
  <outline>
    <contour>
      <point x="34" y="421" type="line"/>
      <point x="34" y="444"/>
      <point x="56" y="462"/>
      <point x="76" y="462" type="curve" smooth="yes"/>
      <point x="87" y="462"/>
      <point x="94" y="455"/>
      <point x="98" y="443" type="curve" smooth="yes"/>
      <point x="113" y="396"/>
      <point x="140" y="375"/>
      <point x="172" y="375" type="curve" smooth="yes"/>
      <point x="208" y="375"/>
      <point x="238" y="397"/>
      <point x="238" y="461" type="curve" smooth="yes"/>
      <point x="238" y="531"/>
      <point x="189" y="540"/>
      <point x="173" y="540" type="curve" smooth="yes"/>
      <point x="144" y="540"/>
      <point x="127" y="533"/>
      <point x="119" y="533" type="curve" smooth="yes"/>
      <point x="107" y="533"/>
      <point x="103" y="544"/>
      <point x="103" y="555" type="curve" smooth="yes"/>
      <point x="103" y="566"/>
      <point x="106" y="578"/>
      <point x="119" y="578" type="curve" smooth="yes"/>
      <point x="127" y="578"/>
      <point x="144" y="571"/>
      <point x="173" y="571" type="curve" smooth="yes"/>
      <point x="212" y="571"/>
      <point x="225" y="608"/>
      <point x="225" y="642" type="curve" smooth="yes"/>
      <point x="225" y="666"/>
      <point x="217" y="713"/>
      <point x="171" y="713" type="curve" smooth="yes"/>
      <point x="138" y="713"/>
      <point x="121" y="686"/>
      <point x="110" y="642" type="curve"/>
      <point x="106" y="629"/>
      <point x="97" y="625"/>
      <point x="88" y="625" type="curve" smooth="yes"/>
      <point x="71" y="625"/>
      <point x="50" y="638"/>
      <point x="50" y="660" type="curve" smooth="yes"/>
      <point x="50" y="697"/>
      <point x="98" y="739"/>
      <point x="176" y="739" type="curve" smooth="yes"/>
      <point x="233" y="739"/>
      <point x="302" y="717"/>
      <point x="302" y="646" type="curve" smooth="yes"/>
      <point x="302" y="587"/>
      <point x="249" y="567"/>
      <point x="219" y="560" type="curve"/>
      <point x="219" y="558" type="line"/>
      <point x="249" y="556"/>
      <point x="319" y="533"/>
      <point x="319" y="459" type="curve" smooth="yes"/>
      <point x="319" y="388"/>
      <point x="262" y="349"/>
      <point x="164" y="349" type="curve" smooth="yes"/>
      <point x="88" y="349"/>
      <point x="34" y="382"/>
      <point x="34" y="421" type="curve"/>
    </contour>
  </outline>
</glyph>
<glyph name="acute" format="2">
  <advance width="376"/>
  <unicode hex="00B4"/>
  <outline>
    <contour>
      <point x="121" y="528" type="line"/>
      <point x="233" y="641" type="line" smooth="yes"/>
      <point x="261" y="670"/>
      <point x="277" y="680"/>
      <point x="293" y="680" type="curve" smooth="yes"/>
      <point x="307" y="680"/>
      <point x="330" y="658"/>
      <point x="330" y="639" type="curve" smooth="yes"/>
      <point x="330" y="619"/>
      <point x="305" y="603"/>
      <point x="277" y="588" type="curve" smooth="yes"/>
      <point x="135" y="509" type="line"/>
    </contour>
  </outline>
</glyph>
<glyph name="mu" format="2">
  <advance width="569"/>
  <unicode hex="00B5"/>
  <outline>
    <contour>
      <point x="90" y="-187" type="curve" smooth="yes"/>
      <point x="90" y="378" type="line" smooth="yes"/>
      <point x="90" y="412"/>
      <point x="84" y="417"/>
      <point x="60" y="420" type="curve" smooth="yes"/>
      <point x="24" y="425" type="line"/>
      <point x="24" y="448" type="line"/>
      <point x="172" y="472" type="line"/>
      <point x="179" y="466" type="line"/>
      <point x="179" y="147" type="line" smooth="yes"/>
      <point x="179" y="74"/>
      <point x="219" y="39"/>
      <point x="277" y="39" type="curve" smooth="yes"/>
      <point x="348" y="39"/>
      <point x="397" y="90"/>
      <point x="397" y="166" type="curve" smooth="yes"/>
      <point x="397" y="378" type="line" smooth="yes"/>
      <point x="397" y="412"/>
      <point x="391" y="417"/>
      <point x="367" y="420" type="curve" smooth="yes"/>
      <point x="331" y="425" type="line"/>
      <point x="331" y="448" type="line"/>
      <point x="478" y="472" type="line"/>
      <point x="485" y="466" type="line"/>
      <point x="485" y="82" type="line" smooth="yes"/>
      <point x="485" y="36"/>
      <point x="491" y="32"/>
      <point x="556" y="27" type="curve"/>
      <point x="556" y="0" type="line"/>
      <point x="405" y="0" type="line"/>
      <point x="396" y="56" type="line"/>
      <point x="370" y="30"/>
      <point x="309" y="-11"/>
      <point x="230" y="-11" type="curve" smooth="yes"/>
      <point x="191" y="-11"/>
      <point x="168" y="-1"/>
      <point x="143" y="20" type="curve"/>
      <point x="140" y="20" type="line"/>
      <point x="140" y="-11" type="line" smooth="yes"/>
      <point x="140" y="-49"/>
      <point x="153" y="-90"/>
      <point x="167" y="-114" type="curve" smooth="yes"/>
      <point x="181" y="-138"/>
      <point x="192" y="-160"/>
      <point x="192" y="-176" type="curve" smooth="yes"/>
      <point x="192" y="-206"/>
      <point x="150" y="-231"/>
      <point x="121" y="-231" type="curve" smooth="yes"/>
      <point x="105" y="-231"/>
      <point x="90" y="-224"/>
    </contour>
  </outline>
</glyph>
<glyph name="paragraph" format="2">
  <advance width="521"/>
  <unicode hex="00B6"/>
  <outline>
    <contour>
      <point x="60" y="438" type="curve" smooth="yes"/>
      <point x="60" y="571"/>
      <point x="142" y="650"/>
      <point x="274" y="650" type="curve"/>
      <point x="274" y="235" type="line"/>
      <point x="149" y="235"/>
      <point x="60" y="308"/>
    </contour>
    <contour>
      <point x="246" y="-70" type="line"/>
      <point x="316" y="-62" type="line" smooth="yes"/>
      <point x="335" y="-60"/>
      <point x="341" y="-51"/>
      <point x="341" y="-24" type="curve" smooth="yes"/>
      <point x="341" y="650" type="line"/>
      <point x="497" y="650" type="line"/>
      <point x="497" y="626" type="line"/>
      <point x="433" y="618" type="line" smooth="yes"/>
      <point x="415" y="616"/>
      <point x="408" y="610"/>
      <point x="408" y="583" type="curve" smooth="yes"/>
      <point x="408" y="-95" type="line"/>
      <point x="246" y="-95" type="line"/>
    </contour>
  </outline>
</glyph>
<glyph name="periodcentered" format="2">
  <advance width="249"/>
  <unicode hex="00B7"/>
  <outline>
    <contour>
      <point x="66" y="236" type="line"/>
      <point x="66" y="271"/>
      <point x="89" y="297"/>
      <point x="125" y="297" type="curve" smooth="yes"/>
      <point x="162" y="297"/>
      <point x="184" y="271"/>
      <point x="184" y="236" type="curve"/>
      <point x="183" y="202"/>
      <point x="162" y="177"/>
      <point x="125" y="177" type="curve" smooth="yes"/>
      <point x="89" y="177"/>
      <point x="66" y="202"/>
      <point x="66" y="236" type="curve"/>
    </contour>
  </outline>
</glyph>
<glyph name="cedilla" format="2">
  <advance width="376"/>
  <unicode hex="00B8"/>
  <outline>
    <contour>
      <point x="153" y="-189" type="line"/>
      <point x="199" y="-189"/>
      <point x="236" y="-175"/>
      <point x="236" y="-136" type="curve" smooth="yes"/>
      <point x="236" y="-90"/>
      <point x="188" y="-87"/>
      <point x="171" y="-86" type="curve"/>
      <point x="167" y="-79" type="line"/>
      <point x="223" y="10" type="line"/>
      <point x="262" y="10" type="line"/>
      <point x="222" y="-52" type="line"/>
      <point x="257" y="-57"/>
      <point x="309" y="-73"/>
      <point x="309" y="-131" type="curve" smooth="yes"/>
      <point x="309" y="-205"/>
      <point x="224" y="-216"/>
      <point x="189" y="-216" type="curve" smooth="yes"/>
      <point x="178" y="-216"/>
      <point x="166" y="-215"/>
      <point x="153" y="-213" type="curve"/>
    </contour>
  </outline>
  <guideline angle="57.6698" x="167" y="-79"/>
  <guideline angle="236.821" x="256" y="0"/>
  <guideline angle="0" x="0" y="10"/>
</glyph>
<glyph name="uni00B9" format="2">
  <advance width="357"/>
  <unicode hex="00B9"/>
  <outline>
    <contour>
      <point x="76" y="356" type="line"/>
      <point x="76" y="376" type="line"/>
      <point x="128" y="381" type="line" smooth="yes"/>
      <point x="140" y="382"/>
      <point x="148" y="388"/>
      <point x="148" y="406" type="curve" smooth="yes"/>
      <point x="148" y="672" type="line" smooth="yes"/>
      <point x="148" y="686"/>
      <point x="143" y="692"/>
      <point x="133" y="694" type="curve"/>
      <point x="76" y="702" type="line"/>
      <point x="76" y="719" type="line"/>
      <point x="211" y="739" type="line"/>
      <point x="217" y="735" type="line"/>
      <point x="217" y="406" type="line" smooth="yes"/>
      <point x="217" y="388"/>
      <point x="225" y="382"/>
      <point x="238" y="381" type="curve" smooth="yes"/>
      <point x="289" y="376" type="line"/>
      <point x="289" y="356" type="line"/>
    </contour>
  </outline>
</glyph>
<glyph name="ordmasculine" format="2">
  <advance width="374"/>
  <unicode hex="00BA"/>
  <outline>
    <contour>
      <point x="33" y="401" type="line"/>
      <point x="33" y="498"/>
      <point x="84" y="555"/>
      <point x="186" y="555" type="curve" smooth="yes"/>
      <point x="290" y="555"/>
      <point x="341" y="498"/>
      <point x="341" y="401" type="curve" smooth="yes"/>
      <point x="341" y="305"/>
      <point x="290" y="249"/>
      <point x="186" y="249" type="curve" smooth="yes"/>
      <point x="84" y="249"/>
      <point x="33" y="305"/>
      <point x="33" y="401" type="curve"/>
    </contour>
    <contour>
      <point x="111" y="401" type="line"/>
      <point x="113" y="324"/>
      <point x="133" y="275"/>
      <point x="186" y="275" type="curve" smooth="yes"/>
      <point x="241" y="275"/>
      <point x="261" y="324"/>
      <point x="263" y="401" type="curve"/>
      <point x="261" y="479"/>
      <point x="241" y="528"/>
      <point x="186" y="528" type="curve" smooth="yes"/>
      <point x="133" y="528"/>
      <point x="113" y="479"/>
      <point x="111" y="401" type="curve"/>
    </contour>
  </outline>
</glyph>
<glyph name="guillemotright" format="2">
  <advance width="415"/>
  <unicode hex="00BB"/>
  <outline>
    <contour>
      <point x="212" y="54" type="line"/>
      <point x="287" y="208" type="line" smooth="yes"/>
      <point x="290" y="214"/>
      <point x="290" y="219"/>
      <point x="290" y="225" type="curve" smooth="yes"/>
      <point x="290" y="230"/>
      <point x="290" y="235"/>
      <point x="287" y="240" type="curve"/>
      <point x="212" y="393" type="line"/>
      <point x="231" y="409" type="line"/>
      <point x="372" y="239" type="line"/>
      <point x="375" y="235"/>
      <point x="377" y="230"/>
      <point x="377" y="225" type="curve" smooth="yes"/>
      <point x="377" y="219"/>
      <point x="375" y="215"/>
      <point x="372" y="210" type="curve"/>
      <point x="231" y="39" type="line"/>
    </contour>
    <contour>
      <point x="39" y="54" type="line"/>
      <point x="113" y="208" type="line" smooth="yes"/>
      <point x="116" y="214"/>
      <point x="117" y="219"/>
      <point x="117" y="225" type="curve" smooth="yes"/>
      <point x="117" y="230"/>
      <point x="116" y="235"/>
      <point x="113" y="240" type="curve"/>
      <point x="39" y="393" type="line"/>
      <point x="57" y="409" type="line"/>
      <point x="198" y="239" type="line"/>
      <point x="201" y="235"/>
      <point x="203" y="230"/>
      <point x="203" y="225" type="curve" smooth="yes"/>
      <point x="203" y="219"/>
      <point x="201" y="215"/>
      <point x="198" y="210" type="curve"/>
      <point x="57" y="39" type="line"/>
    </contour>
  </outline>
</glyph>
<glyph name="onequarter" format="2">
  <advance width="808"/>
  <unicode hex="00BC"/>
  <outline>
    <contour>
      <point x="61" y="256" type="line"/>
      <point x="61" y="276" type="line"/>
      <point x="113" y="281" type="line" smooth="yes"/>
      <point x="125" y="282"/>
      <point x="133" y="288"/>
      <point x="133" y="306" type="curve" smooth="yes"/>
      <point x="133" y="572" type="line" smooth="yes"/>
      <point x="133" y="586"/>
      <point x="128" y="593"/>
      <point x="118" y="594" type="curve"/>
      <point x="61" y="602" type="line"/>
      <point x="61" y="619" type="line"/>
      <point x="196" y="639" type="line"/>
      <point x="202" y="635" type="line"/>
      <point x="202" y="306" type="line" smooth="yes"/>
      <point x="202" y="288"/>
      <point x="210" y="282"/>
      <point x="223" y="281" type="curve" smooth="yes"/>
      <point x="274" y="276" type="line"/>
      <point x="274" y="256" type="line"/>
    </contour>
    <contour>
      <point x="187" y="0" type="line"/>
      <point x="589" y="653" type="line"/>
      <point x="625" y="631" type="line"/>
      <point x="221" y="-25" type="line"/>
    </contour>
    <contour>
      <point x="449" y="112" type="line"/>
      <point x="504" y="202"/>
      <point x="589" y="326"/>
      <point x="630" y="377" type="curve"/>
      <point x="687" y="377" type="line"/>
      <point x="687" y="127" type="line"/>
      <point x="747" y="127" type="line"/>
      <point x="747" y="96" type="line"/>
      <point x="687" y="96" type="line"/>
      <point x="687" y="50" type="line" smooth="yes"/>
      <point x="687" y="32"/>
      <point x="695" y="27"/>
      <point x="708" y="25" type="curve"/>
      <point x="740" y="21" type="line"/>
      <point x="740" y="0" type="line"/>
      <point x="556" y="0" type="line"/>
      <point x="556" y="21" type="line"/>
      <point x="598" y="25" type="line" smooth="yes"/>
      <point x="610" y="26"/>
      <point x="618" y="32"/>
      <point x="618" y="50" type="curve" smooth="yes"/>
      <point x="618" y="96" type="line"/>
      <point x="460" y="96" type="line"/>
    </contour>
    <contour>
      <point x="501" y="127" type="line"/>
      <point x="618" y="127" type="line"/>
      <point x="618" y="313" type="line"/>
      <point x="615" y="313" type="line"/>
      <point x="579" y="260"/>
      <point x="536" y="193"/>
      <point x="500" y="130" type="curve"/>
    </contour>
  </outline>
</glyph>
<glyph name="onehalf" format="2">
  <advance width="808"/>
  <unicode hex="00BD"/>
  <outline>
    <contour>
      <point x="55" y="256" type="line"/>
      <point x="55" y="276" type="line"/>
      <point x="106" y="281" type="line" smooth="yes"/>
      <point x="118" y="282"/>
      <point x="126" y="288"/>
      <point x="126" y="306" type="curve" smooth="yes"/>
      <point x="126" y="572" type="line" smooth="yes"/>
      <point x="126" y="586"/>
      <point x="122" y="593"/>
      <point x="112" y="594" type="curve"/>
      <point x="55" y="602" type="line"/>
      <point x="55" y="619" type="line"/>
      <point x="189" y="639" type="line"/>
      <point x="196" y="635" type="line"/>
      <point x="196" y="306" type="line" smooth="yes"/>
      <point x="196" y="288"/>
      <point x="203" y="282"/>
      <point x="216" y="281" type="curve" smooth="yes"/>
      <point x="267" y="276" type="line"/>
      <point x="267" y="256" type="line"/>
    </contour>
    <contour>
      <point x="162" y="0" type="line"/>
      <point x="564" y="653" type="line"/>
      <point x="600" y="631" type="line"/>
      <point x="196" y="-25" type="line"/>
    </contour>
    <contour>
      <point x="462" y="9" type="line"/>
      <point x="469" y="54"/>
      <point x="503" y="106"/>
      <point x="587" y="163" type="curve" smooth="yes"/>
      <point x="650" y="206"/>
      <point x="662" y="254"/>
      <point x="662" y="288" type="curve" smooth="yes"/>
      <point x="662" y="329"/>
      <point x="645" y="357"/>
      <point x="610" y="357" type="curve" smooth="yes"/>
      <point x="581" y="357"/>
      <point x="556" y="337"/>
      <point x="546" y="287" type="curve" smooth="yes"/>
      <point x="542" y="267"/>
      <point x="537" y="259"/>
      <point x="521" y="259" type="curve" smooth="yes"/>
      <point x="501" y="259"/>
      <point x="478" y="273"/>
      <point x="478" y="299" type="curve" smooth="yes"/>
      <point x="478" y="335"/>
      <point x="525" y="384"/>
      <point x="617" y="384" type="curve" smooth="yes"/>
      <point x="693" y="384"/>
      <point x="743" y="350"/>
      <point x="743" y="283" type="curve" smooth="yes"/>
      <point x="743" y="225"/>
      <point x="706" y="183"/>
      <point x="618" y="142" type="curve" smooth="yes"/>
      <point x="562" y="116"/>
      <point x="540" y="78"/>
      <point x="532" y="55" type="curve"/>
      <point x="684" y="55" type="line" smooth="yes"/>
      <point x="714" y="55"/>
      <point x="725" y="64"/>
      <point x="737" y="88" type="curve"/>
      <point x="759" y="84" type="line"/>
      <point x="733" y="0" type="line"/>
      <point x="470" y="0" type="line"/>
    </contour>
  </outline>
</glyph>
<glyph name="threequarters" format="2">
  <advance width="808"/>
  <unicode hex="00BE"/>
  <outline>
    <contour>
      <point x="47" y="320" type="curve" smooth="yes"/>
      <point x="47" y="344"/>
      <point x="69" y="362"/>
      <point x="89" y="362" type="curve" smooth="yes"/>
      <point x="100" y="362"/>
      <point x="107" y="355"/>
      <point x="113" y="336" type="curve" smooth="yes"/>
      <point x="126" y="296"/>
      <point x="153" y="275"/>
      <point x="187" y="275" type="curve" smooth="yes"/>
      <point x="221" y="275"/>
      <point x="251" y="297"/>
      <point x="251" y="356" type="curve" smooth="yes"/>
      <point x="251" y="431"/>
      <point x="202" y="440"/>
      <point x="178" y="440" type="curve" smooth="yes"/>
      <point x="157" y="440"/>
      <point x="141" y="433"/>
      <point x="133" y="433" type="curve" smooth="yes"/>
      <point x="121" y="433"/>
      <point x="117" y="444"/>
      <point x="117" y="455" type="curve" smooth="yes"/>
      <point x="117" y="466"/>
      <point x="120" y="478"/>
      <point x="132" y="478" type="curve" smooth="yes"/>
      <point x="141" y="478"/>
      <point x="157" y="471"/>
      <point x="178" y="471" type="curve" smooth="yes"/>
      <point x="225" y="471"/>
      <point x="238" y="508"/>
      <point x="238" y="541" type="curve" smooth="yes"/>
      <point x="238" y="566"/>
      <point x="230" y="613"/>
      <point x="185" y="613" type="curve" smooth="yes"/>
      <point x="151" y="613"/>
      <point x="135" y="586"/>
      <point x="123" y="542" type="curve"/>
      <point x="120" y="529"/>
      <point x="111" y="525"/>
      <point x="102" y="525" type="curve" smooth="yes"/>
      <point x="85" y="525"/>
      <point x="63" y="538"/>
      <point x="63" y="562" type="curve" smooth="yes"/>
      <point x="63" y="597"/>
      <point x="111" y="639"/>
      <point x="189" y="639" type="curve" smooth="yes"/>
      <point x="246" y="639"/>
      <point x="315" y="617"/>
      <point x="315" y="548" type="curve" smooth="yes"/>
      <point x="315" y="487"/>
      <point x="262" y="468"/>
      <point x="232" y="461" type="curve"/>
      <point x="232" y="458" type="line"/>
      <point x="262" y="455"/>
      <point x="332" y="433"/>
      <point x="332" y="356" type="curve" smooth="yes"/>
      <point x="332" y="288"/>
      <point x="276" y="249"/>
      <point x="185" y="249" type="curve" smooth="yes"/>
      <point x="102" y="249"/>
      <point x="47" y="282"/>
    </contour>
    <contour>
      <point x="213" y="0" type="line"/>
      <point x="616" y="653" type="line"/>
      <point x="651" y="631" type="line"/>
      <point x="247" y="-25" type="line"/>
    </contour>
    <contour>
      <point x="462" y="112" type="line"/>
      <point x="517" y="202"/>
      <point x="601" y="326"/>
      <point x="642" y="377" type="curve"/>
      <point x="699" y="377" type="line"/>
      <point x="699" y="127" type="line"/>
      <point x="760" y="127" type="line"/>
      <point x="760" y="96" type="line"/>
      <point x="699" y="96" type="line"/>
      <point x="699" y="50" type="line" smooth="yes"/>
      <point x="699" y="32"/>
      <point x="707" y="26"/>
      <point x="720" y="25" type="curve"/>
      <point x="752" y="21" type="line"/>
      <point x="752" y="0" type="line"/>
      <point x="568" y="0" type="line"/>
      <point x="568" y="21" type="line"/>
      <point x="610" y="25" type="line" smooth="yes"/>
      <point x="622" y="26"/>
      <point x="630" y="32"/>
      <point x="630" y="50" type="curve" smooth="yes"/>
      <point x="630" y="96" type="line"/>
      <point x="472" y="96" type="line"/>
    </contour>
    <contour>
      <point x="514" y="127" type="line"/>
      <point x="630" y="127" type="line"/>
      <point x="630" y="301" type="line"/>
      <point x="627" y="301" type="line"/>
      <point x="588" y="248"/>
      <point x="549" y="189"/>
      <point x="512" y="130" type="curve"/>
    </contour>
  </outline>
</glyph>
<glyph name="questiondown" format="2">
  <advance width="365"/>
  <unicode hex="00BF"/>
  <outline>
    <contour>
      <point x="28" y="-76" type="line"/>
      <point x="30" y="0"/>
      <point x="86" y="32"/>
      <point x="118" y="55" type="curve" smooth="yes"/>
      <point x="165" y="88"/>
      <point x="190" y="123"/>
      <point x="190" y="164" type="curve" smooth="yes"/>
      <point x="190" y="216"/>
      <point x="146" y="232"/>
      <point x="126" y="232" type="curve" smooth="yes"/>
      <point x="115" y="232"/>
      <point x="105" y="230"/>
      <point x="98" y="228" type="curve"/>
      <point x="90" y="247" type="line"/>
      <point x="115" y="268"/>
      <point x="151" y="274"/>
      <point x="180" y="274" type="curve" smooth="yes"/>
      <point x="231" y="274"/>
      <point x="281" y="241"/>
      <point x="281" y="182" type="curve" smooth="yes"/>
      <point x="281" y="140"/>
      <point x="261" y="115"/>
      <point x="205" y="72" type="curve" smooth="yes"/>
      <point x="163" y="40"/>
      <point x="121" y="-17"/>
      <point x="121" y="-76" type="curve" smooth="yes"/>
      <point x="121" y="-131"/>
      <point x="138" y="-171"/>
      <point x="181" y="-171" type="curve" smooth="yes"/>
      <point x="219" y="-171"/>
      <point x="245" y="-140"/>
      <point x="258" y="-70" type="curve" smooth="yes"/>
      <point x="261" y="-54"/>
      <point x="275" y="-48"/>
      <point x="289" y="-48" type="curve" smooth="yes"/>
      <point x="305" y="-48"/>
      <point x="338" y="-60"/>
      <point x="338" y="-95" type="curve" smooth="yes"/>
      <point x="338" y="-126"/>
      <point x="301" y="-202"/>
      <point x="177" y="-204" type="curve" smooth="yes"/>
      <point x="92" y="-204"/>
      <point x="30" y="-163"/>
      <point x="28" y="-76" type="curve"/>
    </contour>
    <contour>
      <point x="129" y="414" type="line"/>
      <point x="129" y="448"/>
      <point x="152" y="472"/>
      <point x="187" y="472" type="curve" smooth="yes"/>
      <point x="223" y="472"/>
      <point x="244" y="448"/>
      <point x="245" y="414" type="curve"/>
      <point x="245" y="380"/>
      <point x="223" y="354"/>
      <point x="187" y="354" type="curve" smooth="yes"/>
      <point x="152" y="354"/>
      <point x="129" y="380"/>
      <point x="129" y="414" type="curve"/>
    </contour>
  </outline>
</glyph>
<glyph name="AE" format="2">
  <advance width="823"/>
  <unicode hex="00C6"/>
  <anchor x="419" y="697" name="top"/>
  <outline>
    <contour>
      <point x="-59" y="0" type="line"/>
      <point x="-59" y="27" type="line"/>
      <point x="-8" y="32"/>
      <point x="5" y="35"/>
      <point x="26" y="72" type="curve" smooth="yes"/>
      <point x="76" y="159"/>
      <point x="124" y="244"/>
      <point x="193" y="374" type="curve" smooth="yes"/>
      <point x="306" y="586" type="line" smooth="yes"/>
      <point x="311" y="595"/>
      <point x="313" y="601"/>
      <point x="313" y="606" type="curve" smooth="yes"/>
      <point x="313" y="614"/>
      <point x="307" y="617"/>
      <point x="295" y="618" type="curve" smooth="yes"/>
      <point x="225" y="623" type="line"/>
      <point x="225" y="650" type="line"/>
      <point x="761" y="650" type="line"/>
      <point x="761" y="496" type="line"/>
      <point x="733" y="496" type="line"/>
      <point x="720" y="594"/>
      <point x="698" y="618"/>
      <point x="591" y="618" type="curve" smooth="yes"/>
      <point x="499" y="618" type="line" smooth="yes"/>
      <point x="469" y="618"/>
      <point x="464" y="612"/>
      <point x="464" y="584" type="curve" smooth="yes"/>
      <point x="464" y="356" type="line"/>
      <point x="596" y="356" type="line" smooth="yes"/>
      <point x="676" y="356"/>
      <point x="680" y="379"/>
      <point x="688" y="437" type="curve"/>
      <point x="716" y="437" type="line"/>
      <point x="716" y="239" type="line"/>
      <point x="688" y="239" type="line"/>
      <point x="680" y="298"/>
      <point x="676" y="321"/>
      <point x="596" y="321" type="curve" smooth="yes"/>
      <point x="464" y="321" type="line"/>
      <point x="464" y="118" type="line" smooth="yes"/>
      <point x="464" y="56"/>
      <point x="497" y="33"/>
      <point x="586" y="33" type="curve" smooth="yes"/>
      <point x="703" y="33"/>
      <point x="746" y="48"/>
      <point x="768" y="163" type="curve"/>
      <point x="796" y="163" type="line"/>
      <point x="785" y="0" type="line"/>
      <point x="289" y="0" type="line"/>
      <point x="289" y="27" type="line"/>
      <point x="371" y="33"/>
      <point x="373" y="34"/>
      <point x="373" y="89" type="curve" smooth="yes"/>
      <point x="373" y="321" type="line"/>
      <point x="212" y="321" type="line"/>
      <point x="127" y="158"/>
      <point x="92" y="84"/>
      <point x="84" y="64" type="curve" smooth="yes"/>
      <point x="81" y="56"/>
      <point x="80" y="51"/>
      <point x="80" y="47" type="curve" smooth="yes"/>
      <point x="80" y="40"/>
      <point x="86" y="35"/>
      <point x="96" y="34" type="curve" smooth="yes"/>
      <point x="158" y="27" type="line"/>
      <point x="158" y="0" type="line"/>
    </contour>
    <contour>
      <point x="229" y="356" type="curve"/>
      <point x="373" y="356" type="line"/>
      <point x="373" y="613" type="line"/>
      <point x="368" y="613" type="line"/>
      <point x="309" y="506"/>
      <point x="249" y="394"/>
    </contour>
  </outline>
</glyph>
<glyph name="Eth" format="2">
  <advance width="737"/>
  <unicode hex="00D0"/>
  <outline>
    <component base="D" xOffset="5"/>
    <contour>
      <point x="19" y="356" type="line"/>
      <point x="346" y="356" type="line"/>
      <point x="346" y="321" type="line"/>
      <point x="19" y="321" type="line"/>
    </contour>
  </outline>
</glyph>
<glyph name="multiply" format="2">
  <advance width="535"/>
  <unicode hex="00D7"/>
  <outline>
    <contour>
      <point x="98" y="21" type="line"/>
      <point x="59" y="62" type="line"/>
      <point x="227" y="235" type="line"/>
      <point x="59" y="406" type="line"/>
      <point x="98" y="449" type="line"/>
      <point x="268" y="276" type="line"/>
      <point x="437" y="449" type="line"/>
      <point x="477" y="406" type="line"/>
      <point x="308" y="235" type="line"/>
      <point x="477" y="62" type="line"/>
      <point x="437" y="21" type="line"/>
      <point x="268" y="194" type="line"/>
    </contour>
  </outline>
</glyph>
<glyph name="Oslash" format="2">
  <advance width="716"/>
  <unicode hex="00D8"/>
  <anchor x="358" y="697" name="top"/>
  <outline>
    <component base="O"/>
    <contour>
      <point x="190" y="97" type="line"/>
      <point x="502" y="588" type="line"/>
      <point x="525" y="555" type="line"/>
      <point x="214" y="64" type="line"/>
    </contour>
    <contour>
      <point x="112" y="-27" type="line"/>
      <point x="166" y="59" type="line"/>
      <point x="198" y="39" type="line"/>
      <point x="142" y="-50" type="line"/>
    </contour>
    <contour>
      <point x="517" y="612" type="line"/>
      <point x="569" y="695" type="line"/>
      <point x="601" y="675" type="line"/>
      <point x="548" y="592" type="line"/>
    </contour>
  </outline>
</glyph>
<glyph name="Thorn" format="2">
  <advance width="557"/>
  <unicode hex="00DE"/>
  <outline>
    <contour>
      <point x="33" y="0" type="line"/>
      <point x="33" y="27" type="line"/>
      <point x="116" y="33"/>
      <point x="118" y="34"/>
      <point x="118" y="87" type="curve" smooth="yes"/>
      <point x="118" y="563" type="line" smooth="yes"/>
      <point x="118" y="616"/>
      <point x="116" y="617"/>
      <point x="33" y="623" type="curve"/>
      <point x="33" y="650" type="line"/>
      <point x="295" y="650" type="line"/>
      <point x="295" y="623" type="line"/>
      <point x="213" y="617"/>
      <point x="211" y="616"/>
      <point x="211" y="563" type="curve" smooth="yes"/>
      <point x="211" y="520" type="line"/>
      <point x="287" y="520" type="line" smooth="yes"/>
      <point x="400" y="520"/>
      <point x="523" y="490"/>
      <point x="523" y="350" type="curve" smooth="yes"/>
      <point x="523" y="212"/>
      <point x="402" y="171"/>
      <point x="284" y="171" type="curve" smooth="yes"/>
      <point x="211" y="171" type="line"/>
      <point x="211" y="87" type="line" smooth="yes"/>
      <point x="211" y="34"/>
      <point x="214" y="33"/>
      <point x="303" y="27" type="curve"/>
      <point x="303" y="0" type="line"/>
    </contour>
    <contour>
      <point x="211" y="243" type="line" smooth="yes"/>
      <point x="211" y="217"/>
      <point x="217" y="204"/>
      <point x="272" y="204" type="curve" smooth="yes"/>
      <point x="364" y="204"/>
      <point x="422" y="241"/>
      <point x="422" y="340" type="curve" smooth="yes"/>
      <point x="422" y="436"/>
      <point x="368" y="487"/>
      <point x="279" y="487" type="curve" smooth="yes"/>
      <point x="226" y="487"/>
      <point x="211" y="484"/>
      <point x="211" y="452" type="curve" smooth="yes"/>
    </contour>
  </outline>
</glyph>
<glyph name="germandbls" format="2">
  <advance width="564"/>
  <unicode hex="00DF"/>
  <outline>
    <contour>
      <point x="21" y="0" type="line"/>
      <point x="21" y="27" type="line"/>
      <point x="89" y="32"/>
      <point x="91" y="34"/>
      <point x="91" y="82" type="curve" smooth="yes"/>
      <point x="91" y="428" type="line" smooth="yes"/>
      <point x="91" y="612"/>
      <point x="158" y="697"/>
      <point x="294" y="697" type="curve" smooth="yes"/>
      <point x="409" y="697"/>
      <point x="484" y="637"/>
      <point x="484" y="554" type="curve" smooth="yes"/>
      <point x="484" y="525"/>
      <point x="475" y="498"/>
      <point x="459" y="477" type="curve"/>
      <point x="389" y="468"/>
      <point x="349" y="434"/>
      <point x="349" y="382" type="curve" smooth="yes"/>
      <point x="349" y="345"/>
      <point x="370" y="320"/>
      <point x="444" y="270" type="curve" smooth="yes"/>
      <point x="506" y="228"/>
      <point x="539" y="176"/>
      <point x="539" y="119" type="curve" smooth="yes"/>
      <point x="539" y="41"/>
      <point x="479" y="-11"/>
      <point x="388" y="-11" type="curve" smooth="yes"/>
      <point x="323" y="-11"/>
      <point x="271" y="16"/>
      <point x="271" y="50" type="curve" smooth="yes"/>
      <point x="271" y="69"/>
      <point x="288" y="86"/>
      <point x="305" y="86" type="curve" smooth="yes"/>
      <point x="315" y="86"/>
      <point x="322" y="80"/>
      <point x="330" y="66" type="curve" smooth="yes"/>
      <point x="346" y="38"/>
      <point x="370" y="22"/>
      <point x="398" y="22" type="curve" smooth="yes"/>
      <point x="435" y="22"/>
      <point x="462" y="51"/>
      <point x="462" y="97" type="curve" smooth="yes"/>
      <point x="462" y="142"/>
      <point x="437" y="176"/>
      <point x="374" y="218" type="curve" smooth="yes"/>
      <point x="302" y="265"/>
      <point x="273" y="307"/>
      <point x="273" y="360" type="curve" smooth="yes"/>
      <point x="273" y="420"/>
      <point x="312" y="463"/>
      <point x="383" y="483" type="curve"/>
      <point x="395" y="496"/>
      <point x="403" y="523"/>
      <point x="403" y="551" type="curve" smooth="yes"/>
      <point x="403" y="618"/>
      <point x="358" y="665"/>
      <point x="293" y="665" type="curve" smooth="yes"/>
      <point x="213" y="665"/>
      <point x="180" y="594"/>
      <point x="180" y="421" type="curve" smooth="yes"/>
      <point x="180" y="82" type="line" smooth="yes"/>
      <point x="180" y="34"/>
      <point x="183" y="32"/>
      <point x="250" y="27" type="curve"/>
      <point x="250" y="0" type="line"/>
    </contour>
  </outline>
</glyph>
<glyph name="ae" format="2">
  <advance width="749"/>
  <unicode hex="00E6"/>
  <anchor x="387" y="509" name="top"/>
  <outline>
    <contour>
      <point x="46" y="122" type="line"/>
      <point x="46" y="166"/>
      <point x="65" y="213"/>
      <point x="133" y="234" type="curve" smooth="yes"/>
      <point x="207" y="258"/>
      <point x="298" y="282"/>
      <point x="322" y="306" type="curve"/>
      <point x="322" y="347" type="line" smooth="yes"/>
      <point x="322" y="420"/>
      <point x="279" y="439"/>
      <point x="243" y="439" type="curve" smooth="yes"/>
      <point x="204" y="439"/>
      <point x="166" y="417"/>
      <point x="145" y="347" type="curve" smooth="yes"/>
      <point x="140" y="331"/>
      <point x="135" y="321"/>
      <point x="117" y="321" type="curve" smooth="yes"/>
      <point x="97" y="321"/>
      <point x="62" y="335"/>
      <point x="62" y="365" type="curve" smooth="yes"/>
      <point x="62" y="417"/>
      <point x="146" y="472"/>
      <point x="254" y="472" type="curve" smooth="yes"/>
      <point x="324" y="472"/>
      <point x="363" y="449"/>
      <point x="384" y="414" type="curve"/>
      <point x="420" y="453"/>
      <point x="466" y="472"/>
      <point x="528" y="472" type="curve" smooth="yes"/>
      <point x="700" y="472"/>
      <point x="718" y="338"/>
      <point x="718" y="283" type="curve" smooth="yes"/>
      <point x="718" y="252"/>
      <point x="701" y="247"/>
      <point x="681" y="247" type="curve" smooth="yes"/>
      <point x="410" y="247" type="line"/>
      <point x="408" y="149"/>
      <point x="431" y="37"/>
      <point x="548" y="37" type="curve" smooth="yes"/>
      <point x="622" y="37"/>
      <point x="658" y="81"/>
      <point x="684" y="136" type="curve"/>
      <point x="713" y="121" type="line"/>
      <point x="688" y="47"/>
      <point x="633" y="-10"/>
      <point x="529" y="-11" type="curve" smooth="yes"/>
      <point x="440" y="-12"/>
      <point x="385" y="18"/>
      <point x="355" y="70" type="curve"/>
      <point x="321" y="45" type="line" smooth="yes"/>
      <point x="294" y="25"/>
      <point x="241" y="-9"/>
      <point x="183" y="-11" type="curve"/>
      <point x="93" y="-11"/>
      <point x="46" y="52"/>
      <point x="46" y="122" type="curve"/>
    </contour>
    <contour>
      <point x="141" y="135" type="line"/>
      <point x="141" y="80"/>
      <point x="169" y="39"/>
      <point x="227" y="39" type="curve" smooth="yes"/>
      <point x="264" y="39"/>
      <point x="322" y="60"/>
      <point x="322" y="134" type="curve" smooth="yes"/>
      <point x="322" y="267" type="line"/>
      <point x="301" y="254"/>
      <point x="252" y="236"/>
      <point x="214" y="222" type="curve" smooth="yes"/>
      <point x="161" y="202"/>
      <point x="141" y="179"/>
      <point x="141" y="135" type="curve"/>
    </contour>
    <contour>
      <point x="411" y="283" type="line"/>
      <point x="588" y="283" type="line" smooth="yes"/>
      <point x="614" y="283"/>
      <point x="620" y="295"/>
      <point x="620" y="313" type="curve" smooth="yes"/>
      <point x="620" y="350"/>
      <point x="610" y="439"/>
      <point x="523" y="439" type="curve" smooth="yes"/>
      <point x="426" y="439"/>
      <point x="411" y="322"/>
      <point x="411" y="283" type="curve"/>
    </contour>
  </outline>
</glyph>
<glyph name="eth" format="2">
  <advance width="542"/>
  <unicode hex="00F0"/>
  <outline>
    <contour>
      <point x="46" y="230" type="line"/>
      <point x="46" y="380"/>
      <point x="121" y="472"/>
      <point x="274" y="472" type="curve" smooth="yes"/>
      <point x="292" y="472"/>
      <point x="307" y="469"/>
      <point x="323" y="466" type="curve"/>
      <point x="325" y="469" type="line"/>
      <point x="304" y="497"/>
      <point x="278" y="527"/>
      <point x="246" y="558" type="curve"/>
      <point x="124" y="503" type="line"/>
      <point x="101" y="537" type="line"/>
      <point x="215" y="588" type="line"/>
      <point x="185" y="615"/>
      <point x="149" y="644"/>
      <point x="110" y="673" type="curve"/>
      <point x="110" y="682" type="line"/>
      <point x="150" y="697" type="line"/>
      <point x="194" y="671"/>
      <point x="238" y="641"/>
      <point x="273" y="613" type="curve"/>
      <point x="396" y="670" type="line"/>
      <point x="419" y="636" type="line"/>
      <point x="307" y="586" type="line"/>
      <point x="343" y="557"/>
      <point x="374" y="526"/>
      <point x="397" y="499" type="curve" smooth="yes"/>
      <point x="467" y="415"/>
      <point x="496" y="345"/>
      <point x="496" y="240" type="curve" smooth="yes"/>
      <point x="496" y="71"/>
      <point x="419" y="-11"/>
      <point x="270" y="-11" type="curve" smooth="yes"/>
      <point x="121" y="-11"/>
      <point x="46" y="80"/>
      <point x="46" y="230" type="curve"/>
    </contour>
    <contour>
      <point x="144" y="230" type="line"/>
      <point x="144" y="104"/>
      <point x="177" y="22"/>
      <point x="270" y="22" type="curve" smooth="yes"/>
      <point x="367" y="22"/>
      <point x="399" y="104"/>
      <point x="399" y="230" type="curve" smooth="yes"/>
      <point x="399" y="370"/>
      <point x="373" y="439"/>
      <point x="270" y="439" type="curve" smooth="yes"/>
      <point x="177" y="439"/>
      <point x="144" y="356"/>
      <point x="144" y="230" type="curve"/>
    </contour>
  </outline>
</glyph>
